<svg id="Layer_1" data-name="Layer 1" xmlns="http://www.w3.org/2000/svg" viewBox="0 0 600 170"><defs><style>.cls-1{fill:#264577;}.cls-2{fill:#282827;}</style></defs><polygon class="cls-1" points="27.84 82.01 27.84 123.58 31.97 125.97 44.81 133.38 48.93 135.76 61.77 143.16 61.77 158 48.93 150.59 44.81 148.21 31.97 140.8 27.84 138.41 15 131 15 74.61 27.84 67.19 31.97 64.81 44.81 57.4 48.93 55.02 61.77 47.61 61.77 62.43 48.93 69.83 44.81 72.22 31.97 79.63 27.84 82.01"/><polygon class="cls-1" points="61.77 58.39 61.77 77.25 48.93 84.67 48.93 65.79 61.77 58.39"/><polygon class="cls-1" points="61.77 128.35 61.77 147.21 48.93 139.81 48.93 120.93 61.77 128.35"/><polygon class="cls-1" points="78.74 55.02 78.74 150.59 65.9 158 65.9 47.61 78.74 55.02"/><polygon class="cls-1" points="95.71 64.81 95.71 140.8 82.87 148.2 82.87 57.41 95.71 64.81"/><polygon class="cls-1" points="112.66 74.61 112.66 131 99.83 138.41 99.83 67.19 112.66 74.61"/><polygon class="cls-1" points="112.67 40.2 112.67 69.83 99.84 62.43 95.7 60.04 82.87 52.63 78.73 50.24 65.91 42.84 65.9 42.82 63.84 41.64 61.78 42.82 61.76 42.84 48.94 50.24 44.81 52.63 31.97 60.04 27.84 62.43 15 69.83 15 40.2 27.84 32.78 27.84 47.6 31.97 45.2 44.81 37.8 48.94 35.41 48.94 20.6 61.78 13.2 63.84 12.01 65.9 13.19 78.73 20.6 78.73 35.41 82.87 37.8 95.7 45.2 99.84 47.6 99.84 32.78 112.67 40.2"/><path class="cls-2" d="M168.22,64.64l.45,8.58a12.64,12.64,0,0,1-2.94,3.35,14.82,14.82,0,0,1-4.6,2.42,20.54,20.54,0,0,1-6.48.92A25,25,0,0,1,144,77.69a16.28,16.28,0,0,1-7.06-6.21,18.24,18.24,0,0,1-2.5-9.79A18.44,18.44,0,0,1,136.88,52a16,16,0,0,1,7-6.26,25,25,0,0,1,10.91-2.2,29.53,29.53,0,0,1,7.16.8,22,22,0,0,1,5.26,2l.1,8.53h-.45c-.89-3.29-2.36-5.64-4.39-7.06a12.21,12.21,0,0,0-7.14-2.12,11.76,11.76,0,0,0-6.83,1.95,12.43,12.43,0,0,0-4.4,5.49,21.13,21.13,0,0,0-1.54,8.48A22.5,22.5,0,0,0,144,70.13a12.74,12.74,0,0,0,4.19,5.59,11,11,0,0,0,6.42,2.09,15.13,15.13,0,0,0,6.48-1.24,9.54,9.54,0,0,0,4.27-4.15,24,24,0,0,0,2.42-7.78Z"/><path class="cls-2" d="M178.65,75.92A1.83,1.83,0,0,0,178.8,78a2.12,2.12,0,0,0,1.55.72h.4v.5h-10v-.5h.4a4.19,4.19,0,0,0,2.09-.62,4.58,4.58,0,0,0,1.8-2.17Zm9.39-28,.1,6L177.31,79.06h-3.7L185.29,54q.11-.3.45-1.08c.23-.51.48-1.1.75-1.74s.52-1.27.75-1.85a5.92,5.92,0,0,0,.4-1.37Zm4.34,21.51v1.95H179.65V69.43ZM188,47.92l14.77,31h-8.43l-9.29-21.91Zm5.09,28h8.23a4.82,4.82,0,0,0,1.85,2.17,4.2,4.2,0,0,0,2.1.62h.4v.5H191v-.5h.4A2.12,2.12,0,0,0,193,78,1.79,1.79,0,0,0,193.13,75.92Z"/><path class="cls-2" d="M217.74,48.61c.66,0,1.47,0,2.42.1l2.82.23c.93.08,1.75.18,2.47.3a9.73,9.73,0,0,1,1.47.32l-.65,6.09h-.45a4.5,4.5,0,0,0-1.6-3.64,6.91,6.91,0,0,0-4.59-1.35,6.56,6.56,0,0,0-3.87,1.05,3.54,3.54,0,0,0-1.57,2.79,2.59,2.59,0,0,0,.33,1.63,4.2,4.2,0,0,0,1.19,1.27c.52.37,1.09.73,1.73,1.1l7.83,4.84a7.64,7.64,0,0,1,3.15,2.89,7.91,7.91,0,0,1,1,4.6,9,9,0,0,1-1.63,4.84,9.29,9.29,0,0,1-4,3.12,15.77,15.77,0,0,1-6.06,1.07,21.82,21.82,0,0,1-4-.35,14,14,0,0,1-3.17-1,6.5,6.5,0,0,1-2-1.34,6.18,6.18,0,0,1-.35-2.43A12.26,12.26,0,0,1,208.6,72a9,9,0,0,1,1-2.37h.4a7.92,7.92,0,0,0,.8,4.14,7.13,7.13,0,0,0,2.87,3,8.87,8.87,0,0,0,4.57,1.12,6.17,6.17,0,0,0,4.34-1.34,4.26,4.26,0,0,0,1.45-3.2,3.71,3.71,0,0,0-.88-2.37,9.29,9.29,0,0,0-2.87-2.12l-7.09-4.49a8.17,8.17,0,0,1-3.61-3.45,7.88,7.88,0,0,1-.83-4.69,8.68,8.68,0,0,1,1.42-4.09,7.7,7.7,0,0,1,3.12-2.6A10.5,10.5,0,0,1,217.74,48.61Zm9.18.45,0,.9h-5.34v-.9Z"/><path class="cls-2" d="M232.46,48.46l1.32.3a16.11,16.11,0,0,0,1.95.33,17.87,17.87,0,0,0,2,.12l-5.24.5Zm28.9.75v2h-28.9v-2Zm-23.81,1.85v.15a4.55,4.55,0,0,0-3.37,1.3A4.75,4.75,0,0,0,233,55.9v.45h-.55V51.06Zm5.84,25v3.14h-3.34v-.5h.55a2.54,2.54,0,0,0,1.87-.77,2.75,2.75,0,0,0,.82-1.87Zm7.14-26.66v29.8h-7.24V49.41Zm-.15,26.66h.15a2.53,2.53,0,0,0,.8,1.87,2.66,2.66,0,0,0,1.94.77h.55v.5h-3.44Zm11-27.61v1.25l-5.24-.5a19.12,19.12,0,0,0,2.05-.12c.73-.08,1.39-.18,2-.3A5.64,5.64,0,0,0,261.36,48.46Zm0,2.6v5.29h-.5V55.9a4.5,4.5,0,0,0-1.17-3.39,4.67,4.67,0,0,0-3.37-1.3v-.15Z"/><path class="cls-2" d="M268.5,52.41h-.15a2.46,2.46,0,0,0-.83-1.9,2.75,2.75,0,0,0-1.92-.75H265v-.5h3.5Zm0,23.66.2,3.14H265v-.5h.65a2.62,2.62,0,0,0,1.9-.77,2.53,2.53,0,0,0,.8-1.87Zm7-26.81V79.21h-7.19V49.26Zm-.1,3.15V49.26h3.44v.5h-.6a2.7,2.7,0,0,0-1.9.75,2.65,2.65,0,0,0-.84,1.9Zm11.73,24.81,1.19,2H275.44v-2ZM290.46,70l-1.95,9.18h-8.63l1.55-2a8.11,8.11,0,0,0,3.81-.88,8.21,8.21,0,0,0,2.87-2.49A12.12,12.12,0,0,0,290,70Z"/><path class="cls-2" d="M296.45,52.41h-.15a2.5,2.5,0,0,0-.8-1.9,2.67,2.67,0,0,0-1.9-.75H293v-.5h3.69Zm0,23.66.2,3.14H293v-.5h.64a2.6,2.6,0,0,0,1.9-.77,2.53,2.53,0,0,0,.8-1.87Zm7-26.81V79.21H296.3V49.26Zm12.23,0v2H303.39v-2Zm-2.25,14.13v2H303.39v-2Zm1.7,13.83,1.15,2H303.39v-2ZM318.36,70l-1.89,9.18h-8.64l1.55-2a8.18,8.18,0,0,0,3.82-.88,8.39,8.39,0,0,0,2.87-2.49A12.33,12.33,0,0,0,317.91,70ZM313.47,59.1v4.39h-4.29v-.1A3.74,3.74,0,0,0,312,62.22a4,4,0,0,0,1-2.77V59.1Zm0,6.19v4.39H313v-.4a4,4,0,0,0-1-2.77,3.56,3.56,0,0,0-2.77-1.12v-.1Zm2.25-16.77v1.19l-5.24-.45a18.33,18.33,0,0,0,3-.27A17.63,17.63,0,0,0,315.72,48.52Zm0,2.64v5.29h-.5V56A4.79,4.79,0,0,0,314,52.56a4.53,4.53,0,0,0-3.36-1.3v-.1Z"/><path class="cls-2" d="M324.9,76v3.19H320v-.5h.65a3.48,3.48,0,0,0,2.17-.7A2.94,2.94,0,0,0,324,76Zm2.94-27.41h.4l1.7,4.8-3.14,25.8h-3.25Zm-.74,28.11a2.29,2.29,0,0,0,.32,1.27,1.41,1.41,0,0,0,1.37.72h.7v.5h-3l.3-2.49Zm1.14-28.11L343,70.73l-2.7,9.43L327.05,60.05Zm27.36,0,.4,5.15L342.57,75.07a21.85,21.85,0,0,0-1.32,2.79,7.56,7.56,0,0,0-.48,2.3h-.45l-1.94-4.09Zm-3.15,28.11h.3l.3,2.49h-3v-.5h.7A1.43,1.43,0,0,0,352.2,78,2,2,0,0,0,352.45,76.72Zm3.6-28.11,4.39,30.6H352.8L350.36,61l5.24-12.38ZM359,76H360a3.16,3.16,0,0,0,1.17,2,3.35,3.35,0,0,0,2.08.7h.69v.5H359Z"/><path class="cls-2" d="M383.65,48.61a22.88,22.88,0,0,1,7.24,1.08,16,16,0,0,1,5.59,3.12,13.92,13.92,0,0,1,3.62,4.94,16.23,16.23,0,0,1,1.27,6.54,15.91,15.91,0,0,1-1.27,6.46,14,14,0,0,1-3.62,4.92,16.29,16.29,0,0,1-5.59,3.12,23.18,23.18,0,0,1-7.24,1.07,23,23,0,0,1-7.19-1.07,16.29,16.29,0,0,1-5.59-3.12,13.7,13.7,0,0,1-3.59-4.92A16.08,16.08,0,0,1,366,64.29a16.4,16.4,0,0,1,1.25-6.54,13.6,13.6,0,0,1,3.59-4.94,16,16,0,0,1,5.59-3.12A22.65,22.65,0,0,1,383.65,48.61Zm0,29.3A8.71,8.71,0,0,0,389,76.24a10.56,10.56,0,0,0,3.49-4.72,19.43,19.43,0,0,0,1.22-7.23A19.8,19.8,0,0,0,392.46,57,10.65,10.65,0,0,0,389,52.23a8.78,8.78,0,0,0-5.32-1.67,8.56,8.56,0,0,0-5.24,1.67,10.9,10.9,0,0,0-3.5,4.75,19.38,19.38,0,0,0-1.24,7.31,19,19,0,0,0,1.24,7.23,10.8,10.8,0,0,0,3.5,4.72A8.5,8.5,0,0,0,383.65,77.91Z"/><path class="cls-2" d="M408.91,52.36h-.1a2.61,2.61,0,0,0-.83-1.87,2.54,2.54,0,0,0-1.82-.73h-.65v-.5h3.6Zm0,23.71.2,3.14h-3.6v-.5h.6a2.52,2.52,0,0,0,1.87-.77,2.76,2.76,0,0,0,.83-1.87ZM416,49.26V79.21h-7.23V49.26Zm4.84,0a19.18,19.18,0,0,1,4.05.43A11.33,11.33,0,0,1,428.37,51a6.86,6.86,0,0,1,2.47,2.49,7.61,7.61,0,0,1,.93,3.92,9,9,0,0,1-.73,3.47,7.6,7.6,0,0,1-2.24,3,8.31,8.31,0,0,1-4,1.65,7,7,0,0,1,2.77,1.74,13.26,13.26,0,0,1,2,2.45c.17.27.42.69.75,1.27s.75,1.25,1.27,2l1.62,2.32A17.11,17.11,0,0,0,435,77.39a4.52,4.52,0,0,0,1.55,1,5.22,5.22,0,0,0,1.84.3v.5h-4.19a22,22,0,0,1-4.57-.4,7.56,7.56,0,0,1-3.22-1.47,12.43,12.43,0,0,1-2.54-2.92,16.56,16.56,0,0,1-.95-1.57c-.33-.62-.67-1.24-1-1.87s-.62-1.25-.87-1.85a12.76,12.76,0,0,1-.53-1.5,6.1,6.1,0,0,0-1.47-2.32,2.4,2.4,0,0,0-1.52-.72v-.45h1.25a6,6,0,0,0,2.07-.38,4.31,4.31,0,0,0,1.87-1.44A7.38,7.38,0,0,0,424,59.15a4.84,4.84,0,0,0,.17-.85,6.32,6.32,0,0,0,0-1.25,7.33,7.33,0,0,0-.67-2.94,4.67,4.67,0,0,0-1.43-1.7,5.24,5.24,0,0,0-1.72-.83,6.17,6.17,0,0,0-1.52-.22c-.63,0-1.21,0-1.72,0a9.78,9.78,0,0,1-1.18,0s-.08-.17-.15-.52-.16-.86-.3-1.53Zm-4.94,26.81h.1a2.32,2.32,0,0,0,.88,1.94,2.86,2.86,0,0,0,1.82.7h.55v.5h-3.6Z"/><path class="cls-2" d="M442.5,52.41h-.15a2.5,2.5,0,0,0-.8-1.9,2.68,2.68,0,0,0-1.9-.75H439v-.5h3.7Zm0,23.66.2,3.14H439v-.5h.65a2.62,2.62,0,0,0,1.9-.77,2.53,2.53,0,0,0,.8-1.87Zm7-26.81V79.21h-7.18V49.26Zm12.23,0v2H449.43v-2Zm-2.24,14.13v2H449.43v-2Zm1.69,13.83,1.15,2H449.43v-2Zm3.2-7.19-1.9,9.18h-8.63l1.54-2a8.15,8.15,0,0,0,3.82-.88,8.3,8.3,0,0,0,2.87-2.49A12.12,12.12,0,0,0,464,70ZM459.52,59.1v4.39h-4.29v-.1A3.75,3.75,0,0,0,458,62.22a4,4,0,0,0,1-2.77V59.1Zm0,6.19v4.39H459v-.4a4,4,0,0,0-1-2.77,3.57,3.57,0,0,0-2.77-1.12v-.1Zm2.24-16.77v1.19l-5.24-.45a18.35,18.35,0,0,0,3.05-.27A17.78,17.78,0,0,0,461.76,48.52Zm0,2.64v5.29h-.5V56a4.83,4.83,0,0,0-1.17-3.44,4.54,4.54,0,0,0-3.37-1.3v-.1Z"/><path class="cls-2" d="M486,47.92h-.15a3.24,3.24,0,0,0-1-2.23,3.06,3.06,0,0,0-2.22-.92H482v-.5h4Zm0,27.65v3.64h-4v-.5h.65a3,3,0,0,0,2.22-.92,3.24,3.24,0,0,0,1-2.22Zm7.34-31.3V79.21h-7.49V44.27Zm-.15,3.65V44.27h4v.5h-.65a3.06,3.06,0,0,0-2.22.92,3.24,3.24,0,0,0-1,2.23Zm13.33,29.15,1.19,2.14H493.21V77.07Zm3.64-8-2.3,10.18H498.1l1.8-2.14a9.47,9.47,0,0,0,4.39-1,9.36,9.36,0,0,0,3.24-2.79A14.88,14.88,0,0,0,509.68,69Z"/><path class="cls-2" d="M518.27,75.92a1.79,1.79,0,0,0,.15,2.07,2.1,2.1,0,0,0,1.54.72h.4v.5h-10v-.5h.4a4.19,4.19,0,0,0,2.09-.62,4.47,4.47,0,0,0,1.8-2.17Zm9.38-28,.1,6L516.92,79.06h-3.7L524.9,54q.11-.3.45-1.08c.24-.51.48-1.1.75-1.74s.52-1.27.75-1.85a5.46,5.46,0,0,0,.4-1.37ZM532,69.43v1.95H519.26V69.43Zm-4.34-21.51,14.77,31H534L524.7,57.05Zm5.09,28H541a4.81,4.81,0,0,0,1.84,2.17,4.23,4.23,0,0,0,2.1.62h.4v.5H530.64v-.5h.4a2.12,2.12,0,0,0,1.55-.72A1.79,1.79,0,0,0,532.74,75.92Z"/><path class="cls-2" d="M551.41,52.51h-7.74a4.08,4.08,0,0,0-3.89-2.75h-.4v-.5h14v.5H553a2,2,0,0,0-1.43.65Q550.92,51.06,551.41,52.51Zm-8.89-2.95h7.74L557,67.33l-2.8,12.43Zm22.32-1,.89,4.6L555.8,74.72c-.37,1-.65,1.88-.85,2.65a9.37,9.37,0,0,0-.3,2.39h-.45l-1.34-5.54,11.58-25.66Zm0,0,9.78,19.72-2.35,11.48L561.54,58.15Zm16.87,1-8.19,25.16a27,27,0,0,0-.65,2.77,11.06,11.06,0,0,0-.15,2.27h-.45l-1.34-4.49,7.58-25.71Zm-4.1,2.95a2.21,2.21,0,0,0-.17-2.1,1.83,1.83,0,0,0-1.42-.65h-.4v-.5H585v.5h-.35a4.48,4.48,0,0,0-2.29.68,3.55,3.55,0,0,0-1.6,2.07Z"/><path class="cls-2" d="M202.17,106a8.54,8.54,0,0,1,1,.06c.34,0,.68.09,1,.16l.9.19a3.82,3.82,0,0,1,.63.21v3.12h-.25a2.6,2.6,0,0,0-.93-2.12,3.69,3.69,0,0,0-4.75.2,3.13,3.13,0,0,0-.95,2.26,4.06,4.06,0,0,0,.24,1.25,3.26,3.26,0,0,0,.88,1.33l5.54,5.12a3.91,3.91,0,0,1,1.12,1.68,5.74,5.74,0,0,1,.28,1.74,5.22,5.22,0,0,1-1.42,3.8,5.09,5.09,0,0,1-3.83,1.46,11.18,11.18,0,0,1-1.59-.14,7.77,7.77,0,0,1-1.77-.5,4.18,4.18,0,0,1-1.42-.91,6.89,6.89,0,0,1-.08-1.12,8.92,8.92,0,0,1,.11-1.42,8.26,8.26,0,0,1,.31-1.36h.25a4.7,4.7,0,0,0,.37,2.5,3.49,3.49,0,0,0,1.47,1.61,4,4,0,0,0,2.21.49,4.12,4.12,0,0,0,2.65-1.08,3.42,3.42,0,0,0,1.11-2.68,3.72,3.72,0,0,0-.28-1.48,3.26,3.26,0,0,0-.81-1.13l-5.4-5a4.5,4.5,0,0,1-1.18-1.73,5.36,5.36,0,0,1-.34-1.76,4.87,4.87,0,0,1,.57-2.27,4.48,4.48,0,0,1,1.67-1.79A5,5,0,0,1,202.17,106Zm3.51.29v.59h-2.13v-.59Z"/><path class="cls-2" d="M217.42,111h0a1.51,1.51,0,0,0-.48-1.07,1.61,1.61,0,0,0-1.15-.42h-.4v-.28h2.45Zm0,13.28.37,1.8h-2.45v-.28h.4a1.59,1.59,0,0,0,1.63-1.52Zm1.75-15V126h-1.8V109.18Zm7.52,0v.87h-7.58v-.87Zm-1.29,8V118h-6.29v-.85Zm1.32,8-.05.87h-7.56v-.87ZM228.3,122l-1.55,4h-4.27l1-.87a5.19,5.19,0,0,0,2.26-.41,3.65,3.65,0,0,0,1.39-1.12A9.29,9.29,0,0,0,228,122Zm-1.61-13.29v.73l-3.2-.28a11.31,11.31,0,0,0,1.86-.16A7.76,7.76,0,0,0,226.69,108.73Zm-1.29,6.91v1.6h-1.46v-.06a1,1,0,0,0,.87-.35,1.26,1.26,0,0,0,.28-.83v-.36Zm0,2.33v1.6h-.31v-.36a1.26,1.26,0,0,0-.28-.83,1,1,0,0,0-.87-.35V118Zm1.29-8v1.94h-.3v-.42a1.47,1.47,0,0,0-.38-1,1.33,1.33,0,0,0-1-.42V110Z"/><path class="cls-2" d="M234.9,108.7a7.92,7.92,0,0,0,.77.2c.35.07.73.13,1.17.18a10.37,10.37,0,0,0,1.2.07l-3.14.28Zm15.42.45V110H234.9v-.84Zm-13.71.79v0a1.42,1.42,0,0,0-1,.44,1.37,1.37,0,0,0-.38,1v.45h-.31v-1.93Zm5.14,14.29V126H239.7v-.28H240a1.62,1.62,0,0,0,1.15-.45,1.51,1.51,0,0,0,.51-1.07Zm1.77-15V126H241.7V109.26Zm-.08,15h.08a1.51,1.51,0,0,0,.51,1.07,1.62,1.62,0,0,0,1.15.45h.31V126h-2.05Zm6.88-15.53v.73l-3.15-.28a10.12,10.12,0,0,0,1.2-.07c.42,0,.81-.11,1.16-.18A7.89,7.89,0,0,0,250.32,108.7Zm0,1.24v1.93H250v-.45a1.37,1.37,0,0,0-.38-1,1.42,1.42,0,0,0-1-.44v0Z"/><path class="cls-2" d="M256.89,108.7c.17.06.43.12.78.2s.73.13,1.16.18a10.53,10.53,0,0,0,1.21.07l-3.15.28Zm15.43.45V110H256.89v-.84Zm-13.71.79v0a1.46,1.46,0,0,0-1,.44,1.41,1.41,0,0,0-.38,1v.45h-.31v-1.93Zm5.14,14.29V126H261.7v-.28H262a1.63,1.63,0,0,0,1.15-.45,1.54,1.54,0,0,0,.5-1.07Zm1.77-15V126h-1.83V109.26Zm-.09,15h.09a1.54,1.54,0,0,0,.5,1.07,1.64,1.64,0,0,0,1.16.45h.31V126h-2.06Zm6.89-15.53v.73l-3.15-.28a10.24,10.24,0,0,0,1.2-.07c.42,0,.81-.11,1.16-.18A7.89,7.89,0,0,0,272.32,108.7Zm0,1.24v1.93H272v-.45a1.41,1.41,0,0,0-.38-1,1.44,1.44,0,0,0-1-.44v0Z"/><path class="cls-2" d="M281.67,111h-.05a1.5,1.5,0,0,0-.51-1.08,1.68,1.68,0,0,0-1.18-.43h-.34v-.28h2.08Zm0,13.26L282,126h-2.45v-.28h.4a1.59,1.59,0,0,0,1.63-1.52Zm1.74-15V126h-1.79V109.18Zm-.08,1.79v-1.79h2.08v.28h-.34a1.67,1.67,0,0,0-1.16.43,1.38,1.38,0,0,0-.5,1.08ZM291,125.16l-.05.87h-7.56v-.87Zm1.57-3.14L291,126h-4.27l.95-.87a5.24,5.24,0,0,0,2.27-.41,3.65,3.65,0,0,0,1.39-1.12,8.66,8.66,0,0,0,.92-1.61Z"/><path class="cls-2" d="M301.39,111h-.05a1.51,1.51,0,0,0-.48-1.07,1.61,1.61,0,0,0-1.15-.42h-.39v-.28h2.44Zm0,13.28.37,1.8h-2.44v-.28h.39a1.59,1.59,0,0,0,1.63-1.52Zm1.75-15V126h-1.8V109.18Zm7.52,0v.87h-7.58v-.87Zm-1.29,8V118h-6.29v-.85Zm1.32,8-.05.87h-7.56v-.87Zm1.58-3.14-1.55,4h-4.27l1-.87a5.19,5.19,0,0,0,2.26-.41,3.65,3.65,0,0,0,1.39-1.12A9.29,9.29,0,0,0,312,122Zm-1.61-13.29v.73l-3.2-.28a11.31,11.31,0,0,0,1.86-.16A7.76,7.76,0,0,0,310.66,108.73Zm-1.29,6.91v1.6h-1.46v-.06a1,1,0,0,0,.87-.35,1.26,1.26,0,0,0,.28-.83v-.36Zm0,2.33v1.6h-.31v-.36a1.26,1.26,0,0,0-.28-.83,1,1,0,0,0-.87-.35V118Zm1.29-8v1.94h-.3v-.42a1.47,1.47,0,0,0-.38-1,1.33,1.33,0,0,0-1-.42V110Z"/><path class="cls-2" d="M334.82,124a1.28,1.28,0,0,0,.09,1.31,1.15,1.15,0,0,0,.9.46H336V126h-5.36v-.28h.22a2.14,2.14,0,0,0,1.21-.41,3.2,3.2,0,0,0,1.07-1.36Zm5.43-15.2.19,1.94L334,126h-1.77l6.66-14.27c.2-.45.38-.84.52-1.17s.26-.65.38-1a3.6,3.6,0,0,0,.19-.76Zm3.31,10.71v.84h-7.44v-.84Zm-3.31-10.71L348,125.86h-2.22l-6-14.58ZM345,124h2.14a3,3,0,0,0,1,1.36,2.08,2.08,0,0,0,1.18.41h.22V126h-5.76v-.28H344a1.12,1.12,0,0,0,.87-.46A1.26,1.26,0,0,0,345,124Z"/><path class="cls-2" d="M357.86,124.29V126h-2.11v-.28h.48a1.56,1.56,0,0,0,1.1-.42,1.37,1.37,0,0,0,.45-1Zm-.05-15.53,1.2,1.57,0,15.7h-1.26V112.27a29.59,29.59,0,0,0-.26-3.51Zm0,0,15.56,14.66.28,3-15.56-14.75ZM359,124.29a1.36,1.36,0,0,0,.47,1,1.53,1.53,0,0,0,1.08.42h.47V126H359v-1.74Zm13.37-13.37a1.46,1.46,0,0,0-.47-1,1.56,1.56,0,0,0-1.1-.42h-.48v-.28h2.11v1.74Zm1.24-1.74v13.65c0,.6,0,1.18.06,1.73s.1,1.17.19,1.87h-.25l-1.24-1.49V109.18Zm-.08,1.74v-1.74h2.1v.28h-.47a1.57,1.57,0,0,0-1.09.42,1.35,1.35,0,0,0-.46,1Z"/><path class="cls-2" d="M385.56,111h-.06a1.51,1.51,0,0,0-.49-1.11,1.6,1.6,0,0,0-1.14-.43h-.33v-.28h2Zm0,13.21V126h-2v-.28h.36a1.51,1.51,0,0,0,1.13-.46,1.57,1.57,0,0,0,.47-1.08Zm1.77-15V126H385.5V109.18Zm5.59,0a10.6,10.6,0,0,1,4.81,1,7.23,7.23,0,0,1,3.11,2.91,9.75,9.75,0,0,1,0,9,7.41,7.41,0,0,1-3.11,2.91,10.6,10.6,0,0,1-4.81,1h-6l-.06-.84h6a6.62,6.62,0,0,0,5.13-2,9.16,9.16,0,0,0,0-11.09,6.62,6.62,0,0,0-5.13-2H386.6v-.84Z"/><path class="cls-2" d="M441,118.17v4.63a9.38,9.38,0,0,1-1.74,1.69,9.65,9.65,0,0,1-2.68,1.39,11.59,11.59,0,0,1-3.73.55,10.81,10.81,0,0,1-5.25-1.31,9,9,0,0,1-3.55-3.57,10.7,10.7,0,0,1-1.28-5.35,10.83,10.83,0,0,1,1.28-5.37,9.06,9.06,0,0,1,3.55-3.58,10.58,10.58,0,0,1,5.25-1.28,13.94,13.94,0,0,1,2.79.26,11.44,11.44,0,0,1,2.23.69,11.89,11.89,0,0,1,1.81,1l.56,4H440a6.65,6.65,0,0,0-1.39-2.74,6.32,6.32,0,0,0-2.43-1.7,8.7,8.7,0,0,0-3.32-.59,7.34,7.34,0,0,0-4.15,1.18,7.86,7.86,0,0,0-2.81,3.28,12.49,12.49,0,0,0,0,9.84,7.83,7.83,0,0,0,2.81,3.27,7.51,7.51,0,0,0,4.15,1.19,9.29,9.29,0,0,0,2.38-.29,10,10,0,0,0,2.15-.84,8.17,8.17,0,0,0,1.79-1.31l0-5c0-.85-.48-1.27-1.43-1.27h-.45v-.28h5.51v.28h-.43C441.39,116.9,440.92,117.32,441,118.17Z"/><path class="cls-2" d="M452.11,111h-.05a1.51,1.51,0,0,0-.48-1.07,1.57,1.57,0,0,0-1.12-.42h-.4v-.28h2.39Zm0,13.28.34,1.8h-2.39v-.28h.4a1.52,1.52,0,0,0,1.12-.45,1.56,1.56,0,0,0,.48-1.07Zm1.72-15V126H452V109.18Zm-.09,15h.09a1.51,1.51,0,0,0,.47,1.07,1.54,1.54,0,0,0,1.13.45h.36l0,.28h-2.41Zm3.37-15a8.37,8.37,0,0,1,2.38.31,5.23,5.23,0,0,1,1.8.89,4,4,0,0,1,1.13,1.44,4.35,4.35,0,0,1,.4,1.91,4.42,4.42,0,0,1-.57,2.19,4.65,4.65,0,0,1-1.55,1.66,5.12,5.12,0,0,1-2.27.78,3.6,3.6,0,0,1,1.11.87,12.24,12.24,0,0,1,1.09,1.32c.48.66.92,1.23,1.3,1.7s.76.94,1.14,1.37.75.8,1.08,1.12a3.84,3.84,0,0,0,1.07.75,3.25,3.25,0,0,0,1.33.26V126h-.87a7,7,0,0,1-2.54-.39,5,5,0,0,1-1.62-1,11.93,11.93,0,0,1-1.06-1.11c-.08-.09-.25-.33-.52-.71l-.89-1.26-.87-1.22-.48-.66a7.21,7.21,0,0,0-1.29-1.3,2.43,2.43,0,0,0-1.54-.58v-.28c.59,0,1.13,0,1.6,0s1-.06,1.57-.13a3,3,0,0,0,1.48-.6,3.44,3.44,0,0,0,1.08-1.69,3.94,3.94,0,0,0,.17-.73,5,5,0,0,0,0-.87,3.83,3.83,0,0,0-.29-1.4,3,3,0,0,0-.76-1.07,3.61,3.61,0,0,0-1.17-.7,4.46,4.46,0,0,0-1.51-.28q-1.32-.06-2.31,0a6,6,0,0,1-1,0,1.23,1.23,0,0,0-.07-.24q-.07-.21-.21-.63Z"/><path class="cls-2" d="M481.36,108.78a10.45,10.45,0,0,1,3.69.64,9,9,0,0,1,3,1.81,8.26,8.26,0,0,1,2,2.79,9.17,9.17,0,0,1,0,7.17,8.26,8.26,0,0,1-2,2.79,9,9,0,0,1-3,1.81,10.93,10.93,0,0,1-7.37,0,9.14,9.14,0,0,1-3-1.81,8.42,8.42,0,0,1-2-2.79,9.17,9.17,0,0,1,0-7.17,8.42,8.42,0,0,1,2-2.79,9.14,9.14,0,0,1,3-1.81A10.35,10.35,0,0,1,481.36,108.78Zm0,16.8a7.17,7.17,0,0,0,6.43-3.82,9.34,9.34,0,0,0,0-8.33,7.2,7.2,0,0,0-6.43-3.8,7.09,7.09,0,0,0-3.74,1,7.31,7.31,0,0,0-2.67,2.79,9.34,9.34,0,0,0,0,8.33,7.3,7.3,0,0,0,2.67,2.81A7.09,7.09,0,0,0,481.36,125.58Z"/><path class="cls-2" d="M501.73,111.12l-2.14,0a3,3,0,0,0-.84-1.2,2.18,2.18,0,0,0-1.46-.48h-.23v-.28h5.79v.28h-.23a1.09,1.09,0,0,0-.81.38C501.57,110.09,501.54,110.52,501.73,111.12Zm-2.84-1.77h2.25l4.55,13.85-.26,3.17Zm11.54-.62.23,2.27-4.36,12.25c-.18.66-.33,1.22-.43,1.7a8.76,8.76,0,0,0-.18,1.42h-.26l-.53-2.5,5.25-15.14Zm0,0,5.4,13.73-.65,3.88-5.7-14.58Zm10.34.59-4.66,13.9c-.21.68-.36,1.25-.46,1.73a7.72,7.72,0,0,0-.19,1.39h-.28l-.34-2.78,4.33-14.24Zm-2.16,1.79c.2-.6.19-1,0-1.29a1.06,1.06,0,0,0-.8-.39h-.23v-.28h5.14v.28h-.19a2.23,2.23,0,0,0-1.46.48,2.57,2.57,0,0,0-.85,1.2Z"/><polygon class="cls-2" points="134.43 93.64 190.75 93.4 247.07 93.31 359.71 93.15 472.36 93.31 528.68 93.4 585 93.64 528.68 93.89 472.36 93.98 359.71 94.14 247.07 93.98 190.75 93.89 134.43 93.64"/></svg>