<svg id="Layer_1" data-name="Layer 1" xmlns="http://www.w3.org/2000/svg" viewBox="0 0 140.56 36"><defs><style>.cls-1{fill:#fff;}</style></defs><polygon class="cls-1" points="8.37 17.92 8.37 14.26 7.35 14.85 4.18 16.68 3.17 17.26 3.17 27.51 4.18 28.1 7.35 29.93 8.37 30.52 8.37 26.86 11.53 28.69 11.53 36 8.37 34.17 7.35 33.59 4.18 31.76 3.17 31.17 0 29.34 0 15.44 3.17 13.61 4.18 13.02 7.35 11.19 8.37 10.61 11.53 8.78 11.53 16.09 8.37 17.92"/><polygon class="cls-1" points="24.08 15.44 24.08 29.34 20.92 31.17 20.92 17.26 19.9 16.68 19.9 31.76 16.74 33.58 16.74 14.85 15.72 14.26 15.72 34.17 12.55 36 12.55 8.78 15.72 10.61 16.74 11.2 19.9 13.02 20.92 13.61 24.08 15.44"/><polygon class="cls-1" points="24.09 6.95 24.09 14.26 20.92 12.44 19.9 11.85 16.74 10.02 15.72 9.43 12.55 7.6 12.55 7.6 12.04 7.31 11.54 7.6 11.53 7.6 8.37 9.43 7.35 10.02 4.18 11.85 3.17 12.44 0 14.26 0 6.95 3.17 5.12 3.17 8.78 4.18 8.19 7.35 6.36 8.37 5.77 8.37 2.12 11.54 0.29 12.04 0 12.55 0.29 15.72 2.12 15.72 5.77 16.74 6.36 19.9 8.19 20.92 8.78 20.92 5.12 24.09 6.95"/><path class="cls-1" d="M44,17.21l.11,2.12a3.08,3.08,0,0,1-.72.82,3.62,3.62,0,0,1-1.14.6,5.05,5.05,0,0,1-1.6.23A6.12,6.12,0,0,1,38,20.43a4,4,0,0,1-1.75-1.53,4.52,4.52,0,0,1-.61-2.41,4.59,4.59,0,0,1,.6-2.39A4,4,0,0,1,38,12.56,6.18,6.18,0,0,1,40.64,12a6.84,6.84,0,0,1,1.77.2,5.29,5.29,0,0,1,1.29.48l0,2.1h-.11a3,3,0,0,0-1.08-1.74,3,3,0,0,0-1.76-.52,2.92,2.92,0,0,0-1.69.48A3,3,0,0,0,38,14.37a5.1,5.1,0,0,0-.39,2.09A5.61,5.61,0,0,0,38,18.57a3,3,0,0,0,1,1.37,2.69,2.69,0,0,0,1.58.52,3.65,3.65,0,0,0,1.6-.31,2.31,2.31,0,0,0,1.06-1,6,6,0,0,0,.59-1.92Z" transform="translate(-6.17 -4.23)"/><path class="cls-1" d="M46.52,20a.47.47,0,0,0,0,.52.55.55,0,0,0,.38.17H47v.13H44.58v-.13h.1a1.06,1.06,0,0,0,.51-.15,1.13,1.13,0,0,0,.45-.54Zm2.32-6.9,0,1.48-2.67,6.2h-.91l2.88-6.19c0-.05.05-.14.11-.27s.12-.27.19-.43.12-.31.18-.45a1.45,1.45,0,0,0,.1-.34Zm1.07,5.3v.48H46.77v-.48Zm-1.07-5.3,3.64,7.66H50.4l-2.29-5.41ZM50.09,20h2a1.2,1.2,0,0,0,.46.54,1.06,1.06,0,0,0,.52.15h.1v.13H49.58v-.13h.09a.57.57,0,0,0,.39-.17A.47.47,0,0,0,50.09,20Z" transform="translate(-6.17 -4.23)"/><path class="cls-1" d="M56.16,13.26l.6,0,.69.05c.23,0,.44.05.61.08a1.39,1.39,0,0,1,.37.08L58.27,15h-.11a1.12,1.12,0,0,0-.4-.9,1.71,1.71,0,0,0-1.13-.33,1.62,1.62,0,0,0-1,.25.86.86,0,0,0-.39.69.61.61,0,0,0,.08.4,1.1,1.1,0,0,0,.29.32c.13.09.27.18.43.27L58,16.89a1.87,1.87,0,0,1,.78.72A2,2,0,0,1,59,18.74a2.16,2.16,0,0,1-1.4,2,3.78,3.78,0,0,1-1.49.27,5.21,5.21,0,0,1-1-.09,3.61,3.61,0,0,1-.78-.23,1.62,1.62,0,0,1-.5-.34,1.51,1.51,0,0,1-.08-.59,2.76,2.76,0,0,1,.11-.7,2.33,2.33,0,0,1,.24-.59h.1a2,2,0,0,0,.2,1,1.83,1.83,0,0,0,.71.75,2.21,2.21,0,0,0,1.12.27,1.55,1.55,0,0,0,1.08-.33,1.05,1.05,0,0,0,.35-.79.92.92,0,0,0-.21-.58,2.25,2.25,0,0,0-.71-.52L55,17.14a2,2,0,0,1-.89-.85,1.91,1.91,0,0,1-.2-1.16,2.07,2.07,0,0,1,.35-1,1.86,1.86,0,0,1,.77-.64A2.68,2.68,0,0,1,56.16,13.26Zm2.27.11,0,.22H57.1v-.22Z" transform="translate(-6.17 -4.23)"/><path class="cls-1" d="M59.79,13.22l.33.08.48.08.48,0-1.29.12Zm7.13.19v.49H59.79v-.49Zm-5.87.45v0a1.15,1.15,0,0,0-.83.32,1.16,1.16,0,0,0-.29.84v.11h-.14V13.86ZM62.49,20v.78h-.83v-.13h.14a.62.62,0,0,0,.46-.19.61.61,0,0,0,.2-.46Zm1.76-6.57v7.35H62.46V13.46Zm0,6.57h0a.58.58,0,0,0,.2.46.65.65,0,0,0,.48.19h.13v.13h-.85Zm2.71-6.81v.31l-1.29-.12.5,0,.49-.08A.87.87,0,0,0,66.92,13.22Zm0,.64v1.31H66.8v-.11a1.16,1.16,0,0,0-.29-.84,1.18,1.18,0,0,0-.83-.32v0Z" transform="translate(-6.17 -4.23)"/><path class="cls-1" d="M68.68,14.2h0a.62.62,0,0,0-.2-.47.7.7,0,0,0-.47-.19h-.15v-.12h.86Zm0,5.83,0,.78h-.91v-.13H68a.66.66,0,0,0,.47-.19.6.6,0,0,0,.19-.46Zm1.73-6.61v7.39H68.64V13.42Zm0,.78v-.78h.85v.12h-.15a.7.7,0,0,0-.47.19.67.67,0,0,0-.21.47Zm2.89,6.11.3.5H70.39v-.5Zm.82-1.77-.48,2.27H71.49l.38-.5a1.93,1.93,0,0,0,1.65-.83,2.93,2.93,0,0,0,.45-.94Z" transform="translate(-6.17 -4.23)"/><path class="cls-1" d="M75.57,14.2h0a.62.62,0,0,0-.2-.47.68.68,0,0,0-.47-.19h-.16v-.12h.91Zm0,5.83.05.78h-.91v-.13h.16a.64.64,0,0,0,.47-.19.61.61,0,0,0,.2-.46Zm1.74-6.61v7.39H75.54V13.42Zm3,0v.49h-3v-.49Zm-.55,3.48v.5H77.28v-.5Zm.42,3.41.28.5H77.28v-.5ZM81,18.54l-.47,2.27H78.38l.38-.5a2,2,0,0,0,.94-.21,2,2,0,0,0,.71-.62,2.94,2.94,0,0,0,.46-.94Zm-1.21-2.69v1.08H78.71v0a.87.87,0,0,0,.68-.28,1,1,0,0,0,.26-.69v-.08Zm0,1.52v1.09h-.12v-.1a1,1,0,0,0-.26-.69.87.87,0,0,0-.68-.27v0Zm.55-4.13v.29L79,13.42a6,6,0,0,0,1.29-.18Zm0,.65v1.3H80.2v-.11a1.22,1.22,0,0,0-.29-.85,1.15,1.15,0,0,0-.83-.32v0Z" transform="translate(-6.17 -4.23)"/><path class="cls-1" d="M82.59,20v.79H81.38v-.13h.16a.83.83,0,0,0,.54-.17.71.71,0,0,0,.27-.49Zm.72-6.76h.1l.42,1.18-.77,6.37h-.8Zm-.18,6.93a.6.6,0,0,0,.08.32.35.35,0,0,0,.34.17h.17v.13H83l.08-.62Zm.28-6.93,3.65,5.45L86.39,21l-3.27-5Zm6.75,0,.1,1.27L87,19.79a5.76,5.76,0,0,0-.33.68,1.94,1.94,0,0,0-.12.57h-.11l-.48-1Zm-.78,6.93h.08l.07.62h-.74v-.13H89a.37.37,0,0,0,.36-.17A.49.49,0,0,0,89.38,20.19Zm.89-6.93,1.08,7.55H89.47l-.6-4.5,1.29-3ZM91,20h.23a.77.77,0,0,0,.29.49.79.79,0,0,0,.51.17h.17v.13H91Z" transform="translate(-6.17 -4.23)"/><path class="cls-1" d="M97.08,13.26a5.54,5.54,0,0,1,1.78.27,3.88,3.88,0,0,1,1.38.77,3.34,3.34,0,0,1,.89,1.21,4,4,0,0,1,.32,1.62,3.86,3.86,0,0,1-.32,1.59,3.34,3.34,0,0,1-.89,1.21,3.88,3.88,0,0,1-1.38.77,6,6,0,0,1-3.56,0,3.88,3.88,0,0,1-1.38-.77A3.32,3.32,0,0,1,93,18.72a3.86,3.86,0,0,1-.31-1.59A4,4,0,0,1,93,15.51a3.32,3.32,0,0,1,.88-1.21,3.88,3.88,0,0,1,1.38-.77A5.59,5.59,0,0,1,97.08,13.26Zm0,7.23a2.14,2.14,0,0,0,1.31-.42,2.59,2.59,0,0,0,.86-1.16,4.77,4.77,0,0,0,.3-1.78,4.94,4.94,0,0,0-.3-1.81,2.68,2.68,0,0,0-.86-1.17,2.19,2.19,0,0,0-1.31-.41,2.14,2.14,0,0,0-1.3.41,2.76,2.76,0,0,0-.86,1.17,4.93,4.93,0,0,0-.31,1.81,4.76,4.76,0,0,0,.31,1.78,2.66,2.66,0,0,0,.86,1.16A2.09,2.09,0,0,0,97.08,20.49Z" transform="translate(-6.17 -4.23)"/><path class="cls-1" d="M103.3,14.18h0a.7.7,0,0,0-.2-.46.64.64,0,0,0-.45-.18h-.16v-.12h.88Zm0,5.85,0,.78h-.88v-.13h.14a.63.63,0,0,0,.47-.19.7.7,0,0,0,.2-.46Zm1.75-6.61v7.39h-1.78V13.42Zm1.2,0a4.62,4.62,0,0,1,1,.11,2.85,2.85,0,0,1,.86.33,1.7,1.7,0,0,1,.61.61,1.81,1.81,0,0,1,.23,1,2.21,2.21,0,0,1-.18.86,1.93,1.93,0,0,1-.55.73,2,2,0,0,1-1,.4,1.73,1.73,0,0,1,.68.43,3.13,3.13,0,0,1,.5.61l.19.31a4.26,4.26,0,0,0,.31.49l.4.58a4.33,4.33,0,0,0,.43.51,1.09,1.09,0,0,0,.38.25,1.31,1.31,0,0,0,.46.07v.13h-1a5.88,5.88,0,0,1-1.12-.1,2.09,2.09,0,0,1-.8-.36,3,3,0,0,1-.62-.72,3.33,3.33,0,0,1-.24-.39l-.24-.46a3.81,3.81,0,0,1-.22-.46c-.06-.15-.1-.27-.13-.37a1.51,1.51,0,0,0-.36-.57.6.6,0,0,0-.38-.18v-.11h.31a1.52,1.52,0,0,0,.51-.09,1,1,0,0,0,.46-.36,1.77,1.77,0,0,0,.31-.78.87.87,0,0,0,0-.21,1,1,0,0,0,0-.31,1.73,1.73,0,0,0-.17-.72,1.05,1.05,0,0,0-.35-.42,1.38,1.38,0,0,0-.42-.21,1.89,1.89,0,0,0-.38-.05H105s0,0,0-.13,0-.21-.07-.38ZM105,20h0a.55.55,0,0,0,.22.48.67.67,0,0,0,.45.17h.13v.13H105Z" transform="translate(-6.17 -4.23)"/><path class="cls-1" d="M111.59,14.2h0a.62.62,0,0,0-.2-.47.66.66,0,0,0-.46-.19h-.16v-.12h.91Zm0,5.83,0,.78h-.91v-.13h.16a.62.62,0,0,0,.46-.19.61.61,0,0,0,.2-.46Zm1.73-6.61v7.39h-1.77V13.42Zm3,0v.49h-3v-.49Zm-.55,3.48v.5H113.3v-.5Zm.41,3.41.29.5H113.3v-.5Zm.79-1.77-.47,2.27h-2.13l.39-.5a2.06,2.06,0,0,0,.94-.21,2,2,0,0,0,.7-.62,2.94,2.94,0,0,0,.46-.94Zm-1.2-2.69v1.08h-1.06v0a.9.9,0,0,0,.68-.28,1,1,0,0,0,.25-.69v-.08Zm0,1.52v1.09h-.13v-.1a1,1,0,0,0-.25-.69.9.9,0,0,0-.68-.27v0Zm.55-4.13v.29l-1.29-.11a4.11,4.11,0,0,0,.75-.07A4.36,4.36,0,0,0,116.34,13.24Zm0,.65v1.3h-.12v-.11a1.22,1.22,0,0,0-.29-.85,1.16,1.16,0,0,0-.83-.32v0Z" transform="translate(-6.17 -4.23)"/><path class="cls-1" d="M122.32,13.09h0a.8.8,0,0,0-.78-.78h-.16v-.12h1Zm0,6.82v.9h-1v-.13h.16a.73.73,0,0,0,.54-.22.75.75,0,0,0,.24-.55Zm1.81-7.72v8.62h-1.85V12.19Zm0,.9v-.9h1v.12h-.16a.75.75,0,0,0-.55.23.82.82,0,0,0-.24.55Zm3.29,7.19.3.53h-3.59v-.53Zm.9-2-.57,2.51H125.3l.44-.53a2.22,2.22,0,0,0,1.89-.93,4,4,0,0,0,.53-1.05Z" transform="translate(-6.17 -4.23)"/><path class="cls-1" d="M130.27,20c-.09.23-.08.4,0,.52a.53.53,0,0,0,.38.17h.1v.13h-2.46v-.13h.1a1.06,1.06,0,0,0,.51-.15,1.13,1.13,0,0,0,.45-.54Zm2.32-6.9,0,1.48-2.67,6.2H129l2.88-6.19c0-.05.05-.14.11-.27s.12-.27.18-.43l.19-.45a1.45,1.45,0,0,0,.1-.34Zm1.07,5.3v.48h-3.14v-.48Zm-1.07-5.3,3.64,7.66h-2.08l-2.29-5.41Zm1.25,6.9h2a1.2,1.2,0,0,0,.46.54,1.06,1.06,0,0,0,.52.15h.09v.13h-3.62v-.13h.1a.53.53,0,0,0,.38-.17C133.92,20.39,133.93,20.22,133.84,20Z" transform="translate(-6.17 -4.23)"/><path class="cls-1" d="M138.45,14.22h-1.91a1,1,0,0,0-.4-.51,1,1,0,0,0-.56-.17h-.1v-.12h3.46v.12h-.11a.5.5,0,0,0-.35.16C138.37,13.81,138.36,14,138.45,14.22Zm-2.2-.72h1.91l1.66,4.38-.69,3.06Zm5.51-.25.22,1.13-2.45,5.32a6.83,6.83,0,0,0-.21.65,2.32,2.32,0,0,0-.07.59h-.12l-.33-1.36,2.86-6.33Zm0,0,2.41,4.86-.58,2.83-2.65-5.33Zm4.16.25-2,6.2a5,5,0,0,0-.16.68,2.69,2.69,0,0,0,0,.56h-.11l-.33-1.11,1.87-6.33Zm-1,.72a.55.55,0,0,0,0-.52.46.46,0,0,0-.35-.16h-.09v-.12h2.31v.12h-.09a1.1,1.1,0,0,0-.56.17.9.9,0,0,0-.4.51Z" transform="translate(-6.17 -4.23)"/><path class="cls-1" d="M38,27.41h.24l.25,0,.22.05a.5.5,0,0,1,.16,0v.77h-.06a.67.67,0,0,0-.23-.53.9.9,0,0,0-.56-.19.81.81,0,0,0-.61.24.77.77,0,0,0-.24.56,1,1,0,0,0,.06.31.77.77,0,0,0,.22.33l1.36,1.26a1,1,0,0,1,.28.41,1.38,1.38,0,0,1,.07.43,1.3,1.3,0,0,1-.35.94,1.26,1.26,0,0,1-.95.36l-.39,0a2.13,2.13,0,0,1-.43-.13.88.88,0,0,1-.35-.22,1.09,1.09,0,0,1,0-.28,2.16,2.16,0,0,1,0-.35,2.66,2.66,0,0,1,.08-.33h.06a1.19,1.19,0,0,0,.09.61.85.85,0,0,0,.37.4,1,1,0,0,0,.54.12,1,1,0,0,0,.65-.26.85.85,0,0,0,.28-.67,1,1,0,0,0-.07-.36,1,1,0,0,0-.2-.28l-1.33-1.23a1.06,1.06,0,0,1-.29-.43,1.18,1.18,0,0,1-.09-.43,1.22,1.22,0,0,1,.14-.56,1.08,1.08,0,0,1,.41-.44A1.22,1.22,0,0,1,38,27.41Zm.87.07v.14h-.53v-.14Z" transform="translate(-6.17 -4.23)"/><path class="cls-1" d="M41.71,28.63h0a.34.34,0,0,0-.12-.26.39.39,0,0,0-.28-.1h-.1V28.2h.6Zm0,3.28.09.44h-.6v-.07h.1a.36.36,0,0,0,.28-.11.34.34,0,0,0,.12-.26Zm.43-3.71v4.15H41.7V28.2Zm1.86,0v.21H42.13V28.2Zm-.32,2v.21H42.13v-.21Zm.33,2,0,.21H42.13v-.21Zm.38-.78-.38,1H43l.24-.21a1.39,1.39,0,0,0,.55-.1,1,1,0,0,0,.35-.28,3,3,0,0,0,.23-.4ZM44,28.09v.18l-.79-.07a3.91,3.91,0,0,0,.46,0Zm-.32,1.7v.39h-.36a.27.27,0,0,0,.22-.09.32.32,0,0,0,.07-.2v-.09Zm0,.57v.4h-.07v-.09a.38.38,0,0,0-.07-.21.29.29,0,0,0-.22-.08v0Zm.32-2v.48h-.08v-.11a.38.38,0,0,0-.09-.25.36.36,0,0,0-.25-.1v0Z" transform="translate(-6.17 -4.23)"/><path class="cls-1" d="M46,28.08l.19.05.29,0,.3,0-.78.07Zm3.81.11v.21H46v-.21Zm-3.38.19v0a.33.33,0,0,0-.35.35v.11H46v-.48Zm1.26,3.53v.44h-.5v-.07h.08a.36.36,0,0,0,.28-.11.38.38,0,0,0,.13-.26Zm.44-3.69v4.13H47.7V28.22Zm0,3.69h0a.37.37,0,0,0,.12.26.39.39,0,0,0,.29.11h.07v.07h-.5Zm1.7-3.83v.18l-.78-.07.29,0,.29,0Zm0,.3v.48h-.08v-.11a.37.37,0,0,0-.09-.25.38.38,0,0,0-.26-.1v0Z" transform="translate(-6.17 -4.23)"/><path class="cls-1" d="M51.45,28.08l.19.05.29,0,.29,0-.77.07Zm3.8.11v.21h-3.8v-.21Zm-3.38.19v0a.34.34,0,0,0-.25.1.33.33,0,0,0-.1.25v.11h-.07v-.48Zm1.27,3.53v.44h-.51v-.07h.08a.38.38,0,0,0,.29-.11.34.34,0,0,0,.12-.26Zm.43-3.69v4.13h-.45V28.22Zm0,3.69h0a.38.38,0,0,0,.13.26.37.37,0,0,0,.28.11h.08v.07h-.51Zm1.7-3.83v.18l-.78-.07.3,0,.29,0Zm0,.3v.48h-.08v-.11a.37.37,0,0,0-.09-.25.36.36,0,0,0-.25-.1v0Z" transform="translate(-6.17 -4.23)"/><path class="cls-1" d="M57.56,28.64h0a.34.34,0,0,0-.12-.27.43.43,0,0,0-.29-.1H57V28.2h.52Zm0,3.27.09.44H57v-.07h.1a.38.38,0,0,0,.29-.11.36.36,0,0,0,.11-.26ZM58,28.2v4.15h-.45V28.2Zm0,.44V28.2h.51v.07H58.4a.43.43,0,0,0-.29.1.34.34,0,0,0-.12.27Zm1.88,3.5v.21H58v-.21Zm.39-.78-.38,1H58.8l.24-.21a1.44,1.44,0,0,0,.56-.1.93.93,0,0,0,.34-.28,2.2,2.2,0,0,0,.23-.4Z" transform="translate(-6.17 -4.23)"/><path class="cls-1" d="M62.42,28.63h0a.42.42,0,0,0-.12-.26.39.39,0,0,0-.28-.1h-.1V28.2h.6Zm0,3.28.09.44h-.6v-.07H62a.36.36,0,0,0,.28-.11.42.42,0,0,0,.12-.26Zm.43-3.71v4.15h-.44V28.2Zm1.86,0v.21H62.84V28.2Zm-.32,2v.21H62.84v-.21Zm.32,2v.21H62.84v-.21Zm.39-.78-.38,1h-1l.23-.21a1.44,1.44,0,0,0,.56-.1.86.86,0,0,0,.34-.28,1.74,1.74,0,0,0,.23-.4Zm-.39-3.27v.18l-.79-.07a3.75,3.75,0,0,0,.45,0Zm-.32,1.7v.39H64a.23.23,0,0,0,.21-.09.27.27,0,0,0,.07-.2v-.09Zm0,.57v.4h-.08v-.09a.31.31,0,0,0-.07-.21.26.26,0,0,0-.21-.08v0Zm.32-2v.48h-.08v-.11a.38.38,0,0,0-.09-.25.38.38,0,0,0-.26-.1v0Z" transform="translate(-6.17 -4.23)"/><path class="cls-1" d="M70.67,31.85a.28.28,0,0,0,0,.32.25.25,0,0,0,.22.11h0v.07H69.64v-.07h.06a.51.51,0,0,0,.29-.1.84.84,0,0,0,.27-.33ZM72,28.1l0,.48-1.59,3.75H70l1.64-3.52.13-.28q0-.13.09-.24a.59.59,0,0,0,0-.19Zm.82,2.64V31H71v-.21ZM72,28.1l1.91,4.21h-.55l-1.48-3.59Zm1.17,3.75h.53a.69.69,0,0,0,.26.33.48.48,0,0,0,.29.1h0v.07H72.88v-.07h.06a.25.25,0,0,0,.21-.11A.3.3,0,0,0,73.17,31.85Z" transform="translate(-6.17 -4.23)"/><path class="cls-1" d="M76.35,31.92v.43h-.52v-.07h.11a.36.36,0,0,0,.27-.1.32.32,0,0,0,.12-.26Zm0-3.83.3.39v3.87h-.31V29a7.92,7.92,0,0,0-.07-.87Zm0,0,3.84,3.62.07.74L76.4,28.81Zm.31,3.83a.31.31,0,0,0,.11.26.39.39,0,0,0,.27.1h.12v.07h-.52v-.43Zm3.29-3.29a.35.35,0,0,0-.11-.26.39.39,0,0,0-.27-.1h-.12V28.2H80v.43Zm.31-.43v3.36c0,.15,0,.29,0,.43s0,.29,0,.46h-.06l-.31-.37V28.2Zm0,.43V28.2h.52v.07h-.12a.39.39,0,0,0-.27.1.35.35,0,0,0-.11.26Z" transform="translate(-6.17 -4.23)"/><path class="cls-1" d="M83.18,28.65h0a.36.36,0,0,0-.12-.28.39.39,0,0,0-.28-.1h-.08V28.2h.5Zm0,3.25v.45h-.5v-.07h.09a.37.37,0,0,0,.28-.11.4.4,0,0,0,.11-.27Zm.43-3.7v4.15h-.45V28.2Zm1.38,0a2.61,2.61,0,0,1,1.19.25,1.76,1.76,0,0,1,.77.71,2.42,2.42,0,0,1,0,2.22,1.85,1.85,0,0,1-.77.72,2.61,2.61,0,0,1-1.19.25H83.52l0-.2H85a1.63,1.63,0,0,0,1.27-.51,2.26,2.26,0,0,0,0-2.73A1.63,1.63,0,0,0,85,28.4H83.43v-.2Z" transform="translate(-6.17 -4.23)"/><path class="cls-1" d="M96.84,30.41v1.15a2.86,2.86,0,0,1-.43.41,2.28,2.28,0,0,1-.66.34,2.82,2.82,0,0,1-.92.14,2.64,2.64,0,0,1-1.3-.32,2.3,2.3,0,0,1-.87-.88,2.9,2.9,0,0,1,0-2.65,2.3,2.3,0,0,1,.87-.88,2.63,2.63,0,0,1,1.3-.31,3.69,3.69,0,0,1,.69.06,3,3,0,0,1,.55.17,2.63,2.63,0,0,1,.44.24l.14,1h-.06a1.53,1.53,0,0,0-.94-1.09,2.14,2.14,0,0,0-.82-.15,1.81,1.81,0,0,0-1,.3,2,2,0,0,0-.69.81,2.7,2.7,0,0,0-.25,1.21,2.73,2.73,0,0,0,.25,1.21,2,2,0,0,0,.69.81,1.88,1.88,0,0,0,1,.29,2.2,2.2,0,0,0,.58-.07,2.25,2.25,0,0,0,.53-.21,2.14,2.14,0,0,0,.45-.32V30.41c0-.2-.12-.31-.36-.31h-.11V30h1.36v.07h-.11C96.94,30.1,96.83,30.21,96.84,30.41Z" transform="translate(-6.17 -4.23)"/><path class="cls-1" d="M99.59,28.63h0a.36.36,0,0,0-.11-.26.4.4,0,0,0-.28-.1h-.1V28.2h.59Zm0,3.28.08.44h-.59v-.07h.1a.37.37,0,0,0,.28-.11.36.36,0,0,0,.11-.26ZM100,28.2v4.15h-.44V28.2Zm0,3.71h0a.37.37,0,0,0,.12.26.36.36,0,0,0,.28.11h.09v.07h-.59Zm.83-3.71a2.17,2.17,0,0,1,.59.07,1.4,1.4,0,0,1,.44.22,1,1,0,0,1,.28.36,1,1,0,0,1,.1.47,1.14,1.14,0,0,1-.14.54,1.17,1.17,0,0,1-.39.41,1.24,1.24,0,0,1-.55.19.81.81,0,0,1,.27.22l.27.32.32.42c.09.12.19.23.28.34l.27.27a1.15,1.15,0,0,0,.26.19.81.81,0,0,0,.33.06v.07h-.22a1.81,1.81,0,0,1-.62-.09,1.37,1.37,0,0,1-.4-.24,3.2,3.2,0,0,1-.26-.28,1.31,1.31,0,0,1-.13-.17l-.22-.31-.22-.3-.11-.17a2.42,2.42,0,0,0-.32-.32.64.64,0,0,0-.38-.14v-.07h.39a2.56,2.56,0,0,0,.39,0,.82.82,0,0,0,.36-.15.73.73,0,0,0,.27-.42.8.8,0,0,0,0-.18,1.41,1.41,0,0,0,0-.21,1.28,1.28,0,0,0-.07-.35.83.83,0,0,0-.19-.26.92.92,0,0,0-.29-.17,1.06,1.06,0,0,0-.37-.07h-.57a.73.73,0,0,1-.24,0,.32.32,0,0,1,0-.06s0-.08,0-.15Z" transform="translate(-6.17 -4.23)"/><path class="cls-1" d="M106.8,28.1a2.49,2.49,0,0,1,.91.16,2.16,2.16,0,0,1,.75.44,2.26,2.26,0,0,1,.5.69,2.27,2.27,0,0,1,0,1.77,2.26,2.26,0,0,1-.5.69,2.16,2.16,0,0,1-.75.44,2.67,2.67,0,0,1-1.82,0,2.2,2.2,0,0,1-.74-.44,2.1,2.1,0,0,1-.5-.69,2.27,2.27,0,0,1,0-1.77,2.1,2.1,0,0,1,.5-.69,2.2,2.2,0,0,1,.74-.44A2.49,2.49,0,0,1,106.8,28.1Zm0,4.14a1.75,1.75,0,0,0,.93-.25,1.69,1.69,0,0,0,.66-.69,2.15,2.15,0,0,0,.24-1,2.08,2.08,0,0,0-.24-1,1.69,1.69,0,0,0-.66-.69,1.75,1.75,0,0,0-.93-.25,1.72,1.72,0,0,0-.92.25,1.69,1.69,0,0,0-.66.69,2.08,2.08,0,0,0-.24,1,2.15,2.15,0,0,0,.24,1,1.69,1.69,0,0,0,.66.69A1.72,1.72,0,0,0,106.8,32.24Z" transform="translate(-6.17 -4.23)"/><path class="cls-1" d="M111.82,28.67h-.52a.81.81,0,0,0-.21-.3.52.52,0,0,0-.36-.11h-.06V28.2h1.43v.07H112a.28.28,0,0,0-.2.09C111.78,28.42,111.78,28.53,111.82,28.67Zm-.7-.43h.56l1.12,3.41-.06.79Zm2.85-.15.06.56-1.08,3c0,.16-.08.3-.1.42a1.34,1.34,0,0,0,0,.35h-.06l-.13-.62,1.29-3.73Zm0,0,1.33,3.39-.16,1-1.4-3.6Zm2.55.15-1.15,3.43a3.81,3.81,0,0,0-.11.42,2.27,2.27,0,0,0-.05.35h-.07l-.08-.69,1.07-3.51Zm-.53.44a.34.34,0,0,0,0-.32.28.28,0,0,0-.2-.09h-.06V28.2H117v.07h0a.55.55,0,0,0-.36.11.81.81,0,0,0-.21.3Z" transform="translate(-6.17 -4.23)"/><path class="cls-1" d="M35.62,24.37c9.26-.21,18.52-.31,27.78-.39l27.77-.11L119,24l13.89.14,13.89.25-13.89.24L119,24.75l-27.78.12L63.4,24.75C54.14,24.67,44.88,24.57,35.62,24.37Z" transform="translate(-6.17 -4.23)"/></svg>