<svg version="1.1" id="Layer_1" xmlns="http://www.w3.org/2000/svg" xmlns:xlink="http://www.w3.org/1999/xlink" x="0px" y="0px"
	 width="100%" viewBox="0 0 601 170" enable-background="new 0 0 601 170" xml:space="preserve">
<path fill="#FFFFFF" opacity="1.000000" stroke="none" 
	d="
M389.000000,171.000000 
	C259.333344,171.000000 130.166672,171.000000 1.000000,171.000000 
	C1.000000,114.333336 1.000000,57.666668 1.000000,1.000000 
	C201.333328,1.000000 401.666656,1.000000 602.000000,1.000000 
	C602.000000,57.666668 602.000000,114.333336 602.000000,171.000000 
	C531.166687,171.000000 460.333344,171.000000 389.000000,171.000000 
M71.589363,149.926239 
	C76.572174,152.677612 81.659721,155.259583 86.495445,158.248886 
	C89.073547,159.842621 90.964622,159.693863 93.556870,158.203842 
	C111.058189,148.144241 128.506744,137.967834 146.351227,128.546783 
	C151.187347,125.993523 152.141312,123.295433 152.107773,118.400261 
	C151.895432,87.417809 152.000000,56.433189 152.000000,25.449284 
	C152.000000,23.697683 152.000000,21.946083 152.000000,20.389626 
	C110.231461,20.389626 69.188896,20.389626 28.152752,20.389626 
	C28.152752,55.736149 28.152752,90.692841 28.152752,125.614708 
	C42.516678,133.618958 56.749428,141.550095 71.589363,149.926239 
M206.465881,54.024239 
	C205.386398,57.652901 204.306915,61.281563 203.227432,64.910225 
	C200.075500,58.067375 197.904480,51.298328 196.063492,44.440685 
	C195.336288,41.731899 194.068527,40.934116 191.326111,40.888889 
	C188.608383,40.844070 187.634354,42.005859 186.983536,44.303513 
	C184.948547,51.487892 182.799164,58.639870 180.298401,67.151169 
	C177.404678,57.600769 174.885605,49.286835 172.446930,41.238289 
	C169.812561,40.912708 167.484955,40.625038 164.614426,40.270275 
	C168.652176,52.421307 172.562332,64.188370 176.439728,75.856842 
	C179.018890,75.856842 181.321747,75.856842 183.582672,75.856842 
	C186.066696,67.830986 188.507736,59.944035 191.223190,51.170399 
	C192.075027,53.300034 192.632004,54.423061 192.979813,55.607506 
	C194.693909,61.444679 196.167480,67.362862 198.172592,73.096245 
	C198.623352,74.385147 200.833893,75.746078 202.286453,75.805801 
	C203.769104,75.866760 206.247620,74.706917 206.689087,73.497253 
	C210.677994,62.566917 214.315140,51.508217 218.233444,39.962521 
	C215.290939,40.468525 212.814560,40.894371 210.266708,41.332504 
	C209.164078,45.340588 208.062103,49.346214 206.465881,54.024239 
M381.000000,64.539673 
	C381.000000,61.156761 381.000000,57.773849 381.000000,53.209110 
	C386.319977,60.119244 391.303864,65.703178 395.196411,71.965454 
	C397.740784,76.058800 400.653412,76.480713 404.675354,75.748085 
	C404.675354,64.173409 404.675354,52.622635 404.675354,41.337383 
	C402.262238,41.337383 400.191956,41.337383 397.769257,41.337383 
	C397.769257,48.390827 397.769257,55.111267 397.769257,62.562588 
	C396.445221,61.584263 395.529053,61.176689 395.004425,60.475948 
	C391.615204,55.949024 388.326996,51.346699 384.974823,46.791798 
	C382.315674,43.178574 379.930328,38.943542 374.276062,41.503899 
	C374.276062,52.983284 374.276062,64.398445 374.276062,75.720322 
	C376.626953,75.720322 378.696594,75.720322 381.000000,75.720322 
	C381.000000,72.136192 381.000000,68.826401 381.000000,64.539673 
M568.984680,66.179039 
	C573.125427,55.848309 569.582886,46.216526 559.742126,41.984146 
	C549.433411,37.550499 539.832153,41.596691 534.944092,50.668076 
	C530.169006,59.529686 533.546509,69.636147 542.776672,74.155022 
	C552.016724,78.678726 563.740784,76.129028 568.984680,66.179039 
M349.406342,76.000000 
	C356.664001,76.882690 361.370911,72.488541 364.720093,67.258804 
	C368.169617,61.872505 368.350616,55.570972 364.923798,49.733932 
	C360.243988,41.762615 350.310547,38.163960 341.084656,41.450550 
	C334.462128,43.809715 328.499603,52.013664 329.064117,58.220959 
	C329.954193,68.008324 336.392975,76.726852 349.406342,76.000000 
M509.999176,46.966621 
	C507.958832,43.573231 505.068085,41.207428 501.061920,41.061954 
	C494.809967,40.834923 488.543671,41.001846 482.216522,41.001846 
	C482.216522,52.888748 482.216522,64.279083 482.216522,75.795410 
	C484.503876,75.795410 486.570740,75.795410 489.016907,75.795410 
	C489.016907,72.520950 489.016907,69.441666 489.016907,66.001717 
	C490.015259,66.001717 490.638062,66.001724 491.260864,66.001724 
	C493.745239,66.001724 496.229584,66.001717 498.581207,66.001717 
	C505.346130,77.491203 502.332581,76.742706 512.006836,75.264893 
	C509.397034,71.601753 506.821594,67.986809 504.245453,64.370903 
	C511.019867,60.150246 512.485962,56.058613 509.999176,46.966621 
M233.628662,47.000000 
	C238.392059,47.000000 243.155441,47.000000 248.085617,47.000000 
	C247.959076,44.641193 247.865692,42.900620 247.779648,41.296677 
	C238.977142,41.296677 230.584045,41.296677 222.273773,41.296677 
	C222.273773,52.983398 222.273773,64.371468 222.273773,75.753540 
	C230.953674,75.753540 239.357849,75.753540 247.758286,75.753540 
	C247.758286,73.767288 247.758286,72.031174 247.758286,69.921829 
	C241.444153,69.921829 235.360626,69.921829 229.214478,69.921829 
	C229.214478,66.781380 229.214478,64.022636 229.214478,62.000000 
	C232.853271,62.000000 236.287445,62.001194 239.721619,61.999744 
	C246.283936,61.996975 246.283936,61.996349 245.626907,54.851009 
	C240.141342,54.851009 234.587296,54.851009 229.160492,54.851009 
	C229.160492,52.022762 229.160492,49.733921 229.160492,47.000011 
	C230.432678,47.000011 231.548615,47.000011 233.628662,47.000000 
M468.967743,55.719566 
	C466.980286,51.507832 465.269653,47.126259 462.848755,43.180477 
	C462.048340,41.875927 459.455017,41.329830 457.608185,41.136219 
	C456.489319,41.018917 454.565186,41.946285 454.135406,42.909611 
	C449.321625,53.698925 444.728333,64.586617 440.075287,75.448746 
	C447.378967,78.447754 448.426392,72.782631 450.258636,68.123306 
	C455.751251,68.123306 461.221344,68.123306 466.752563,68.123306 
	C468.590118,72.741203 469.608643,78.472054 477.169495,75.387047 
	C474.445282,69.091423 471.722687,62.799587 468.967743,55.719566 
M279.991791,61.909866 
	C276.848267,56.642578 271.312347,55.661263 266.120758,53.853363 
	C264.488007,53.284779 263.389374,51.182491 262.046265,49.782181 
	C263.792755,48.854801 265.598877,47.064774 267.273224,47.180511 
	C270.705841,47.417782 274.067810,48.677101 278.043823,49.660290 
	C278.669678,47.986862 279.476532,45.829414 280.374237,43.429096 
	C274.442169,41.487160 269.289062,38.766163 263.148468,40.921864 
	C259.086304,42.347916 255.549026,43.910290 255.011429,48.746525 
	C254.279373,55.332150 256.201202,57.173225 262.183960,59.940716 
	C264.926544,61.209373 267.990936,61.786373 270.721130,63.075668 
	C271.752991,63.562946 272.750916,65.137718 272.834473,66.284515 
	C272.897247,67.146088 271.455597,68.919434 270.716675,68.901840 
	C267.017426,68.813721 262.576752,69.425797 259.806305,67.624176 
	C255.204620,64.631721 254.225113,66.784920 253.002701,70.285233 
	C259.333038,77.247864 268.426056,77.168282 275.140869,74.845085 
	C279.927368,73.189064 281.756897,68.032112 279.991791,61.909866 
M414.639465,41.000000 
	C413.190002,41.000000 411.740509,41.000000 410.211670,41.000000 
	C410.211670,43.185890 410.211670,44.920296 410.211670,47.031864 
	C413.818573,47.031864 417.231415,47.031864 421.147095,47.031864 
	C421.147095,56.918533 421.147095,66.438324 421.147095,75.851273 
	C423.628448,75.851273 425.584167,75.851273 428.065918,75.851273 
	C428.065918,66.199791 428.065918,56.680973 428.065918,46.815834 
	C432.007019,46.815834 435.421112,46.815834 438.727722,46.815834 
	C438.727722,44.710587 438.727722,42.977142 438.727722,41.000000 
	C430.844330,41.000000 423.230072,41.000000 414.639465,41.000000 
M284.000397,43.522732 
	C283.813232,45.703171 283.903442,47.426308 287.003082,47.061440 
	C289.564392,46.759941 292.189423,46.999828 295.116150,46.999828 
	C295.116150,56.941010 295.116150,66.335091 295.116150,75.772812 
	C297.547821,75.772812 299.610229,75.772812 302.034424,75.772812 
	C302.034424,66.162170 302.034424,56.770123 302.034424,47.008411 
	C305.797882,47.008411 309.206146,47.008411 312.802216,47.008411 
	C312.802216,44.895512 312.802216,43.161026 312.802216,41.019253 
	C303.587036,41.019253 294.494446,40.995945 285.403015,41.085815 
	C284.932037,41.090469 284.470673,42.061687 284.000397,43.522732 
M236.236786,119.961128 
	C238.612732,113.211372 240.988678,106.461617 243.467148,99.420624 
	C240.262924,98.736763 238.392746,98.606056 237.863220,102.386826 
	C237.432541,105.461906 235.812775,108.370453 234.720306,111.352852 
	C232.689423,108.417030 232.017303,105.802414 230.984375,103.339088 
	C230.329498,101.777321 229.137482,100.440788 228.186371,99.003242 
	C227.093338,100.477226 225.792542,101.843063 224.955856,103.450485 
	C223.694992,105.872772 222.758438,108.463875 221.684036,110.983223 
	C220.469040,108.424759 218.658768,105.972702 218.177979,103.282997 
	C217.448837,99.203957 215.733826,98.159172 212.106522,99.464020 
	C214.123810,105.147919 216.459610,110.474152 217.838043,116.037575 
	C218.818954,119.996674 220.596405,120.648666 223.729980,119.675270 
	C225.063034,115.386314 226.308990,111.377541 227.852158,106.412567 
	C229.077087,110.423203 230.099579,113.574829 230.993179,116.762581 
	C231.634598,119.050720 232.723740,120.549171 236.236786,119.961128 
M526.000000,57.501019 
	C526.000000,52.084244 526.000000,46.667465 526.000000,41.229771 
	C523.441589,41.229771 521.379456,41.229771 519.324951,41.229771 
	C519.324951,52.951847 519.324951,64.441299 519.324951,75.676147 
	C521.718506,75.676147 523.781372,75.676147 526.000000,75.676147 
	C526.000000,69.735550 526.000000,64.117775 526.000000,57.501019 
M190.503159,108.997993 
	C188.986954,112.503792 187.470749,116.009598 185.831909,119.798950 
	C187.598740,119.798950 189.038757,119.798950 189.386703,119.798950 
	C191.378922,118.160706 192.766434,116.103302 193.990036,116.196548 
	C196.902481,116.418510 200.492279,114.029785 202.800201,118.163651 
	C203.470459,119.364204 205.734741,119.674828 208.275818,120.865486 
	C205.033234,113.410820 202.470932,107.358597 199.732895,101.386955 
	C199.285004,100.410095 197.988083,99.086258 197.215424,99.168076 
	C196.071701,99.289169 194.649826,100.295944 194.051880,101.332588 
	C192.781891,103.534370 191.966827,105.998550 190.503159,108.997993 
M305.003540,100.726173 
	C305.003540,107.004555 305.003540,113.282936 305.003540,119.685104 
	C306.843781,119.685104 308.356384,119.685104 309.829041,119.685104 
	C309.988159,117.620453 310.122955,115.871643 310.267242,113.999985 
	C311.911621,113.999985 313.230347,113.942078 314.542419,114.010834 
	C318.497284,114.218071 321.374481,112.553535 321.893616,108.599632 
	C322.435242,104.474510 321.577545,100.471642 316.379639,99.945198 
	C312.636017,99.566032 308.829681,99.805817 305.003540,100.726173 
M180.936783,116.622162 
	C178.072983,116.294861 175.209167,115.967560 171.992157,115.599892 
	C171.992157,110.181221 171.992157,104.779625 171.992157,99.350006 
	C170.123917,99.350006 168.626785,99.350006 167.304596,99.350006 
	C167.304596,106.412773 167.304596,113.124077 167.304596,119.999199 
	C171.236984,119.999199 174.877686,120.156181 178.486694,119.887527 
	C179.375839,119.821342 180.161804,118.369141 180.936783,116.622162 
M267.956268,99.831627 
	C266.388214,99.529045 264.820160,99.226456 263.281311,98.929512 
	C263.281311,106.366386 263.281311,113.076103 263.281311,119.765915 
	C267.640381,119.765915 271.714081,119.765915 275.771423,119.765915 
	C275.771423,118.447762 275.771423,117.379326 275.771423,115.942368 
	C273.148987,115.942368 270.744202,115.942368 267.996948,115.942368 
	C267.996948,110.646667 267.996948,105.712296 267.956268,99.831627 
M284.003784,118.281921 
	C288.140076,119.095207 292.276367,119.908485 297.046692,120.846436 
	C296.864288,118.436798 296.774994,117.257263 296.671021,115.883682 
	C293.691986,115.883682 291.067139,115.883682 288.697571,115.883682 
	C288.697571,110.176399 288.697571,104.691666 288.697571,99.245827 
	C287.085846,99.245827 285.686523,99.245827 284.000244,99.245827 
	C284.000244,105.429436 284.000244,111.372887 284.003784,118.281921 
z"/>
<path fill="#3552C8" opacity="1.000000" stroke="none" 
	d="
M71.285767,149.703735 
	C56.749428,141.550095 42.516678,133.618958 28.152752,125.614708 
	C28.152752,90.692841 28.152752,55.736149 28.152752,20.389626 
	C69.188896,20.389626 110.231461,20.389626 152.000000,20.389626 
	C152.000000,21.946083 152.000000,23.697683 152.000000,25.449284 
	C152.000000,56.433189 151.895432,87.417809 152.107773,118.400261 
	C152.141312,123.295433 151.187347,125.993523 146.351227,128.546783 
	C128.506744,137.967834 111.058189,148.144241 93.556870,158.203842 
	C90.964622,159.693863 89.073547,159.842621 86.495445,158.248886 
	C81.659721,155.259583 76.572174,152.677612 71.285767,149.703735 
M107.500000,37.000000 
	C86.479927,37.000000 65.459854,37.000000 44.722195,37.000000 
	C44.722195,40.936295 44.722195,44.321091 44.722195,47.709057 
	C74.603592,47.709057 104.644768,47.709057 135.117889,47.709057 
	C135.117889,44.053101 135.117889,40.678280 135.117889,37.000000 
	C126.439064,37.000000 117.469536,37.000000 107.500000,37.000000 
M116.000000,83.500015 
	C116.000000,97.283478 116.000000,111.066933 116.000000,124.978546 
	C117.419807,124.278648 118.695663,123.570053 120.032227,123.005096 
	C124.941788,120.929832 127.460854,118.079063 127.205284,111.931648 
	C126.577621,96.833527 127.000000,81.691750 127.000000,66.567528 
	C127.000000,63.802139 127.000000,61.036751 127.000000,58.167526 
	C122.769089,58.167526 119.157494,58.167526 116.000000,58.167526 
	C116.000000,66.385201 116.000000,74.442627 116.000000,83.500015 
M64.000000,98.500000 
	C64.000000,85.087723 64.000000,71.675453 64.000000,58.367729 
	C59.961777,58.367729 56.574894,58.367729 53.000702,58.367729 
	C53.000702,77.861427 52.935181,96.988708 53.118996,116.113586 
	C53.134521,117.729263 54.448700,119.850273 55.811661,120.819809 
	C58.143364,122.478455 60.991299,123.411407 64.000000,124.826729 
	C64.000000,116.070221 64.000000,107.785110 64.000000,98.500000 
M95.000000,107.500000 
	C95.000000,117.256287 95.000000,127.012573 95.000000,137.104309 
	C96.911163,135.961578 98.816566,134.201920 101.030777,133.622650 
	C106.246292,132.258179 106.127304,128.605362 106.056854,124.426041 
	C105.883278,114.128075 106.000000,103.825218 106.000000,93.524323 
	C106.000000,88.771225 106.000000,84.018135 106.000000,79.171280 
	C101.753654,79.171280 98.141609,79.171280 95.000000,79.171280 
	C95.000000,88.390045 95.000000,97.445023 95.000000,107.500000 
M85.000000,103.500000 
	C85.000000,95.415237 85.000000,87.330475 85.000000,79.372070 
	C80.948151,79.372070 77.563698,79.372070 74.000763,79.372070 
	C74.000763,95.870361 73.963692,111.997429 74.072647,128.123505 
	C74.081169,129.384033 74.766693,131.131165 75.729630,131.800873 
	C78.488739,133.719833 81.552536,135.200714 85.000000,137.136520 
	C85.000000,125.732727 85.000000,115.116364 85.000000,103.500000 
M78.648094,68.999992 
	C87.727661,68.999992 96.807228,68.999992 105.733978,68.999992 
	C105.733978,64.932121 105.733978,61.655445 105.733978,58.312294 
	C95.072731,58.312294 84.680367,58.312294 74.000679,58.312294 
	C74.000679,60.931408 74.187515,63.259853 73.954437,65.545471 
	C73.647461,68.555847 75.026459,69.378845 78.648094,68.999992 
z"/>
<path fill="#000000" opacity="1.000000" stroke="none" 
	d="
M206.713013,53.688042 
	C208.062103,49.346214 209.164078,45.340588 210.266708,41.332504 
	C212.814560,40.894371 215.290939,40.468525 218.233444,39.962521 
	C214.315140,51.508217 210.677994,62.566917 206.689087,73.497253 
	C206.247620,74.706917 203.769104,75.866760 202.286453,75.805801 
	C200.833893,75.746078 198.623352,74.385147 198.172592,73.096245 
	C196.167480,67.362862 194.693909,61.444679 192.979813,55.607506 
	C192.632004,54.423061 192.075027,53.300034 191.223190,51.170399 
	C188.507736,59.944035 186.066696,67.830986 183.582672,75.856842 
	C181.321747,75.856842 179.018890,75.856842 176.439728,75.856842 
	C172.562332,64.188370 168.652176,52.421307 164.614426,40.270275 
	C167.484955,40.625038 169.812561,40.912708 172.446930,41.238289 
	C174.885605,49.286835 177.404678,57.600769 180.298401,67.151169 
	C182.799164,58.639870 184.948547,51.487892 186.983536,44.303513 
	C187.634354,42.005859 188.608383,40.844070 191.326111,40.888889 
	C194.068527,40.934116 195.336288,41.731899 196.063492,44.440685 
	C197.904480,51.298328 200.075500,58.067375 203.227432,64.910225 
	C204.306915,61.281563 205.386398,57.652901 206.713013,53.688042 
z"/>
<path fill="#000000" opacity="1.000000" stroke="none" 
	d="
M381.000000,65.028137 
	C381.000000,68.826401 381.000000,72.136192 381.000000,75.720322 
	C378.696594,75.720322 376.626953,75.720322 374.276062,75.720322 
	C374.276062,64.398445 374.276062,52.983284 374.276062,41.503899 
	C379.930328,38.943542 382.315674,43.178574 384.974823,46.791798 
	C388.326996,51.346699 391.615204,55.949024 395.004425,60.475948 
	C395.529053,61.176689 396.445221,61.584263 397.769257,62.562588 
	C397.769257,55.111267 397.769257,48.390827 397.769257,41.337383 
	C400.191956,41.337383 402.262238,41.337383 404.675354,41.337383 
	C404.675354,52.622635 404.675354,64.173409 404.675354,75.748085 
	C400.653412,76.480713 397.740784,76.058800 395.196411,71.965454 
	C391.303864,65.703178 386.319977,60.119244 381.000000,53.209110 
	C381.000000,57.773849 381.000000,61.156761 381.000000,65.028137 
z"/>
<path fill="#000000" opacity="1.000000" stroke="none" 
	d="
M568.812744,66.532990 
	C563.740784,76.129028 552.016724,78.678726 542.776672,74.155022 
	C533.546509,69.636147 530.169006,59.529686 534.944092,50.668076 
	C539.832153,41.596691 549.433411,37.550499 559.742126,41.984146 
	C569.582886,46.216526 573.125427,55.848309 568.812744,66.532990 
M563.960205,57.642914 
	C563.646973,57.073288 563.171875,56.537292 563.045471,55.928844 
	C561.721619,49.556988 556.665283,46.128170 549.797302,47.002728 
	C543.774048,47.769711 539.632385,53.020855 540.000183,59.424263 
	C540.330505,65.175507 545.293762,69.844872 551.241516,69.999969 
	C557.971191,70.175461 560.664551,67.736656 563.960205,57.642914 
z"/>
<path fill="#000000" opacity="1.000000" stroke="none" 
	d="
M348.952148,76.000000 
	C336.392975,76.726852 329.954193,68.008324 329.064117,58.220959 
	C328.499603,52.013664 334.462128,43.809715 341.084656,41.450550 
	C350.310547,38.163960 360.243988,41.762615 364.923798,49.733932 
	C368.350616,55.570972 368.169617,61.872505 364.720093,67.258804 
	C361.370911,72.488541 356.664001,76.882690 348.952148,76.000000 
M343.758545,47.780430 
	C339.980011,49.946152 336.972229,52.354259 336.727814,57.436508 
	C336.430450,63.619186 340.666382,69.332451 346.960541,69.998848 
	C353.418793,70.682632 359.463806,65.956070 359.999237,59.804008 
	C360.769501,50.954155 355.338623,46.580971 343.758545,47.780430 
z"/>
<path fill="#000000" opacity="1.000000" stroke="none" 
	d="
M510.110352,47.363361 
	C512.485962,56.058613 511.019867,60.150246 504.245453,64.370903 
	C506.821594,67.986809 509.397034,71.601753 512.006836,75.264893 
	C502.332581,76.742706 505.346130,77.491203 498.581207,66.001717 
	C496.229584,66.001717 493.745239,66.001724 491.260864,66.001724 
	C490.638062,66.001724 490.015259,66.001717 489.016907,66.001717 
	C489.016907,69.441666 489.016907,72.520950 489.016907,75.795410 
	C486.570740,75.795410 484.503876,75.795410 482.216522,75.795410 
	C482.216522,64.279083 482.216522,52.888748 482.216522,41.001846 
	C488.543671,41.001846 494.809967,40.834923 501.061920,41.061954 
	C505.068085,41.207428 507.958832,43.573231 510.110352,47.363361 
M501.665771,58.839405 
	C503.840118,56.404518 506.456665,54.174110 504.054474,50.359856 
	C500.141327,44.146564 494.267914,48.297012 489.218506,46.780350 
	C489.218506,51.177158 489.218506,54.916859 489.218506,58.989326 
	C493.222015,58.989326 497.015869,58.989326 501.665771,58.839405 
z"/>
<path fill="#000000" opacity="1.000000" stroke="none" 
	d="
M233.146606,47.000008 
	C231.548615,47.000011 230.432678,47.000011 229.160492,47.000011 
	C229.160492,49.733921 229.160492,52.022762 229.160492,54.851009 
	C234.587296,54.851009 240.141342,54.851009 245.626907,54.851009 
	C246.283936,61.996349 246.283936,61.996975 239.721619,61.999744 
	C236.287445,62.001194 232.853271,62.000000 229.214478,62.000000 
	C229.214478,64.022636 229.214478,66.781380 229.214478,69.921829 
	C235.360626,69.921829 241.444153,69.921829 247.758286,69.921829 
	C247.758286,72.031174 247.758286,73.767288 247.758286,75.753540 
	C239.357849,75.753540 230.953674,75.753540 222.273773,75.753540 
	C222.273773,64.371468 222.273773,52.983398 222.273773,41.296677 
	C230.584045,41.296677 238.977142,41.296677 247.779648,41.296677 
	C247.865692,42.900620 247.959076,44.641193 248.085617,47.000000 
	C243.155441,47.000000 238.392059,47.000000 233.146606,47.000008 
z"/>
<path fill="#000000" opacity="1.000000" stroke="none" 
	d="
M468.983917,56.113655 
	C471.722687,62.799587 474.445282,69.091423 477.169495,75.387047 
	C469.608643,78.472054 468.590118,72.741203 466.752563,68.123306 
	C461.221344,68.123306 455.751251,68.123306 450.258636,68.123306 
	C448.426392,72.782631 447.378967,78.447754 440.075287,75.448746 
	C444.728333,64.586617 449.321625,53.698925 454.135406,42.909611 
	C454.565186,41.946285 456.489319,41.018917 457.608185,41.136219 
	C459.455017,41.329830 462.048340,41.875927 462.848755,43.180477 
	C465.269653,47.126259 466.980286,51.507832 468.983917,56.113655 
M456.921570,52.563496 
	C455.594177,55.560181 454.266815,58.556862 452.812805,61.839409 
	C456.666565,61.839409 460.089874,61.839409 463.890137,61.839409 
	C462.265442,57.825779 460.683167,53.916958 458.905212,49.524796 
	C457.977081,50.646935 457.498230,51.225895 456.921570,52.563496 
z"/>
<path fill="#000000" opacity="1.000000" stroke="none" 
	d="
M280.077515,62.298859 
	C281.756897,68.032112 279.927368,73.189064 275.140869,74.845085 
	C268.426056,77.168282 259.333038,77.247864 253.002701,70.285233 
	C254.225113,66.784920 255.204620,64.631721 259.806305,67.624176 
	C262.576752,69.425797 267.017426,68.813721 270.716675,68.901840 
	C271.455597,68.919434 272.897247,67.146088 272.834473,66.284515 
	C272.750916,65.137718 271.752991,63.562946 270.721130,63.075668 
	C267.990936,61.786373 264.926544,61.209373 262.183960,59.940716 
	C256.201202,57.173225 254.279373,55.332150 255.011429,48.746525 
	C255.549026,43.910290 259.086304,42.347916 263.148468,40.921864 
	C269.289062,38.766163 274.442169,41.487160 280.374237,43.429096 
	C279.476532,45.829414 278.669678,47.986862 278.043823,49.660290 
	C274.067810,48.677101 270.705841,47.417782 267.273224,47.180511 
	C265.598877,47.064774 263.792755,48.854801 262.046265,49.782177 
	C263.389374,51.182491 264.488007,53.284779 266.120758,53.853363 
	C271.312347,55.661263 276.848267,56.642578 280.077515,62.298859 
z"/>
<path fill="#000000" opacity="1.000000" stroke="none" 
	d="
M415.127625,41.000000 
	C423.230072,41.000000 430.844330,41.000000 438.727722,41.000000 
	C438.727722,42.977142 438.727722,44.710587 438.727722,46.815834 
	C435.421112,46.815834 432.007019,46.815834 428.065918,46.815834 
	C428.065918,56.680973 428.065918,66.199791 428.065918,75.851273 
	C425.584167,75.851273 423.628448,75.851273 421.147095,75.851273 
	C421.147095,66.438324 421.147095,56.918533 421.147095,47.031864 
	C417.231415,47.031864 413.818573,47.031864 410.211670,47.031864 
	C410.211670,44.920296 410.211670,43.185890 410.211670,41.000000 
	C411.740509,41.000000 413.190002,41.000000 415.127625,41.000000 
z"/>
<path fill="#000000" opacity="1.000000" stroke="none" 
	d="
M284.002625,43.052818 
	C284.470673,42.061687 284.932037,41.090469 285.403015,41.085815 
	C294.494446,40.995945 303.587036,41.019253 312.802216,41.019253 
	C312.802216,43.161026 312.802216,44.895512 312.802216,47.008411 
	C309.206146,47.008411 305.797882,47.008411 302.034424,47.008411 
	C302.034424,56.770123 302.034424,66.162170 302.034424,75.772812 
	C299.610229,75.772812 297.547821,75.772812 295.116150,75.772812 
	C295.116150,66.335091 295.116150,56.941010 295.116150,46.999828 
	C292.189423,46.999828 289.564392,46.759941 287.003082,47.061440 
	C283.903442,47.426308 283.813232,45.703171 284.002625,43.052818 
z"/>
<path fill="#000000" opacity="1.000000" stroke="none" 
	d="
M235.813782,119.979126 
	C232.723740,120.549171 231.634598,119.050720 230.993179,116.762581 
	C230.099579,113.574829 229.077087,110.423203 227.852158,106.412567 
	C226.308990,111.377541 225.063034,115.386314 223.729980,119.675270 
	C220.596405,120.648666 218.818954,119.996674 217.838043,116.037575 
	C216.459610,110.474152 214.123810,105.147919 212.106522,99.464020 
	C215.733826,98.159172 217.448837,99.203957 218.177979,103.282997 
	C218.658768,105.972702 220.469040,108.424759 221.684036,110.983223 
	C222.758438,108.463875 223.694992,105.872772 224.955856,103.450485 
	C225.792542,101.843063 227.093338,100.477226 228.186371,99.003242 
	C229.137482,100.440788 230.329498,101.777321 230.984375,103.339088 
	C232.017303,105.802414 232.689423,108.417030 234.720306,111.352852 
	C235.812775,108.370453 237.432541,105.461906 237.863220,102.386826 
	C238.392746,98.606056 240.262924,98.736763 243.467148,99.420624 
	C240.988678,106.461617 238.612732,113.211372 235.813782,119.979126 
z"/>
<path fill="#000000" opacity="1.000000" stroke="none" 
	d="
M526.000000,58.000511 
	C526.000000,64.117775 526.000000,69.735550 526.000000,75.676147 
	C523.781372,75.676147 521.718506,75.676147 519.324951,75.676147 
	C519.324951,64.441299 519.324951,52.951847 519.324951,41.229771 
	C521.379456,41.229771 523.441589,41.229771 526.000000,41.229771 
	C526.000000,46.667465 526.000000,52.084244 526.000000,58.000511 
z"/>
<path fill="#000000" opacity="1.000000" stroke="none" 
	d="
M190.734222,108.676575 
	C191.966827,105.998550 192.781891,103.534370 194.051880,101.332588 
	C194.649826,100.295944 196.071701,99.289169 197.215424,99.168076 
	C197.988083,99.086258 199.285004,100.410095 199.732895,101.386955 
	C202.470932,107.358597 205.033234,113.410820 208.275818,120.865486 
	C205.734741,119.674828 203.470459,119.364204 202.800201,118.163651 
	C200.492279,114.029785 196.902481,116.418510 193.990036,116.196548 
	C192.766434,116.103302 191.378922,118.160706 189.386703,119.798950 
	C189.038757,119.798950 187.598740,119.798950 185.831909,119.798950 
	C187.470749,116.009598 188.986954,112.503792 190.734222,108.676575 
z"/>
<path fill="#000000" opacity="1.000000" stroke="none" 
	d="
M305.027435,100.247849 
	C308.829681,99.805817 312.636017,99.566032 316.379639,99.945198 
	C321.577545,100.471642 322.435242,104.474510 321.893616,108.599632 
	C321.374481,112.553535 318.497284,114.218071 314.542419,114.010834 
	C313.230347,113.942078 311.911621,113.999985 310.267242,113.999985 
	C310.122955,115.871643 309.988159,117.620453 309.829041,119.685104 
	C308.356384,119.685104 306.843781,119.685104 305.003540,119.685104 
	C305.003540,113.282936 305.003540,107.004555 305.027435,100.247849 
M314.265381,104.000099 
	C312.981476,104.000099 311.697571,104.000099 310.305176,104.000099 
	C310.024597,106.091805 309.780701,107.910324 309.500427,109.999771 
	C311.115204,109.999771 312.867249,110.380463 314.325897,109.889481 
	C315.701965,109.426285 316.769287,108.045746 317.972443,107.068748 
	C317.027100,106.046318 316.081787,105.023895 314.265381,104.000099 
z"/>
<path fill="#000000" opacity="1.000000" stroke="none" 
	d="
M180.965988,117.088135 
	C180.161804,118.369141 179.375839,119.821342 178.486694,119.887527 
	C174.877686,120.156181 171.236984,119.999199 167.304596,119.999199 
	C167.304596,113.124077 167.304596,106.412773 167.304596,99.350006 
	C168.626785,99.350006 170.123917,99.350006 171.992157,99.350006 
	C171.992157,104.779625 171.992157,110.181221 171.992157,115.599892 
	C175.209167,115.967560 178.072983,116.294861 180.965988,117.088135 
z"/>
<path fill="#000000" opacity="1.000000" stroke="none" 
	d="
M267.976624,100.304779 
	C267.996948,105.712296 267.996948,110.646667 267.996948,115.942368 
	C270.744202,115.942368 273.148987,115.942368 275.771423,115.942368 
	C275.771423,117.379326 275.771423,118.447762 275.771423,119.765915 
	C271.714081,119.765915 267.640381,119.765915 263.281311,119.765915 
	C263.281311,113.076103 263.281311,106.366386 263.281311,98.929512 
	C264.820160,99.226456 266.388214,99.529045 267.976624,100.304779 
z"/>
<path fill="#000000" opacity="1.000000" stroke="none" 
	d="
M284.002014,117.799133 
	C284.000244,111.372887 284.000244,105.429436 284.000244,99.245827 
	C285.686523,99.245827 287.085846,99.245827 288.697571,99.245827 
	C288.697571,104.691666 288.697571,110.176399 288.697571,115.883682 
	C291.067139,115.883682 293.691986,115.883682 296.671021,115.883682 
	C296.774994,117.257263 296.864288,118.436798 297.046692,120.846436 
	C292.276367,119.908485 288.140076,119.095207 284.002014,117.799133 
z"/>
<path fill="#FFFFFF" opacity="1.000000" stroke="none" 
	d="
M108.000000,37.000000 
	C117.469536,37.000000 126.439064,37.000000 135.117889,37.000000 
	C135.117889,40.678280 135.117889,44.053101 135.117889,47.709057 
	C104.644768,47.709057 74.603592,47.709057 44.722195,47.709057 
	C44.722195,44.321091 44.722195,40.936295 44.722195,37.000000 
	C65.459854,37.000000 86.479927,37.000000 108.000000,37.000000 
z"/>
<path fill="#FFFFFF" opacity="1.000000" stroke="none" 
	d="
M116.000000,83.000031 
	C116.000000,74.442627 116.000000,66.385201 116.000000,58.167526 
	C119.157494,58.167526 122.769089,58.167526 127.000000,58.167526 
	C127.000000,61.036751 127.000000,63.802139 127.000000,66.567528 
	C127.000000,81.691750 126.577621,96.833527 127.205284,111.931648 
	C127.460854,118.079063 124.941788,120.929832 120.032227,123.005096 
	C118.695663,123.570053 117.419807,124.278648 116.000000,124.978546 
	C116.000000,111.066933 116.000000,97.283478 116.000000,83.000031 
z"/>
<path fill="#FFFFFF" opacity="1.000000" stroke="none" 
	d="
M64.000000,99.000000 
	C64.000000,107.785110 64.000000,116.070221 64.000000,124.826729 
	C60.991299,123.411407 58.143364,122.478455 55.811661,120.819809 
	C54.448700,119.850273 53.134521,117.729263 53.118996,116.113586 
	C52.935181,96.988708 53.000702,77.861427 53.000702,58.367729 
	C56.574894,58.367729 59.961777,58.367729 64.000000,58.367729 
	C64.000000,71.675453 64.000000,85.087723 64.000000,99.000000 
z"/>
<path fill="#FFFFFF" opacity="1.000000" stroke="none" 
	d="
M95.000000,107.000000 
	C95.000000,97.445023 95.000000,88.390045 95.000000,79.171280 
	C98.141609,79.171280 101.753654,79.171280 106.000000,79.171280 
	C106.000000,84.018135 106.000000,88.771225 106.000000,93.524323 
	C106.000000,103.825218 105.883278,114.128075 106.056854,124.426041 
	C106.127304,128.605362 106.246292,132.258179 101.030777,133.622650 
	C98.816566,134.201920 96.911163,135.961578 95.000000,137.104309 
	C95.000000,127.012573 95.000000,117.256287 95.000000,107.000000 
z"/>
<path fill="#FFFFFF" opacity="1.000000" stroke="none" 
	d="
M85.000000,104.000000 
	C85.000000,115.116364 85.000000,125.732727 85.000000,137.136520 
	C81.552536,135.200714 78.488739,133.719833 75.729630,131.800873 
	C74.766693,131.131165 74.081169,129.384033 74.072647,128.123505 
	C73.963692,111.997429 74.000763,95.870361 74.000763,79.372070 
	C77.563698,79.372070 80.948151,79.372070 85.000000,79.372070 
	C85.000000,87.330475 85.000000,95.415237 85.000000,104.000000 
z"/>
<path fill="#FFFFFF" opacity="1.000000" stroke="none" 
	d="
M78.167068,68.999878 
	C75.026459,69.378845 73.647461,68.555847 73.954437,65.545471 
	C74.187515,63.259853 74.000679,60.931408 74.000679,58.312294 
	C84.680367,58.312294 95.072731,58.312294 105.733978,58.312294 
	C105.733978,61.655445 105.733978,64.932121 105.733978,68.999992 
	C96.807228,68.999992 87.727661,68.999992 78.167068,68.999878 
z"/>
<path fill="#FFFFFF" opacity="1.000000" stroke="none" 
	d="
M563.977539,58.047447 
	C560.664551,67.736656 557.971191,70.175461 551.241516,69.999969 
	C545.293762,69.844872 540.330505,65.175507 540.000183,59.424263 
	C539.632385,53.020855 543.774048,47.769711 549.797302,47.002728 
	C556.665283,46.128170 561.721619,49.556988 563.045471,55.928844 
	C563.171875,56.537292 563.646973,57.073288 563.977539,58.047447 
z"/>
<path fill="#FFFFFF" opacity="1.000000" stroke="none" 
	d="
M344.035706,47.476501 
	C355.338623,46.580971 360.769501,50.954155 359.999237,59.804008 
	C359.463806,65.956070 353.418793,70.682632 346.960541,69.998848 
	C340.666382,69.332451 336.430450,63.619186 336.727814,57.436508 
	C336.972229,52.354259 339.980011,49.946152 344.035706,47.476501 
z"/>
<path fill="#FFFFFF" opacity="1.000000" stroke="none" 
	d="
M501.237762,58.914368 
	C497.015869,58.989326 493.222015,58.989326 489.218506,58.989326 
	C489.218506,54.916859 489.218506,51.177158 489.218506,46.780350 
	C494.267914,48.297012 500.141327,44.146564 504.054474,50.359856 
	C506.456665,54.174110 503.840118,56.404518 501.237762,58.914368 
z"/>
<path fill="#FFFFFF" opacity="1.000000" stroke="none" 
	d="
M456.970459,52.184174 
	C457.498230,51.225895 457.977081,50.646935 458.905212,49.524796 
	C460.683167,53.916958 462.265442,57.825779 463.890137,61.839409 
	C460.089874,61.839409 456.666565,61.839409 452.812805,61.839409 
	C454.266815,58.556862 455.594177,55.560181 456.970459,52.184174 
z"/>
<path fill="#FFFFFF" opacity="1.000000" stroke="none" 
	d="
M314.700928,104.000786 
	C316.081787,105.023895 317.027100,106.046318 317.972443,107.068741 
	C316.769287,108.045746 315.701965,109.426285 314.325897,109.889481 
	C312.867249,110.380463 311.115204,109.999771 309.500427,109.999771 
	C309.780701,107.910324 310.024597,106.091805 310.305176,104.000099 
	C311.697571,104.000099 312.981476,104.000099 314.700928,104.000786 
z"/>
</svg>