<svg version="1.1" id="Layer_1" xmlns="http://www.w3.org/2000/svg" xmlns:xlink="http://www.w3.org/1999/xlink" x="0px" y="0px"
	 width="100%" viewBox="0 0 601 170" enable-background="new 0 0 601 170" xml:space="preserve">
<path fill="#000000" opacity="1.000000" stroke="none" 
	d="
M440.000000,171.000000 
	C293.333344,171.000000 147.166672,171.000000 1.000000,171.000000 
	C1.000000,114.333336 1.000000,57.666668 1.000000,1.000000 
	C201.333328,1.000000 401.666656,1.000000 602.000000,1.000000 
	C602.000000,57.666668 602.000000,114.333336 602.000000,171.000000 
	C548.166687,171.000000 494.333344,171.000000 440.000000,171.000000 
M170.000000,84.500000 
	C170.000000,64.078011 170.000000,43.656017 170.000000,23.259518 
	C130.721039,23.259518 91.997162,23.259518 53.177711,23.259518 
	C53.177711,56.929054 53.177711,90.338852 53.177711,123.484985 
	C55.935535,125.084206 58.425613,126.576134 60.959457,127.989601 
	C75.630173,136.173416 90.444298,144.113281 104.905853,152.650711 
	C109.124702,155.141327 112.299995,155.517685 116.522972,153.120163 
	C134.208588,143.079391 152.031570,133.280594 169.863403,123.360237 
	C169.895874,123.135674 169.984467,122.807892 169.984726,122.480042 
	C169.994888,110.153366 169.996887,97.826683 170.000000,84.500000 
M316.938873,50.310272 
	C316.938873,48.017872 316.938873,45.725475 316.938873,43.005180 
	C307.722229,43.005180 298.608612,42.013351 289.898193,43.456001 
	C285.996155,44.102268 282.690735,43.574085 279.589569,42.698914 
	C274.433685,41.243885 269.899994,42.328724 265.503204,44.278446 
	C259.581238,46.904503 259.062775,57.876106 264.718262,61.188404 
	C268.845245,63.605476 273.418396,65.260765 277.866425,67.289307 
	C274.094421,70.719574 271.093384,68.196999 268.252991,66.598907 
	C264.287415,64.367729 261.025360,63.552925 259.587372,68.780182 
	C252.859421,68.780182 246.575134,68.780182 240.207489,68.780182 
	C240.207489,67.155472 240.207489,65.752632 240.207489,63.960815 
	C245.490875,63.960815 250.584930,63.960815 255.788498,63.960815 
	C255.788498,61.162079 255.788498,58.758221 255.788498,55.969688 
	C250.497467,55.969688 245.402420,55.969688 240.193817,55.969688 
	C240.193817,54.177296 240.193817,52.774670 240.193817,50.982731 
	C246.130463,50.982731 251.890091,50.982731 257.801697,50.982731 
	C257.801697,48.187588 257.801697,45.784187 257.801697,43.190994 
	C245.170120,43.190994 232.736130,43.190994 220.365417,43.190994 
	C218.761200,48.585148 217.194931,53.851669 215.628662,59.118195 
	C215.208298,59.134682 214.787933,59.151169 214.367584,59.167656 
	C212.915558,54.697533 211.539566,50.200184 209.955734,45.777256 
	C209.580231,44.728642 208.668900,43.382812 207.729202,43.105705 
	C202.163986,41.464581 199.387543,43.355103 197.949524,48.955536 
	C197.048874,52.463223 195.653183,55.843803 194.479614,59.281414 
	C194.117142,59.164314 193.754669,59.047215 193.392181,58.930115 
	C191.787643,53.617962 190.183090,48.305805 188.633728,43.176342 
	C185.261887,43.176342 182.298264,43.176342 178.887512,43.176342 
	C179.120468,44.957230 179.099548,46.586567 179.565140,48.062428 
	C182.307312,56.754417 185.486404,65.324509 187.827637,74.119530 
	C188.824509,77.864388 190.678314,78.149124 193.725204,78.054436 
	C196.703384,77.961868 199.434509,78.465584 200.134872,74.154045 
	C200.755737,70.331917 202.379089,66.672630 203.559875,62.941460 
	C203.980331,62.852455 204.400772,62.763451 204.821213,62.674446 
	C205.880661,65.562881 207.575455,68.390709 207.858017,71.353241 
	C208.341629,76.423759 210.181686,78.978577 215.573029,78.033234 
	C216.851913,77.808983 218.203629,78.000000 219.348007,78.000000 
	C222.838425,67.794136 226.239334,57.849979 229.640244,47.905819 
	C230.044952,47.976517 230.449661,48.047211 230.854370,48.117908 
	C230.854370,57.953850 230.854370,67.789795 230.854370,77.805862 
	C240.168564,77.805862 248.933075,77.805862 257.872284,77.805862 
	C257.949432,76.282677 258.021576,74.858147 258.141846,72.483009 
	C264.064117,78.637657 271.149658,78.217598 278.214203,78.016319 
	C283.242004,77.873077 287.424957,74.631454 287.996124,70.256973 
	C289.039978,62.262695 287.401001,59.066597 281.313446,56.980694 
	C278.109955,55.883015 274.953308,54.648590 271.775482,53.475914 
	C271.967468,52.814262 272.159485,52.152607 272.351471,51.490955 
	C274.473450,51.973118 276.727478,52.149612 278.691284,52.997936 
	C283.510468,55.079735 285.910522,54.490288 287.356781,50.876175 
	C290.912292,50.876175 294.268280,50.876175 298.006470,50.876175 
	C298.006470,60.127220 298.006470,68.877480 298.006470,77.805008 
	C301.135132,77.805008 303.870667,77.805008 307.000793,77.805008 
	C307.000793,68.873695 307.000793,60.125607 307.000793,50.946243 
	C310.336823,50.946243 313.291565,50.946243 316.938873,50.310272 
M500.000000,54.613346 
	C499.923126,48.690254 496.688751,43.473507 491.862030,43.142323 
	C484.646149,42.647209 477.371185,43.013725 469.545105,43.013725 
	C469.545105,53.759987 469.545105,63.869434 469.545105,74.277618 
	C468.674500,73.797920 468.251831,73.714523 468.150848,73.487831 
	C464.171631,64.555389 460.314545,55.566536 456.178528,46.707855 
	C455.470245,45.190861 453.602570,43.223152 452.244568,43.202873 
	C449.180023,43.157112 445.302795,41.216743 443.396973,46.037395 
	C440.866119,52.438904 437.738678,58.601879 435.058990,64.948181 
	C433.345825,69.005531 431.978424,73.208893 430.391144,77.523117 
	C440.616638,78.727005 440.616638,78.727005 443.796753,71.133003 
	C447.789276,71.133003 451.765015,71.133003 454.647461,71.133003 
	C456.971558,73.820465 458.583984,77.453537 460.614746,77.704765 
	C466.947784,78.488258 473.439087,77.992119 480.176025,77.992119 
	C480.176025,74.625099 480.176025,71.853676 480.176025,67.940720 
	C482.591858,69.198059 485.299194,69.691307 485.815125,71.029457 
	C488.471100,77.918251 493.351898,79.220238 500.992828,77.297379 
	C499.164307,73.434875 497.438599,69.789558 495.729553,66.179420 
	C498.816315,63.601177 500.618927,60.078369 500.000000,54.613346 
M366.981049,67.042511 
	C368.929749,60.258766 368.294922,53.714314 363.671356,48.319576 
	C358.413879,42.185204 351.279022,41.882557 343.723297,42.935417 
	C328.676880,45.032078 327.321808,60.712112 331.821075,70.103859 
	C335.280823,77.325722 342.157684,78.143600 349.675934,78.203346 
	C357.963531,78.269211 363.159729,74.763725 366.981049,67.042511 
M544.266357,43.995869 
	C539.724915,43.663818 535.111572,42.656082 530.655945,43.130207 
	C518.725281,44.399742 511.898834,59.655033 518.361450,69.883934 
	C523.040833,77.290344 536.438049,81.166161 544.397705,77.115463 
	C549.387817,74.575981 553.595764,71.113281 554.003479,64.826767 
	C554.551941,56.372025 554.249390,48.294678 544.266357,43.995869 
M371.000183,45.712002 
	C371.000183,56.458874 371.000183,67.205750 371.000183,77.820877 
	C374.336700,77.820877 376.959564,77.820877 380.128723,77.820877 
	C380.128723,72.817268 380.128723,67.966072 380.128723,61.649864 
	C383.220795,65.577911 385.957336,68.047844 387.421112,71.123489 
	C390.460754,77.510414 395.076721,79.386803 401.802399,77.537735 
	C401.802399,66.209579 401.802399,54.799095 401.802399,43.194313 
	C398.868530,43.194313 396.132202,43.194313 392.838898,43.194313 
	C392.838898,48.208069 392.838898,53.054398 392.838898,57.900723 
	C392.291199,58.252346 391.743469,58.603970 391.195770,58.955589 
	C390.473083,57.716206 389.843292,56.410126 389.010284,55.249939 
	C386.531250,51.797253 384.056458,48.335331 381.419098,45.004391 
	C379.147247,42.135094 373.469482,42.091625 371.000183,45.712002 
M250.963013,109.313972 
	C252.104996,105.388016 253.246979,101.462059 254.514847,97.103378 
	C251.377472,97.103378 248.615021,96.324478 246.907364,97.332504 
	C245.343155,98.255852 244.918060,101.108971 243.714905,103.708344 
	C242.848312,101.066139 242.213928,99.131943 241.552231,97.114471 
	C239.195572,97.114471 236.889191,97.114471 234.778137,97.114471 
	C233.937851,98.916153 233.152130,100.600815 232.366409,102.285469 
	C230.915634,95.150726 226.167313,97.026619 221.460907,97.258087 
	C223.863174,104.384453 226.143570,111.149269 228.369553,117.752701 
	C232.991943,118.588326 236.999344,118.640106 238.131638,112.369225 
	C238.881424,117.171829 241.184509,118.461899 245.324051,118.111992 
	C249.368271,117.770142 248.572708,114.898697 249.192673,112.574669 
	C249.435852,111.663116 250.057648,110.852570 250.963013,109.313972 
M432.938873,50.310272 
	C432.938873,47.906502 432.938873,45.502731 432.938873,43.297981 
	C422.918793,43.297981 413.530182,43.297981 404.293762,43.297981 
	C404.293762,46.008434 404.293762,48.414139 404.293762,51.186050 
	C407.653870,51.186050 410.730774,51.186050 414.136780,51.186050 
	C414.136780,60.289963 414.136780,69.013115 414.136780,77.760269 
	C417.235718,77.760269 419.966064,77.760269 423.051880,77.760269 
	C423.051880,68.804520 423.051880,60.079945 423.051880,50.946243 
	C426.355286,50.946243 429.300781,50.946243 432.938873,50.310272 
M504.000000,52.534035 
	C504.000000,60.966019 504.000000,69.398003 504.000000,77.700500 
	C507.669769,77.700500 510.745117,77.700500 513.704224,77.700500 
	C513.704224,65.990036 513.704224,54.581264 513.704224,43.301456 
	C510.326691,43.301456 507.251312,43.301456 504.000000,43.301456 
	C504.000000,46.249134 504.000000,48.896893 504.000000,52.534035 
M198.000504,115.714294 
	C199.284302,118.448242 203.059189,118.650238 205.735443,116.869316 
	C207.389709,115.768463 211.315048,114.963341 211.713440,115.598412 
	C214.287033,119.700912 217.727905,117.527733 222.240891,117.957390 
	C219.233978,110.668404 216.742386,104.151886 213.824570,97.832153 
	C212.891220,95.810623 205.508072,96.839645 204.596924,98.962982 
	C202.335281,104.233559 200.192047,109.554947 198.000504,115.714294 
M317.373352,97.000000 
	C313.956482,97.000000 310.539612,97.000000 307.000000,97.000000 
	C307.000000,100.964821 307.000000,104.279274 307.000000,107.593727 
	C307.000000,111.025833 307.000000,114.457947 307.000000,117.710258 
	C309.687286,117.710258 311.774567,117.710258 313.838196,117.710258 
	C313.989075,115.999466 314.114197,114.580551 314.234955,113.211311 
	C326.582428,112.535118 329.201874,107.713104 323.215210,97.000000 
	C321.635864,97.000000 319.978027,97.000000 317.373352,97.000000 
M186.562805,118.000000 
	C189.655914,118.000000 192.749008,118.000000 195.736115,118.000000 
	C195.736115,115.715561 195.736115,113.978561 195.736115,111.876953 
	C193.079971,111.876953 190.672180,111.876953 187.931152,111.876953 
	C187.931152,106.783783 187.931152,102.050507 187.931152,97.191925 
	C185.508392,97.191925 183.448868,97.191925 181.195206,97.191925 
	C181.195206,104.092110 181.195206,110.802063 181.195206,118.000000 
	C182.732498,118.000000 184.165146,118.000000 186.562805,118.000000 
M269.000000,103.579865 
	C269.000000,108.316132 269.000000,113.052406 269.000000,117.762283 
	C274.292450,117.762283 279.019623,117.762283 283.776733,117.762283 
	C283.776733,115.787231 283.776733,114.052849 283.776733,111.955650 
	C281.158661,111.955650 278.756927,111.955650 275.838013,111.955650 
	C275.838013,106.747604 275.838013,101.890678 275.838013,97.148453 
	C273.359436,97.148453 271.410126,97.148453 269.000000,97.148453 
	C269.000000,99.062119 269.000000,100.834381 269.000000,103.579865 
M302.999603,115.489449 
	C303.377472,108.459785 297.237488,113.990936 294.906372,110.807159 
	C294.906372,106.755325 294.906372,102.019691 294.906372,97.209335 
	C292.479126,97.209335 290.418732,97.209335 288.348572,97.209335 
	C288.348572,104.255363 288.348572,111.086632 288.348572,117.999825 
	C292.501129,117.999825 296.310333,118.105408 300.106293,117.927704 
	C301.090576,117.881638 302.033325,116.949005 302.999603,115.489449 
z"/>
<path fill="#FFFFFF" opacity="1.000000" stroke="none" 
	d="
M170.000000,85.000000 
	C169.996887,97.826683 169.994888,110.153366 169.984726,122.480042 
	C169.984467,122.807892 169.895874,123.135674 169.863403,123.360237 
	C152.031570,133.280594 134.208588,143.079391 116.522972,153.120163 
	C112.299995,155.517685 109.124702,155.141327 104.905853,152.650711 
	C90.444298,144.113281 75.630173,136.173416 60.959457,127.989601 
	C58.425613,126.576134 55.935535,125.084206 53.177711,123.484985 
	C53.177711,90.338852 53.177711,56.929054 53.177711,23.259518 
	C91.997162,23.259518 130.721039,23.259518 170.000000,23.259518 
	C170.000000,43.656017 170.000000,64.078011 170.000000,85.000000 
M91.500160,42.000000 
	C84.726219,42.000000 77.952286,42.000000 71.286179,42.000000 
	C71.286179,44.975258 71.286179,47.382458 71.286179,49.719925 
	C98.318542,49.719925 125.063805,49.719925 151.713837,49.719925 
	C151.713837,47.024757 151.713837,44.617561 151.713837,42.000000 
	C131.785736,42.000000 112.142929,42.000000 91.500160,42.000000 
M136.000000,77.501831 
	C136.000000,90.915077 136.000000,104.328316 136.000000,117.997757 
	C141.365982,116.574364 144.499252,114.482452 144.154587,108.264854 
	C143.585419,97.997459 144.000000,87.675545 144.000000,77.376602 
	C144.000000,71.957863 144.000000,66.539131 144.000000,61.303780 
	C140.982941,61.303780 138.579575,61.303780 136.000000,61.303780 
	C136.000000,66.571869 136.000000,71.537598 136.000000,77.501831 
M80.911522,115.385117 
	C82.445427,115.992622 83.979332,116.600136 85.797150,117.320084 
	C85.797150,98.196159 85.797150,79.780350 85.797150,61.190346 
	C83.526459,61.190346 81.459412,61.190346 79.013596,61.190346 
	C79.013596,78.811638 79.005463,96.245598 79.059700,113.679375 
	C79.061073,114.123329 79.747894,114.565147 80.911522,115.385117 
M106.000000,96.501633 
	C106.000000,91.075172 106.000000,85.648712 106.000000,80.257393 
	C103.066833,80.257393 100.666145,80.257393 98.000000,80.257393 
	C98.000000,92.778290 98.364738,105.059189 97.848839,117.302986 
	C97.583878,123.591202 99.014671,127.637245 106.000000,128.802536 
	C106.000000,118.332481 106.000000,107.916862 106.000000,96.501633 
M117.000000,90.523697 
	C117.000000,102.953171 117.000000,115.382645 117.000000,127.861519 
	C124.109482,126.862038 124.997765,125.930786 124.999641,119.807602 
	C125.001320,114.323883 125.000000,108.840172 125.000000,103.356453 
	C125.000000,95.611275 125.000000,87.866096 125.000000,80.306900 
	C121.978638,80.306900 119.574570,80.306900 117.000000,80.306900 
	C117.000000,83.586494 117.000000,86.560669 117.000000,90.523697 
M105.563324,61.000000 
	C103.118759,61.000000 100.674202,61.000000 98.263481,61.000000 
	C98.263481,63.933544 98.263481,66.339523 98.263481,68.737038 
	C107.276970,68.737038 116.024857,68.737038 124.733109,68.737038 
	C124.733109,66.060211 124.733109,63.654041 124.733109,61.000000 
	C118.494850,61.000000 112.520012,61.000000 105.563324,61.000000 
z"/>
<path fill="#FFFFFF" opacity="1.000000" stroke="none" 
	d="
M316.592590,50.628258 
	C313.291565,50.946243 310.336823,50.946243 307.000793,50.946243 
	C307.000793,60.125607 307.000793,68.873695 307.000793,77.805008 
	C303.870667,77.805008 301.135132,77.805008 298.006470,77.805008 
	C298.006470,68.877480 298.006470,60.127220 298.006470,50.876175 
	C294.268280,50.876175 290.912292,50.876175 287.356781,50.876175 
	C285.910522,54.490288 283.510468,55.079735 278.691284,52.997936 
	C276.727478,52.149612 274.473450,51.973118 272.351471,51.490955 
	C272.159485,52.152607 271.967468,52.814262 271.775482,53.475914 
	C274.953308,54.648590 278.109955,55.883015 281.313446,56.980694 
	C287.401001,59.066597 289.039978,62.262695 287.996124,70.256973 
	C287.424957,74.631454 283.242004,77.873077 278.214203,78.016319 
	C271.149658,78.217598 264.064117,78.637657 258.141846,72.483009 
	C258.021576,74.858147 257.949432,76.282677 257.872284,77.805862 
	C248.933075,77.805862 240.168564,77.805862 230.854370,77.805862 
	C230.854370,67.789795 230.854370,57.953850 230.854370,48.117908 
	C230.449661,48.047211 230.044952,47.976517 229.640244,47.905819 
	C226.239334,57.849979 222.838425,67.794136 219.348007,78.000000 
	C218.203629,78.000000 216.851913,77.808983 215.573029,78.033234 
	C210.181686,78.978577 208.341629,76.423759 207.858017,71.353241 
	C207.575455,68.390709 205.880661,65.562881 204.821213,62.674446 
	C204.400772,62.763451 203.980331,62.852455 203.559875,62.941460 
	C202.379089,66.672630 200.755737,70.331917 200.134872,74.154045 
	C199.434509,78.465584 196.703384,77.961868 193.725204,78.054436 
	C190.678314,78.149124 188.824509,77.864388 187.827637,74.119530 
	C185.486404,65.324509 182.307312,56.754417 179.565140,48.062428 
	C179.099548,46.586567 179.120468,44.957230 178.887512,43.176342 
	C182.298264,43.176342 185.261887,43.176342 188.633728,43.176342 
	C190.183090,48.305805 191.787643,53.617962 193.392181,58.930115 
	C193.754669,59.047215 194.117142,59.164314 194.479614,59.281414 
	C195.653183,55.843803 197.048874,52.463223 197.949524,48.955536 
	C199.387543,43.355103 202.163986,41.464581 207.729202,43.105705 
	C208.668900,43.382812 209.580231,44.728642 209.955734,45.777256 
	C211.539566,50.200184 212.915558,54.697533 214.367584,59.167656 
	C214.787933,59.151169 215.208298,59.134682 215.628662,59.118195 
	C217.194931,53.851669 218.761200,48.585148 220.365417,43.190994 
	C232.736130,43.190994 245.170120,43.190994 257.801697,43.190994 
	C257.801697,45.784187 257.801697,48.187588 257.801697,50.982731 
	C251.890091,50.982731 246.130463,50.982731 240.193817,50.982731 
	C240.193817,52.774670 240.193817,54.177296 240.193817,55.969688 
	C245.402420,55.969688 250.497467,55.969688 255.788498,55.969688 
	C255.788498,58.758221 255.788498,61.162079 255.788498,63.960815 
	C250.584930,63.960815 245.490875,63.960815 240.207489,63.960815 
	C240.207489,65.752632 240.207489,67.155472 240.207489,68.780182 
	C246.575134,68.780182 252.859421,68.780182 259.587372,68.780182 
	C261.025360,63.552925 264.287415,64.367729 268.252991,66.598907 
	C271.093384,68.196999 274.094421,70.719574 277.866425,67.289307 
	C273.418396,65.260765 268.845245,63.605476 264.718262,61.188404 
	C259.062775,57.876106 259.581238,46.904503 265.503204,44.278446 
	C269.899994,42.328724 274.433685,41.243885 279.589569,42.698914 
	C282.690735,43.574085 285.996155,44.102268 289.898193,43.456001 
	C298.608612,42.013351 307.722229,43.005180 316.938873,43.005180 
	C316.938873,45.725475 316.938873,48.017872 316.592590,50.628258 
z"/>
<path fill="#FFFFFF" opacity="1.000000" stroke="none" 
	d="
M500.000000,55.055862 
	C500.618927,60.078369 498.816315,63.601177 495.729553,66.179420 
	C497.438599,69.789558 499.164307,73.434875 500.992828,77.297379 
	C493.351898,79.220238 488.471100,77.918251 485.815125,71.029457 
	C485.299194,69.691307 482.591858,69.198059 480.176025,67.940720 
	C480.176025,71.853676 480.176025,74.625099 480.176025,77.992119 
	C473.439087,77.992119 466.947784,78.488258 460.614746,77.704765 
	C458.583984,77.453537 456.971558,73.820465 454.647461,71.133003 
	C451.765015,71.133003 447.789276,71.133003 443.796753,71.133003 
	C440.616638,78.727005 440.616638,78.727005 430.391144,77.523117 
	C431.978424,73.208893 433.345825,69.005531 435.058990,64.948181 
	C437.738678,58.601879 440.866119,52.438904 443.396973,46.037395 
	C445.302795,41.216743 449.180023,43.157112 452.244568,43.202873 
	C453.602570,43.223152 455.470245,45.190861 456.178528,46.707855 
	C460.314545,55.566536 464.171631,64.555389 468.150848,73.487831 
	C468.251831,73.714523 468.674500,73.797920 469.545105,74.277618 
	C469.545105,63.869434 469.545105,53.759987 469.545105,43.013725 
	C477.371185,43.013725 484.646149,42.647209 491.862030,43.142323 
	C496.688751,43.473507 499.923126,48.690254 500.000000,55.055862 
M480.039825,51.822548 
	C480.039825,54.532612 480.039825,57.242672 480.039825,59.920143 
	C488.955688,60.089470 490.166534,59.201302 489.624817,52.563248 
	C486.722626,52.085846 483.640778,51.578888 480.039825,51.822548 
z"/>
<path fill="#FFFFFF" opacity="1.000000" stroke="none" 
	d="
M366.847748,67.428955 
	C363.159729,74.763725 357.963531,78.269211 349.675934,78.203346 
	C342.157684,78.143600 335.280823,77.325722 331.821075,70.103859 
	C327.321808,60.712112 328.676880,45.032078 343.723297,42.935417 
	C351.279022,41.882557 358.413879,42.185204 363.671356,48.319576 
	C368.294922,53.714314 368.929749,60.258766 366.847748,67.428955 
M352.318481,68.125916 
	C352.841736,67.753975 353.396088,67.418587 353.883392,67.004341 
	C358.014191,63.492737 358.416748,58.058739 354.835510,54.348904 
	C351.125671,50.505844 346.581696,50.499313 342.226196,54.330795 
	C338.773041,57.368496 338.738220,63.048935 342.964661,66.190262 
	C345.267181,67.901604 348.811584,67.942017 352.318481,68.125916 
z"/>
<path fill="#FFFFFF" opacity="1.000000" stroke="none" 
	d="
M544.669922,44.007317 
	C554.249390,48.294678 554.551941,56.372025 554.003479,64.826767 
	C553.595764,71.113281 549.387817,74.575981 544.397705,77.115463 
	C536.438049,81.166161 523.040833,77.290344 518.361450,69.883934 
	C511.898834,59.655033 518.725281,44.399742 530.655945,43.130207 
	C535.111572,42.656082 539.724915,43.663818 544.669922,44.007317 
M535.510437,51.004532 
	C533.857300,51.946388 532.221375,52.920147 530.547424,53.823494 
	C527.017700,55.728382 526.009216,58.743534 527.031982,62.398975 
	C528.186829,66.526283 531.277100,68.760826 535.382080,68.913261 
	C539.559814,69.068398 542.634521,66.280350 543.802490,62.730171 
	C544.928528,59.307598 544.026184,55.525150 540.545288,53.217552 
	C539.223816,52.341503 537.711975,51.752625 535.510437,51.004532 
z"/>
<path fill="#FFFFFF" opacity="1.000000" stroke="none" 
	d="
M371.001648,45.235100 
	C373.469482,42.091625 379.147247,42.135094 381.419098,45.004391 
	C384.056458,48.335331 386.531250,51.797253 389.010284,55.249939 
	C389.843292,56.410126 390.473083,57.716206 391.195770,58.955589 
	C391.743469,58.603970 392.291199,58.252346 392.838898,57.900723 
	C392.838898,53.054398 392.838898,48.208069 392.838898,43.194313 
	C396.132202,43.194313 398.868530,43.194313 401.802399,43.194313 
	C401.802399,54.799095 401.802399,66.209579 401.802399,77.537735 
	C395.076721,79.386803 390.460754,77.510414 387.421112,71.123489 
	C385.957336,68.047844 383.220795,65.577911 380.128723,61.649864 
	C380.128723,67.966072 380.128723,72.817268 380.128723,77.820877 
	C376.959564,77.820877 374.336700,77.820877 371.000183,77.820877 
	C371.000183,67.205750 371.000183,56.458874 371.001648,45.235100 
z"/>
<path fill="#FFFFFF" opacity="1.000000" stroke="none" 
	d="
M250.735016,109.654999 
	C250.057648,110.852570 249.435852,111.663116 249.192673,112.574669 
	C248.572708,114.898697 249.368271,117.770142 245.324051,118.111992 
	C241.184509,118.461899 238.881424,117.171829 238.131638,112.369225 
	C236.999344,118.640106 232.991943,118.588326 228.369553,117.752701 
	C226.143570,111.149269 223.863174,104.384453 221.460907,97.258087 
	C226.167313,97.026619 230.915634,95.150726 232.366409,102.285469 
	C233.152130,100.600815 233.937851,98.916153 234.778137,97.114471 
	C236.889191,97.114471 239.195572,97.114471 241.552231,97.114471 
	C242.213928,99.131943 242.848312,101.066139 243.714905,103.708344 
	C244.918060,101.108971 245.343155,98.255852 246.907364,97.332504 
	C248.615021,96.324478 251.377472,97.103378 254.514847,97.103378 
	C253.246979,101.462059 252.104996,105.388016 250.735016,109.654999 
z"/>
<path fill="#FFFFFF" opacity="1.000000" stroke="none" 
	d="
M432.592590,50.628258 
	C429.300781,50.946243 426.355286,50.946243 423.051880,50.946243 
	C423.051880,60.079945 423.051880,68.804520 423.051880,77.760269 
	C419.966064,77.760269 417.235718,77.760269 414.136780,77.760269 
	C414.136780,69.013115 414.136780,60.289963 414.136780,51.186050 
	C410.730774,51.186050 407.653870,51.186050 404.293762,51.186050 
	C404.293762,48.414139 404.293762,46.008434 404.293762,43.297981 
	C413.530182,43.297981 422.918793,43.297981 432.938873,43.297981 
	C432.938873,45.502731 432.938873,47.906502 432.592590,50.628258 
z"/>
<path fill="#FFFFFF" opacity="1.000000" stroke="none" 
	d="
M504.000000,52.039345 
	C504.000000,48.896893 504.000000,46.249134 504.000000,43.301456 
	C507.251312,43.301456 510.326691,43.301456 513.704224,43.301456 
	C513.704224,54.581264 513.704224,65.990036 513.704224,77.700500 
	C510.745117,77.700500 507.669769,77.700500 504.000000,77.700500 
	C504.000000,69.398003 504.000000,60.966019 504.000000,52.039345 
z"/>
<path fill="#FFFFFF" opacity="1.000000" stroke="none" 
	d="
M198.000870,115.285110 
	C200.192047,109.554947 202.335281,104.233559 204.596924,98.962982 
	C205.508072,96.839645 212.891220,95.810623 213.824570,97.832153 
	C216.742386,104.151886 219.233978,110.668404 222.240891,117.957390 
	C217.727905,117.527733 214.287033,119.700912 211.713440,115.598412 
	C211.315048,114.963341 207.389709,115.768463 205.735443,116.869316 
	C203.059189,118.650238 199.284302,118.448242 198.000870,115.285110 
z"/>
<path fill="#FFFFFF" opacity="1.000000" stroke="none" 
	d="
M317.846771,97.000000 
	C319.978027,97.000000 321.635864,97.000000 323.215210,97.000000 
	C329.201874,107.713104 326.582428,112.535118 314.234955,113.211311 
	C314.114197,114.580551 313.989075,115.999466 313.838196,117.710258 
	C311.774567,117.710258 309.687286,117.710258 307.000000,117.710258 
	C307.000000,114.457947 307.000000,111.025833 307.000000,107.593727 
	C307.000000,104.279274 307.000000,100.964821 307.000000,97.000000 
	C310.539612,97.000000 313.956482,97.000000 317.846771,97.000000 
z"/>
<path fill="#FFFFFF" opacity="1.000000" stroke="none" 
	d="
M186.080292,118.000000 
	C184.165146,118.000000 182.732498,118.000000 181.195206,118.000000 
	C181.195206,110.802063 181.195206,104.092110 181.195206,97.191925 
	C183.448868,97.191925 185.508392,97.191925 187.931152,97.191925 
	C187.931152,102.050507 187.931152,106.783783 187.931152,111.876953 
	C190.672180,111.876953 193.079971,111.876953 195.736115,111.876953 
	C195.736115,113.978561 195.736115,115.715561 195.736115,118.000000 
	C192.749008,118.000000 189.655914,118.000000 186.080292,118.000000 
z"/>
<path fill="#FFFFFF" opacity="1.000000" stroke="none" 
	d="
M269.000000,103.093254 
	C269.000000,100.834381 269.000000,99.062119 269.000000,97.148453 
	C271.410126,97.148453 273.359436,97.148453 275.838013,97.148453 
	C275.838013,101.890678 275.838013,106.747604 275.838013,111.955650 
	C278.756927,111.955650 281.158661,111.955650 283.776733,111.955650 
	C283.776733,114.052849 283.776733,115.787231 283.776733,117.762283 
	C279.019623,117.762283 274.292450,117.762283 269.000000,117.762283 
	C269.000000,113.052406 269.000000,108.316132 269.000000,103.093254 
z"/>
<path fill="#FFFFFF" opacity="1.000000" stroke="none" 
	d="
M302.997375,115.956520 
	C302.033325,116.949005 301.090576,117.881638 300.106293,117.927704 
	C296.310333,118.105408 292.501129,117.999825 288.348572,117.999825 
	C288.348572,111.086632 288.348572,104.255363 288.348572,97.209335 
	C290.418732,97.209335 292.479126,97.209335 294.906372,97.209335 
	C294.906372,102.019691 294.906372,106.755325 294.906372,110.807159 
	C297.237488,113.990936 303.377472,108.459785 302.997375,115.956520 
z"/>
<path fill="#000000" opacity="1.000000" stroke="none" 
	d="
M92.000137,42.000000 
	C112.142929,42.000000 131.785736,42.000000 151.713837,42.000000 
	C151.713837,44.617561 151.713837,47.024757 151.713837,49.719925 
	C125.063805,49.719925 98.318542,49.719925 71.286179,49.719925 
	C71.286179,47.382458 71.286179,44.975258 71.286179,42.000000 
	C77.952286,42.000000 84.726219,42.000000 92.000137,42.000000 
z"/>
<path fill="#000000" opacity="1.000000" stroke="none" 
	d="
M136.000000,77.002579 
	C136.000000,71.537598 136.000000,66.571869 136.000000,61.303780 
	C138.579575,61.303780 140.982941,61.303780 144.000000,61.303780 
	C144.000000,66.539131 144.000000,71.957863 144.000000,77.376602 
	C144.000000,87.675545 143.585419,97.997459 144.154587,108.264854 
	C144.499252,114.482452 141.365982,116.574364 136.000000,117.997757 
	C136.000000,104.328316 136.000000,90.915077 136.000000,77.002579 
z"/>
<path fill="#000000" opacity="1.000000" stroke="none" 
	d="
M80.513275,115.196541 
	C79.747894,114.565147 79.061073,114.123329 79.059700,113.679375 
	C79.005463,96.245598 79.013596,78.811638 79.013596,61.190346 
	C81.459412,61.190346 83.526459,61.190346 85.797150,61.190346 
	C85.797150,79.780350 85.797150,98.196159 85.797150,117.320084 
	C83.979332,116.600136 82.445427,115.992622 80.513275,115.196541 
z"/>
<path fill="#000000" opacity="1.000000" stroke="none" 
	d="
M106.000000,97.001442 
	C106.000000,107.916862 106.000000,118.332481 106.000000,128.802536 
	C99.014671,127.637245 97.583878,123.591202 97.848839,117.302986 
	C98.364738,105.059189 98.000000,92.778290 98.000000,80.257393 
	C100.666145,80.257393 103.066833,80.257393 106.000000,80.257393 
	C106.000000,85.648712 106.000000,91.075172 106.000000,97.001442 
z"/>
<path fill="#000000" opacity="1.000000" stroke="none" 
	d="
M117.000000,90.029266 
	C117.000000,86.560669 117.000000,83.586494 117.000000,80.306900 
	C119.574570,80.306900 121.978638,80.306900 125.000000,80.306900 
	C125.000000,87.866096 125.000000,95.611275 125.000000,103.356453 
	C125.000000,108.840172 125.001320,114.323883 124.999641,119.807602 
	C124.997765,125.930786 124.109482,126.862038 117.000000,127.861519 
	C117.000000,115.382645 117.000000,102.953171 117.000000,90.029266 
z"/>
<path fill="#000000" opacity="1.000000" stroke="none" 
	d="
M106.054253,61.000000 
	C112.520012,61.000000 118.494850,61.000000 124.733109,61.000000 
	C124.733109,63.654041 124.733109,66.060211 124.733109,68.737038 
	C116.024857,68.737038 107.276970,68.737038 98.263481,68.737038 
	C98.263481,66.339523 98.263481,63.933544 98.263481,61.000000 
	C100.674202,61.000000 103.118759,61.000000 106.054253,61.000000 
z"/>
<path fill="#000000" opacity="1.000000" stroke="none" 
	d="
M480.299377,51.447243 
	C483.640778,51.578888 486.722626,52.085846 489.624817,52.563248 
	C490.166534,59.201302 488.955688,60.089470 480.039825,59.920143 
	C480.039825,57.242672 480.039825,54.532612 480.299377,51.447243 
z"/>
<path fill="#000000" opacity="1.000000" stroke="none" 
	d="
M352.057190,68.430969 
	C348.811584,67.942017 345.267181,67.901604 342.964661,66.190262 
	C338.738220,63.048935 338.773041,57.368496 342.226196,54.330795 
	C346.581696,50.499313 351.125671,50.505844 354.835510,54.348904 
	C358.416748,58.058739 358.014191,63.492737 353.883392,67.004341 
	C353.396088,67.418587 352.841736,67.753975 352.057190,68.430969 
z"/>
<path fill="#000000" opacity="1.000000" stroke="none" 
	d="
M535.898682,51.018696 
	C537.711975,51.752625 539.223816,52.341503 540.545288,53.217552 
	C544.026184,55.525150 544.928528,59.307598 543.802490,62.730171 
	C542.634521,66.280350 539.559814,69.068398 535.382080,68.913261 
	C531.277100,68.760826 528.186829,66.526283 527.031982,62.398975 
	C526.009216,58.743534 527.017700,55.728382 530.547424,53.823494 
	C532.221375,52.920147 533.857300,51.946388 535.898682,51.018696 
z"/>
</svg>