<?xml version="1.0" encoding="utf-8"?>
<!-- Generator: Adobe Illustrator 24.3.0, SVG Export Plug-In . SVG Version: 6.00 Build 0)  -->
<svg version="1.1" id="Layer_1" xmlns="http://www.w3.org/2000/svg" xmlns:xlink="http://www.w3.org/1999/xlink" x="0px" y="0px"
	 viewBox="0 0 600 170" style="enable-background:new 0 0 600 170;" xml:space="preserve">
<style type="text/css">
	.st0{fill:#FFFFFF;}
</style>
<polygon class="st0" points="27.8,82 27.8,123.6 32,126 44.8,133.4 48.9,135.8 61.8,143.2 61.8,158 48.9,150.6 44.8,148.2 32,140.8 
	27.8,138.4 15,131 15,74.6 27.8,67.2 32,64.8 44.8,57.4 48.9,55 61.8,47.6 61.8,62.4 48.9,69.8 44.8,72.2 32,79.6 "/>
<polygon class="st0" points="61.8,58.4 61.8,77.2 48.9,84.7 48.9,65.8 "/>
<polygon class="st0" points="61.8,128.4 61.8,147.2 48.9,139.8 48.9,120.9 "/>
<polygon class="st0" points="78.7,55 78.7,150.6 65.9,158 65.9,47.6 "/>
<polygon class="st0" points="95.7,64.8 95.7,140.8 82.9,148.2 82.9,57.4 "/>
<polygon class="st0" points="112.7,74.6 112.7,131 99.8,138.4 99.8,67.2 "/>
<polygon class="st0" points="112.7,40.2 112.7,69.8 99.8,62.4 95.7,60 82.9,52.6 78.7,50.2 65.9,42.8 65.9,42.8 63.8,41.6 
	61.8,42.8 61.8,42.8 48.9,50.2 44.8,52.6 32,60 27.8,62.4 15,69.8 15,40.2 27.8,32.8 27.8,47.6 32,45.2 44.8,37.8 48.9,35.4 
	48.9,20.6 61.8,13.2 63.8,12 65.9,13.2 78.7,20.6 78.7,35.4 82.9,37.8 95.7,45.2 99.8,47.6 99.8,32.8 "/>
<path class="st0" d="M168.2,64.6l0.4,8.6c-0.8,1.3-1.8,2.4-2.9,3.3c-1.4,1.1-2.9,1.9-4.6,2.4c-2.1,0.7-4.3,1-6.5,0.9
	c-3.7,0.1-7.3-0.7-10.6-2.2c-2.9-1.3-5.4-3.5-7.1-6.2c-1.7-3-2.6-6.4-2.5-9.8c-0.1-3.4,0.8-6.7,2.4-9.7c1.7-2.7,4.1-4.9,7-6.3
	c3.4-1.5,7.2-2.3,10.9-2.2c2.4,0,4.8,0.2,7.2,0.8c1.8,0.4,3.6,1.1,5.3,2l0.1,8.5h-0.4c-0.9-3.3-2.4-5.6-4.4-7.1
	c-2.1-1.4-4.6-2.2-7.1-2.1c-2.4-0.1-4.8,0.6-6.8,2c-2,1.4-3.5,3.3-4.4,5.5c-1.1,2.7-1.6,5.6-1.5,8.5c-0.1,2.9,0.4,5.8,1.4,8.5
	c0.8,2.2,2.3,4.2,4.2,5.6c1.9,1.4,4.1,2.1,6.4,2.1c2.2,0.1,4.4-0.4,6.5-1.2c1.8-0.9,3.3-2.3,4.3-4.2c1.2-2.4,2.1-5.1,2.4-7.8H168.2z
	"/>
<path class="st0" d="M178.6,75.9c-0.4,0.7-0.3,1.5,0.2,2.1c0.4,0.4,1,0.7,1.6,0.7h0.4v0.5h-10v-0.5h0.4c0.7,0,1.5-0.2,2.1-0.6
	c0.8-0.5,1.4-1.3,1.8-2.2L178.6,75.9z M188,47.9l0.1,6l-10.8,25.1h-3.7L185.3,54c0.1-0.2,0.2-0.6,0.4-1.1c0.2-0.5,0.5-1.1,0.8-1.7
	s0.5-1.3,0.8-1.8c0.2-0.4,0.3-0.9,0.4-1.4L188,47.9z M192.4,69.4v1.9h-12.7v-1.9H192.4z M188,47.9l14.8,31h-8.4L185.1,57L188,47.9z
	 M193.1,75.9h8.2c0.4,0.9,1,1.6,1.9,2.2c0.6,0.4,1.4,0.6,2.1,0.6h0.4v0.5H191v-0.5h0.4c0.6,0,1.2-0.3,1.6-0.7
	C193.5,77.4,193.5,76.6,193.1,75.9L193.1,75.9z"/>
<path class="st0" d="M217.7,48.6c0.7,0,1.5,0,2.4,0.1l2.8,0.2c0.9,0.1,1.8,0.2,2.5,0.3c0.5,0.1,1,0.2,1.5,0.3l-0.6,6.1h-0.4
	c0.1-1.4-0.5-2.7-1.6-3.6c-1.3-1-2.9-1.5-4.6-1.3c-1.4-0.1-2.7,0.3-3.9,1c-0.9,0.6-1.5,1.7-1.6,2.8c-0.1,0.6,0,1.1,0.3,1.6
	c0.3,0.5,0.7,0.9,1.2,1.3c0.5,0.4,1.1,0.7,1.7,1.1l7.8,4.8c1.3,0.6,2.4,1.6,3.1,2.9c0.8,1.4,1.1,3,1,4.6c-0.1,1.7-0.6,3.4-1.6,4.8
	c-1,1.4-2.4,2.5-4,3.1c-1.9,0.8-4,1.1-6.1,1.1c-1.3,0-2.7-0.1-4-0.3c-1.1-0.2-2.2-0.5-3.2-1c-0.7-0.3-1.4-0.8-2-1.3
	c-0.3-0.8-0.4-1.6-0.4-2.4c0-0.9,0.2-1.8,0.4-2.7c0.2-0.8,0.6-1.6,1-2.4h0.4c-0.1,1.4,0.2,2.9,0.8,4.1c0.6,1.3,1.6,2.3,2.9,3
	c1.4,0.8,3,1.2,4.6,1.1c1.6,0.1,3.1-0.4,4.3-1.3c0.9-0.8,1.4-2,1.4-3.2c0-0.9-0.3-1.7-0.9-2.4c-0.8-0.9-1.8-1.6-2.9-2.1l-7.1-4.5
	c-1.5-0.7-2.8-2-3.6-3.5c-0.8-1.4-1-3.1-0.8-4.7c0.1-1.5,0.6-2.9,1.4-4.1c0.8-1.1,1.9-2,3.1-2.6C214.7,48.9,216.2,48.6,217.7,48.6z
	 M226.9,49.1V50h-5.3v-0.9H226.9z"/>
<path class="st0" d="M232.5,48.5l1.3,0.3c0.6,0.1,1.3,0.3,1.9,0.3c0.7,0.1,1.3,0.1,2,0.1l-5.2,0.5L232.5,48.5z M261.4,49.2v2h-28.9
	v-2H261.4z M237.6,51.1v0.2c-1.3-0.1-2.5,0.4-3.4,1.3c-0.8,0.9-1.2,2.1-1.2,3.4v0.5h-0.6v-5.3L237.6,51.1z M243.4,76.1v3.1h-3.3
	v-0.5h0.6c0.7,0,1.4-0.3,1.9-0.8C243,77.4,243.3,76.8,243.4,76.1L243.4,76.1z M250.5,49.4v29.8h-7.2V49.4L250.5,49.4z M250.4,76.1
	h0.1c0,0.7,0.3,1.4,0.8,1.9c0.5,0.5,1.2,0.8,1.9,0.8h0.6v0.5h-3.4V76.1z M261.4,48.4v1.2l-5.2-0.5c0.7,0,1.4,0,2-0.1
	c0.7-0.1,1.4-0.2,2-0.3C260.6,48.7,261,48.6,261.4,48.4L261.4,48.4z M261.4,51v5.3h-0.5v-0.4c0.1-1.2-0.3-2.5-1.2-3.4
	c-0.9-0.9-2.1-1.3-3.4-1.3v-0.2L261.4,51z"/>
<path class="st0" d="M268.5,52.4h-0.1c0-0.7-0.3-1.4-0.8-1.9c-0.5-0.5-1.2-0.8-1.9-0.8H265v-0.5h3.5V52.4z M268.5,76.1l0.2,3.1H265
	v-0.5h0.6c0.7,0,1.4-0.3,1.9-0.8c0.5-0.5,0.8-1.2,0.8-1.9H268.5z M275.5,49.3v29.9h-7.2v-30L275.5,49.3z M275.4,52.4v-3.2h3.4v0.5
	h-0.6c-0.7,0-1.4,0.3-1.9,0.8c-0.5,0.5-0.8,1.2-0.8,1.9L275.4,52.4z M287.1,77.2l1.2,2h-12.9v-2H287.1z M290.5,70l-2,9.2h-8.6l1.5-2
	c1.3,0,2.6-0.3,3.8-0.9c1.1-0.6,2.1-1.4,2.9-2.5c0.8-1.1,1.5-2.4,1.9-3.8H290.5z"/>
<path class="st0" d="M296.5,52.4h-0.1c0-0.7-0.3-1.4-0.8-1.9c-0.5-0.5-1.2-0.8-1.9-0.8H293v-0.5h3.7L296.5,52.4z M296.5,76.1
	l0.2,3.1H293v-0.5h0.6c0.7,0,1.4-0.3,1.9-0.8c0.5-0.5,0.8-1.2,0.8-1.9H296.5z M303.5,49.3v29.9h-7.2v-30L303.5,49.3z M315.7,49.3v2
	h-12.3v-2H315.7z M313.4,63.4v2h-10v-2L313.4,63.4z M315.1,77.2l1.1,2h-12.9v-2H315.1z M318.4,70l-1.9,9.2h-8.6l1.5-2
	c1.3,0,2.6-0.3,3.8-0.9c1.1-0.6,2.1-1.5,2.9-2.5c0.8-1.2,1.5-2.4,1.8-3.8H318.4z M313.5,59.1v4.4h-4.3v-0.1c1.1,0,2.1-0.4,2.8-1.2
	c0.7-0.8,1-1.8,1-2.8v-0.4H313.5z M313.5,65.3v4.4H313v-0.4c0-1-0.3-2-1-2.8c-0.7-0.8-1.7-1.2-2.8-1.1v-0.1H313.5z M315.7,48.5v1.2
	l-5.2-0.5c1,0,2-0.1,3-0.3C314.2,48.9,315,48.7,315.7,48.5z M315.7,51.2v5.3h-0.5V56c0.1-1.3-0.4-2.5-1.2-3.4
	c-0.9-0.9-2.1-1.3-3.4-1.3v-0.1L315.7,51.2z"/>
<path class="st0" d="M324.9,76v3.2H320v-0.5h0.6c0.8,0,1.5-0.2,2.2-0.7c0.6-0.5,1.1-1.2,1.2-2H324.9z M327.8,48.6h0.4l1.7,4.8
	l-3.1,25.8h-3.2L327.8,48.6z M327.1,76.7c0,0.4,0.1,0.9,0.3,1.3c0.3,0.5,0.8,0.8,1.4,0.7h0.7v0.5h-3l0.3-2.5H327.1z M328.2,48.6
	L343,70.7l-2.7,9.4L327,60L328.2,48.6z M355.6,48.6l0.4,5.2l-13.4,21.3c-0.5,0.9-0.9,1.8-1.3,2.8c-0.3,0.7-0.4,1.5-0.5,2.3h-0.5
	l-1.9-4.1L355.6,48.6z M352.5,76.7h0.3l0.3,2.5h-3v-0.5h0.7c0.6,0.1,1.2-0.2,1.4-0.7C352.4,77.6,352.5,77.2,352.5,76.7L352.5,76.7z
	 M356.1,48.6l4.4,30.6h-7.6L350.4,61l5.2-12.4L356.1,48.6z M359,76h1c0.1,0.8,0.5,1.5,1.2,2c0.6,0.5,1.3,0.7,2.1,0.7h0.7v0.5H359V76
	z"/>
<path class="st0" d="M383.6,48.6c2.5,0,4.9,0.3,7.2,1.1c2.1,0.7,4,1.7,5.6,3.1c1.6,1.4,2.8,3,3.6,4.9c0.9,2.1,1.3,4.3,1.3,6.5
	c0,2.2-0.4,4.4-1.3,6.5c-0.8,1.9-2.1,3.6-3.6,4.9c-1.6,1.4-3.5,2.5-5.6,3.1c-2.3,0.7-4.8,1.1-7.2,1.1c-2.4,0-4.9-0.3-7.2-1.1
	c-2.1-0.7-4-1.7-5.6-3.1c-1.6-1.3-2.8-3-3.6-4.9c-0.9-2-1.3-4.2-1.3-6.5c0-2.2,0.4-4.5,1.2-6.5c0.8-1.9,2-3.6,3.6-4.9
	c1.6-1.4,3.5-2.5,5.6-3.1C378.8,48.9,381.2,48.6,383.6,48.6z M383.6,77.9c1.9,0,3.8-0.5,5.4-1.7c1.6-1.2,2.8-2.8,3.5-4.7
	c0.9-2.3,1.3-4.8,1.2-7.2c0-2.5-0.4-5-1.2-7.3c-0.7-1.9-1.9-3.5-3.5-4.8c-1.5-1.1-3.4-1.7-5.3-1.7c-1.9,0-3.7,0.6-5.2,1.7
	c-1.6,1.2-2.8,2.9-3.5,4.8c-0.9,2.3-1.3,4.8-1.2,7.3c-0.1,2.5,0.4,4.9,1.2,7.2c0.7,1.9,1.9,3.5,3.5,4.7
	C379.9,77.4,381.8,77.9,383.6,77.9z"/>
<path class="st0" d="M408.9,52.4h-0.1c0-0.7-0.3-1.4-0.8-1.9c-0.5-0.5-1.1-0.7-1.8-0.7h-0.6v-0.5h3.6L408.9,52.4z M408.9,76.1
	l0.2,3.1h-3.6v-0.5h0.6c0.7,0,1.4-0.3,1.9-0.8c0.5-0.5,0.8-1.2,0.8-1.9H408.9z M416,49.3v30h-7.2v-30H416z M420.8,49.3
	c1.4,0,2.7,0.1,4,0.4c1.2,0.2,2.4,0.7,3.5,1.3c1,0.6,1.9,1.5,2.5,2.5c0.7,1.2,1,2.6,0.9,3.9c0,1.2-0.3,2.4-0.7,3.5
	c-0.5,1.2-1.3,2.2-2.2,3c-1.2,0.9-2.5,1.5-4,1.7c1,0.4,2,0.9,2.8,1.7c0.8,0.7,1.4,1.6,2,2.4c0.2,0.3,0.4,0.7,0.8,1.3s0.8,1.2,1.3,2
	l1.6,2.3c0.5,0.7,1.1,1.4,1.8,2.1c0.4,0.4,1,0.8,1.5,1c0.6,0.2,1.2,0.3,1.8,0.3v0.5h-4.2c-1.5,0-3.1-0.1-4.6-0.4
	c-1.2-0.2-2.3-0.7-3.2-1.5c-1-0.8-1.9-1.8-2.5-2.9c-0.3-0.5-0.7-1-1-1.6c-0.3-0.6-0.7-1.2-1-1.9s-0.6-1.2-0.9-1.8
	c-0.2-0.5-0.4-1-0.5-1.5c-0.3-0.9-0.8-1.7-1.5-2.3c-0.4-0.4-0.9-0.7-1.5-0.7v-0.4h1.2c0.7,0,1.4-0.1,2.1-0.4
	c0.7-0.3,1.4-0.8,1.9-1.4c0.7-0.9,1.1-2,1.3-3.2c0.1-0.3,0.1-0.6,0.2-0.8c0-0.4,0-0.8,0-1.2c0-1-0.2-2-0.7-2.9
	c-0.3-0.7-0.8-1.3-1.4-1.7c-0.5-0.4-1.1-0.7-1.7-0.8c-0.5-0.1-1-0.2-1.5-0.2c-0.6,0-1.2,0-1.7,0c-0.4,0-0.8,0-1.2,0
	c0,0-0.1-0.2-0.1-0.5s-0.2-0.9-0.3-1.5L420.8,49.3z M415.9,76.1h0.1c0,0.8,0.3,1.5,0.9,1.9c0.5,0.4,1.2,0.7,1.8,0.7h0.5v0.5h-3.6
	L415.9,76.1z"/>
<path class="st0" d="M442.5,52.4h-0.1c0-0.7-0.3-1.4-0.8-1.9c-0.5-0.5-1.2-0.8-1.9-0.8H439v-0.5h3.7L442.5,52.4z M442.5,76.1
	l0.2,3.1H439v-0.5h0.6c0.7,0,1.4-0.3,1.9-0.8c0.5-0.5,0.8-1.2,0.8-1.9H442.5z M449.5,49.3v29.9h-7.2v-30L449.5,49.3z M461.7,49.3v2
	h-12.3v-2H461.7z M459.5,63.4v2h-10.1v-2L459.5,63.4z M461.2,77.2l1.1,2h-12.9v-2H461.2z M464.4,70l-1.9,9.2h-8.6l1.5-2
	c1.3,0,2.6-0.3,3.8-0.9c1.1-0.6,2.1-1.4,2.9-2.5c0.9-1.2,1.5-2.5,1.9-3.8L464.4,70z M459.5,59.1v4.4h-4.3v-0.1c1,0,2.1-0.4,2.8-1.2
	c0.7-0.8,1-1.8,1-2.8v-0.4H459.5z M459.5,65.3v4.4H459v-0.4c0-1-0.3-2-1-2.8c-0.7-0.8-1.7-1.2-2.8-1.1v-0.1H459.5z M461.8,48.5v1.2
	l-5.2-0.5c1,0,2-0.1,3-0.3C460.3,48.9,461,48.7,461.8,48.5L461.8,48.5z M461.8,51.2v5.3h-0.5V56c0.1-1.3-0.3-2.5-1.2-3.4
	c-0.9-0.9-2.1-1.4-3.4-1.3v-0.1L461.8,51.2z"/>
<path class="st0" d="M486,47.9h-0.1c0-0.8-0.4-1.6-1-2.2c-0.6-0.6-1.4-0.9-2.2-0.9H482v-0.5h4V47.9z M486,75.6v3.6h-4v-0.5h0.6
	c0.8,0,1.6-0.3,2.2-0.9c0.6-0.6,1-1.4,1-2.2H486z M493.3,44.3v34.9h-7.5V44.3H493.3z M493.2,47.9v-3.7h4v0.5h-0.6
	c-0.8,0-1.6,0.3-2.2,0.9c-0.6,0.6-1,1.4-1,2.2L493.2,47.9z M506.5,77.1l1.2,2.1h-14.5v-2.1H506.5z M510.2,69.1l-2.3,10.2h-9.8
	l1.8-2.1c1.5,0,3-0.3,4.4-1c1.3-0.7,2.4-1.6,3.2-2.8c0.9-1.3,1.7-2.8,2.1-4.3L510.2,69.1z"/>
<path class="st0" d="M518.3,75.9c-0.4,0.7-0.3,1.5,0.2,2.1c0.4,0.4,0.9,0.7,1.5,0.7h0.4v0.5h-10v-0.5h0.4c0.7,0,1.5-0.2,2.1-0.6
	c0.8-0.5,1.4-1.3,1.8-2.2H518.3z M527.7,47.9l0.1,6l-10.8,25.1h-3.7L524.9,54c0.1-0.2,0.2-0.6,0.5-1.1c0.2-0.5,0.5-1.1,0.8-1.7
	s0.5-1.3,0.8-1.8c0.2-0.4,0.3-0.9,0.4-1.4L527.7,47.9z M532,69.4v1.9h-12.7v-1.9H532z M527.7,47.9l14.8,31H534L524.7,57L527.7,47.9z
	 M532.8,75.9h8.2c0.4,0.9,1,1.6,1.8,2.2c0.6,0.4,1.4,0.6,2.1,0.6h0.4v0.5h-14.7v-0.5h0.4c0.6,0,1.2-0.3,1.5-0.7
	C533.1,77.4,533.1,76.6,532.8,75.9L532.8,75.9z"/>
<path class="st0" d="M551.4,52.5h-7.7c-0.6-1.7-2.1-2.8-3.9-2.8h-0.4v-0.5h14v0.5H553c-0.5,0-1.1,0.2-1.4,0.7
	C551.1,50.8,551.1,51.5,551.4,52.5z M542.5,49.6h7.7l6.7,17.8l-2.8,12.4L542.5,49.6z M564.8,48.6l0.9,4.6l-9.9,21.6
	c-0.4,1-0.7,1.9-0.8,2.7c-0.2,0.8-0.3,1.6-0.3,2.4h-0.5l-1.3-5.5l11.6-25.7L564.8,48.6z M564.8,48.6l9.8,19.7l-2.3,11.5l-10.7-21.6
	L564.8,48.6z M581.7,49.6l-8.2,25.2c-0.3,0.9-0.5,1.8-0.7,2.8c-0.1,0.7-0.2,1.5-0.2,2.3h-0.5l-1.3-4.5l7.6-25.7H581.7z M577.6,52.5
	c0.3-0.7,0.2-1.5-0.2-2.1c-0.4-0.4-0.9-0.7-1.4-0.7h-0.4v-0.5h9.4v0.5h-0.3c-0.8,0-1.6,0.3-2.3,0.7c-0.8,0.5-1.3,1.2-1.6,2.1H577.6z
	"/>
<path class="st0" d="M202.2,106c0.3,0,0.7,0,1,0.1c0.3,0,0.7,0.1,1,0.2l0.9,0.2c0.2,0.1,0.4,0.1,0.6,0.2v3.1h-0.2
	c0-0.8-0.3-1.6-0.9-2.1c-1.4-1.1-3.4-1-4.8,0.2c-0.6,0.6-1,1.4-0.9,2.3c0,0.4,0.1,0.8,0.2,1.2c0.2,0.5,0.5,1,0.9,1.3l5.5,5.1
	c0.5,0.5,0.9,1,1.1,1.7c0.2,0.6,0.3,1.1,0.3,1.7c0.1,1.4-0.5,2.8-1.4,3.8c-1,1-2.4,1.5-3.8,1.5c-0.5,0-1.1-0.1-1.6-0.1
	c-0.6-0.1-1.2-0.3-1.8-0.5c-0.5-0.2-1-0.5-1.4-0.9c-0.1-0.4-0.1-0.7-0.1-1.1c0-0.5,0-1,0.1-1.4c0.1-0.5,0.2-0.9,0.3-1.4h0.2
	c-0.1,0.9,0,1.7,0.4,2.5c0.3,0.7,0.8,1.2,1.5,1.6c0.7,0.4,1.4,0.5,2.2,0.5c1,0,1.9-0.4,2.6-1.1c0.7-0.7,1.2-1.7,1.1-2.7
	c0-0.5-0.1-1-0.3-1.5c-0.2-0.4-0.5-0.8-0.8-1.1l-5.4-5c-0.5-0.5-0.9-1.1-1.2-1.7c-0.2-0.6-0.3-1.2-0.3-1.8c0-0.8,0.2-1.6,0.6-2.3
	c0.4-0.7,1-1.4,1.7-1.8C200.3,106.2,201.2,106,202.2,106z M205.7,106.3v0.6h-2.1v-0.6H205.7z"/>
<path class="st0" d="M217.4,111L217.4,111c0-0.4-0.2-0.8-0.5-1.1c-0.3-0.3-0.7-0.4-1.1-0.4h-0.4v-0.3h2.4L217.4,111z M217.4,124.3
	l0.4,1.8h-2.4v-0.3h0.4C216.6,125.8,217.3,125.1,217.4,124.3L217.4,124.3z M219.2,109.3V126h-1.8v-16.8L219.2,109.3z M226.7,109.3
	v0.9h-7.6v-0.9H226.7z M225.4,117.3v0.7h-6.3v-0.8L225.4,117.3z M226.7,125.3l-0.1,0.9h-7.6v-0.9H226.7z M228.3,122l-1.6,4h-4.3
	l1-0.9c0.8,0,1.5-0.1,2.3-0.4c0.5-0.3,1-0.6,1.4-1.1c0.3-0.5,0.6-1,0.9-1.6H228.3z M226.7,108.7v0.7l-3.2-0.3c0.6,0,1.2-0.1,1.9-0.2
	C225.8,108.9,226.3,108.9,226.7,108.7L226.7,108.7z M225.4,115.6v1.6h-1.5v-0.1c0.3,0,0.7-0.1,0.9-0.3c0.2-0.2,0.3-0.5,0.3-0.8v-0.4
	H225.4z M225.4,117.9v1.6h-0.3v-0.4c0-0.3-0.1-0.6-0.3-0.8c-0.2-0.3-0.5-0.4-0.9-0.3v0L225.4,117.9z M226.7,109.9v1.9h-0.3v-0.4
	c0-0.4-0.1-0.7-0.4-1c-0.3-0.3-0.6-0.4-1-0.4V110L226.7,109.9z"/>
<path class="st0" d="M234.9,108.7c0.3,0.1,0.5,0.1,0.8,0.2c0.4,0.1,0.7,0.1,1.2,0.2c0.4,0,0.8,0.1,1.2,0.1l-3.1,0.3V108.7z
	 M250.3,109.1v0.9h-15.4v-0.8L250.3,109.1z M236.6,109.9L236.6,109.9c-0.4,0-0.7,0.2-1,0.4c-0.3,0.3-0.4,0.6-0.4,1v0.4h-0.3v-1.9
	L236.6,109.9z M241.7,124.2v1.8h-2v-0.3h0.3c0.4,0,0.8-0.2,1.1-0.4C241.5,125,241.6,124.6,241.7,124.2L241.7,124.2z M243.5,109.2
	V126h-1.8v-16.7L243.5,109.2z M243.4,124.2L243.4,124.2c0.1,0.4,0.3,0.8,0.6,1.1c0.3,0.3,0.7,0.5,1.1,0.4h0.3v0.3h-2.1L243.4,124.2z
	 M250.3,108.7v0.7l-3.1-0.3c0.4,0,0.8,0,1.2-0.1c0.4,0,0.8-0.1,1.2-0.2C249.8,108.8,250.1,108.8,250.3,108.7L250.3,108.7z
	 M250.3,109.9v1.9H250v-0.4c0-0.4-0.1-0.7-0.4-1c-0.3-0.3-0.6-0.4-1-0.4l0,0L250.3,109.9z"/>
<path class="st0" d="M256.9,108.7c0.2,0.1,0.4,0.1,0.8,0.2s0.7,0.1,1.2,0.2c0.4,0,0.8,0.1,1.2,0.1l-3.1,0.3V108.7z M272.3,109.1v0.9
	h-15.4v-0.8L272.3,109.1z M258.6,109.9L258.6,109.9c-0.4,0-0.7,0.2-1,0.4c-0.3,0.3-0.4,0.6-0.4,1v0.4h-0.3v-1.9L258.6,109.9z
	 M263.8,124.2v1.8h-2.1v-0.3h0.3c0.4,0,0.8-0.2,1.1-0.4c0.3-0.3,0.5-0.7,0.5-1.1L263.8,124.2z M265.5,109.2V126h-1.8v-16.7
	L265.5,109.2z M265.4,124.2L265.4,124.2c0.1,0.4,0.3,0.8,0.6,1.1c0.3,0.3,0.7,0.5,1.2,0.4h0.3v0.3h-2.1V124.2z M272.3,108.7v0.7
	l-3.1-0.3c0.4,0,0.8,0,1.2-0.1c0.4,0,0.8-0.1,1.2-0.2C271.8,108.8,272.1,108.8,272.3,108.7L272.3,108.7z M272.3,109.9v1.9H272v-0.4
	c0-0.4-0.1-0.7-0.4-1c-0.3-0.3-0.6-0.4-1-0.4l0,0L272.3,109.9z"/>
<path class="st0" d="M281.7,111L281.7,111c-0.1-0.4-0.2-0.8-0.6-1.1c-0.3-0.3-0.7-0.4-1.2-0.4h-0.3v-0.3h2.1V111z M281.7,124.3
	l0.3,1.7h-2.5v-0.3h0.4C280.8,125.7,281.5,125.1,281.7,124.3L281.7,124.3z M283.4,109.3V126h-1.8v-16.8L283.4,109.3z M283.3,111.1
	v-1.8h2.1v0.3h-0.3c-0.4,0-0.8,0.1-1.2,0.4C283.6,110.2,283.4,110.6,283.3,111.1L283.3,111.1z M291,125.2l0,0.9h-7.6v-0.9H291z
	 M292.6,122l-1.6,4h-4.3l1-0.9c0.8,0,1.6-0.1,2.3-0.4c0.5-0.3,1-0.6,1.4-1.1c0.4-0.5,0.7-1,0.9-1.6L292.6,122z"/>
<path class="st0" d="M301.4,111L301.4,111c-0.1-0.4-0.2-0.8-0.5-1.1c-0.3-0.3-0.7-0.4-1.1-0.4h-0.4v-0.3h2.4L301.4,111z
	 M301.4,124.3l0.4,1.8h-2.4v-0.3h0.4C300.6,125.8,301.3,125.1,301.4,124.3L301.4,124.3z M303.1,109.3V126h-1.8v-16.8L303.1,109.3z
	 M310.7,109.3v0.9h-7.6v-0.9H310.7z M309.4,117.3v0.7h-6.3v-0.8L309.4,117.3z M310.7,125.3l0,0.9h-7.6v-0.9H310.7z M312.3,122.1
	l-1.5,4h-4.3l1-0.9c0.8,0,1.5-0.1,2.3-0.4c0.5-0.3,1-0.6,1.4-1.1c0.4-0.5,0.7-1.1,0.9-1.7L312.3,122.1z M310.7,108.8v0.7l-3.2-0.3
	c0.6,0,1.2-0.1,1.9-0.2c0.5-0.1,0.9-0.2,1.3-0.4V108.8z M309.4,115.8v1.6h-1.5v-0.1c0.3,0,0.7-0.1,0.9-0.3c0.2-0.2,0.3-0.5,0.3-0.8
	v-0.4H309.4z M309.4,118.1v1.6h-0.3v-0.4c0-0.3-0.1-0.6-0.3-0.8c-0.2-0.3-0.5-0.4-0.9-0.3V118L309.4,118.1z M310.7,110.1v1.9h-0.3
	v-0.4c0-0.4-0.1-0.7-0.4-1c-0.3-0.3-0.6-0.4-1-0.4V110L310.7,110.1z"/>
<path class="st0" d="M334.8,124c-0.2,0.4-0.2,0.9,0.1,1.3c0.2,0.3,0.5,0.5,0.9,0.5h0.2v0.2h-5.4v-0.3h0.2c0.4,0,0.9-0.2,1.2-0.4
	c0.5-0.3,0.8-0.8,1.1-1.4L334.8,124z M340.2,108.8l0.2,1.9L334,126h-1.8l6.7-14.3c0.2-0.4,0.4-0.8,0.5-1.2s0.3-0.7,0.4-1
	c0.1-0.2,0.2-0.5,0.2-0.8L340.2,108.8z M343.6,119.5v0.8h-7.4v-0.8H343.6z M340.2,108.8l7.8,17.1h-2.2l-6-14.6L340.2,108.8z
	 M345,124h2.1c0.2,0.5,0.5,1,1,1.4c0.3,0.3,0.8,0.4,1.2,0.4h0.2v0.2h-5.8v-0.3h0.2c0.3,0,0.7-0.2,0.9-0.5
	C345.1,124.9,345.2,124.4,345,124z"/>
<path class="st0" d="M357.9,124.3v1.7h-2.1v-0.3h0.5c0.4,0,0.8-0.1,1.1-0.4C357.6,125,357.8,124.7,357.9,124.3L357.9,124.3z
	 M357.8,108.8l1.2,1.6V126h-1.3v-13.8c0-1.2-0.1-2.3-0.3-3.5L357.8,108.8z M357.8,108.8l15.6,14.7l0.3,3l-15.6-14.8L357.8,108.8z
	 M359,124.3c0,0.4,0.2,0.7,0.5,1c0.3,0.3,0.7,0.4,1.1,0.4h0.5v0.3h-2V124.3L359,124.3z M372.4,110.9c0-0.4-0.2-0.7-0.5-1
	c-0.3-0.3-0.7-0.4-1.1-0.4h-0.5v-0.3h2.1L372.4,110.9L372.4,110.9z M373.6,109.2v13.7c0,0.6,0,1.2,0.1,1.7s0.1,1.2,0.2,1.9h-0.2
	l-1.2-1.5v-15.8H373.6z M373.5,110.9v-1.7h2.1v0.3h-0.5c-0.4,0-0.8,0.1-1.1,0.4C373.8,110.1,373.6,110.5,373.5,110.9L373.5,110.9z"
	/>
<path class="st0" d="M385.6,111L385.6,111c-0.1-0.4-0.2-0.8-0.5-1.1c-0.3-0.3-0.7-0.4-1.1-0.4h-0.3v-0.3h2L385.6,111z M385.6,124.2
	v1.8h-2v-0.3h0.4c0.4,0,0.8-0.2,1.1-0.5C385.3,125,385.5,124.6,385.6,124.2L385.6,124.2z M387.3,109.2V126h-1.8v-16.8L387.3,109.2z
	 M392.9,109.2c1.7,0,3.3,0.3,4.8,1c1.3,0.6,2.4,1.6,3.1,2.9c1.5,2.8,1.5,6.2,0,9c-0.7,1.3-1.8,2.3-3.1,2.9c-1.5,0.7-3.2,1-4.8,1h-6
	l-0.1-0.8h6c1.9,0.1,3.8-0.6,5.1-2c2.5-3.3,2.5-7.8,0-11.1c-1.3-1.4-3.2-2.1-5.1-2h-6.3v-0.8L392.9,109.2z"/>
<path class="st0" d="M441,118.2v4.6c-0.5,0.6-1.1,1.2-1.7,1.7c-0.8,0.6-1.7,1.1-2.7,1.4c-1.2,0.4-2.5,0.6-3.7,0.6
	c-1.8,0-3.6-0.4-5.2-1.3c-1.5-0.8-2.7-2.1-3.5-3.6c-0.9-1.6-1.3-3.5-1.3-5.3c0-1.9,0.4-3.7,1.3-5.4c0.8-1.5,2.1-2.7,3.5-3.6
	c1.6-0.9,3.4-1.3,5.2-1.3c0.9,0,1.9,0.1,2.8,0.3c0.8,0.2,1.5,0.4,2.2,0.7c0.6,0.3,1.2,0.6,1.8,1l0.6,4H440c-0.2-1-0.7-1.9-1.4-2.7
	c-0.7-0.8-1.5-1.3-2.4-1.7c-1.1-0.4-2.2-0.6-3.3-0.6c-1.5,0-2.9,0.4-4.1,1.2c-1.2,0.8-2.2,1.9-2.8,3.3c-1.3,3.1-1.3,6.7,0,9.8
	c0.6,1.3,1.6,2.5,2.8,3.3c1.2,0.8,2.7,1.2,4.1,1.2c0.8,0,1.6-0.1,2.4-0.3c0.7-0.2,1.5-0.5,2.1-0.8c0.7-0.4,1.3-0.8,1.8-1.3v-5
	c0-0.8-0.5-1.3-1.4-1.3h-0.5v-0.3h5.5v0.3h-0.4C441.4,116.9,440.9,117.3,441,118.2z"/>
<path class="st0" d="M452.1,111L452.1,111c-0.1-0.4-0.2-0.8-0.5-1.1c-0.3-0.3-0.7-0.4-1.1-0.4h-0.4v-0.3h2.4L452.1,111z
	 M452.1,124.3l0.3,1.8h-2.4v-0.3h0.4c0.4,0,0.8-0.2,1.1-0.4C451.9,125.1,452,124.7,452.1,124.3L452.1,124.3z M453.8,109.3V126H452
	v-16.8L453.8,109.3z M453.7,124.3L453.7,124.3c0.1,0.4,0.3,0.8,0.6,1.1c0.3,0.3,0.7,0.5,1.1,0.4h0.4v0.3h-2.4L453.7,124.3z
	 M457.1,109.3c0.8,0,1.6,0.1,2.4,0.3c0.7,0.2,1.3,0.5,1.8,0.9c0.5,0.4,0.9,0.9,1.1,1.4c0.3,0.6,0.4,1.3,0.4,1.9
	c0,0.8-0.2,1.5-0.6,2.2c-0.4,0.7-0.9,1.2-1.5,1.7c-0.7,0.4-1.5,0.7-2.3,0.8c0.4,0.2,0.8,0.5,1.1,0.9c0.4,0.4,0.8,0.9,1.1,1.3
	c0.5,0.7,0.9,1.2,1.3,1.7s0.8,0.9,1.1,1.4s0.8,0.8,1.1,1.1c0.3,0.3,0.7,0.6,1.1,0.8c0.4,0.2,0.9,0.3,1.3,0.3v0.1h-0.9
	c-0.9,0-1.7-0.1-2.5-0.4c-0.6-0.2-1.1-0.6-1.6-1c-0.4-0.3-0.7-0.7-1.1-1.1c-0.1-0.1-0.2-0.3-0.5-0.7l-0.9-1.3l-0.9-1.2l-0.5-0.7
	c-0.4-0.5-0.8-0.9-1.3-1.3c-0.4-0.4-1-0.6-1.5-0.6v-0.3c0.6,0,1.1,0,1.6,0s1-0.1,1.6-0.1c0.5-0.1,1-0.3,1.5-0.6
	c0.5-0.4,0.9-1,1.1-1.7c0.1-0.2,0.1-0.5,0.2-0.7c0-0.3,0-0.6,0-0.9c0-0.5-0.1-1-0.3-1.4c-0.2-0.4-0.4-0.8-0.8-1.1
	c-0.3-0.3-0.7-0.5-1.2-0.7c-0.5-0.2-1-0.3-1.5-0.3c-0.9,0-1.7,0-2.3,0c-0.3,0-0.7,0-1,0c0-0.1,0-0.2-0.1-0.2c0-0.1-0.1-0.3-0.2-0.6
	L457.1,109.3z"/>
<path class="st0" d="M481.4,108.8c1.3,0,2.5,0.2,3.7,0.6c1.1,0.4,2.1,1,3,1.8c0.9,0.8,1.5,1.7,2,2.8c1,2.3,1,4.9,0,7.2
	c-0.5,1.1-1.1,2-2,2.8c-0.9,0.8-1.9,1.4-3,1.8c-2.4,0.9-5,0.9-7.4,0c-1.1-0.4-2.1-1-3-1.8c-0.9-0.8-1.5-1.7-2-2.8
	c-1-2.3-1-4.9,0-7.2c0.5-1.1,1.1-2,2-2.8c0.9-0.8,1.9-1.4,3-1.8C478.9,109,480.1,108.8,481.4,108.8z M481.4,125.6
	c2.7,0,5.2-1.4,6.4-3.8c1.3-2.6,1.3-5.7,0-8.3c-1.3-2.4-3.7-3.8-6.4-3.8c-1.3,0-2.6,0.3-3.7,1c-1.1,0.7-2,1.6-2.7,2.8
	c-1.3,2.6-1.3,5.7,0,8.3c0.6,1.2,1.5,2.1,2.7,2.8C478.7,125.2,480,125.6,481.4,125.6z"/>
<path class="st0" d="M501.7,111.1h-2.1c-0.2-0.5-0.5-0.9-0.8-1.2c-0.4-0.3-0.9-0.5-1.5-0.5h-0.2v-0.3h5.8v0.3h-0.2
	c-0.3,0-0.6,0.1-0.8,0.4C501.6,110.1,501.5,110.5,501.7,111.1z M498.9,109.4h2.2l4.5,13.8l-0.3,3.2L498.9,109.4z M510.4,108.7
	l0.2,2.3l-4.4,12.2c-0.2,0.7-0.3,1.2-0.4,1.7c-0.1,0.5-0.2,0.9-0.2,1.4h-0.3l-0.5-2.5l5.2-15.1L510.4,108.7z M510.4,108.7l5.4,13.7
	l-0.7,3.9l-5.7-14.6L510.4,108.7z M520.8,109.3l-4.7,13.9c-0.2,0.7-0.4,1.2-0.5,1.7c-0.1,0.5-0.2,0.9-0.2,1.4h-0.3l-0.3-2.8
	l4.3-14.2L520.8,109.3z M518.6,111.1c0.2-0.6,0.2-1,0-1.3c-0.2-0.2-0.5-0.4-0.8-0.4h-0.2v-0.3h5.1v0.3h-0.2c-0.5,0-1,0.2-1.5,0.5
	c-0.4,0.3-0.7,0.7-0.8,1.2H518.6z"/>
<polygon class="st0" points="134.4,93.6 190.8,93.4 247.1,93.3 359.7,93.2 472.4,93.3 528.7,93.4 585,93.6 528.7,93.9 472.4,94 
	359.7,94.1 247.1,94 190.8,93.9 "/>
</svg>
