<?xml version="1.0" encoding="utf-8"?>
<!-- Generator: Adobe Illustrator 24.3.0, SVG Export Plug-In . SVG Version: 6.00 Build 0)  -->
<svg version="1.1" id="Capa_1" xmlns="http://www.w3.org/2000/svg" xmlns:xlink="http://www.w3.org/1999/xlink" x="0px" y="0px"
	 viewBox="0 0 512 512" style="enable-background:new 0 0 512 512;" xml:space="preserve">
<style type="text/css">
	.st0{fill:#FFFFFF;}
</style>
<g>
	<g>
		<g>
			<path class="st0" d="M379.2,180h-1.5l-21.1-50.4v-0.3c1.1,0,2.1,0,3.2-0.1c4.1-0.2,7.3-3.7,7.2-7.8c-0.2-4.1-3.7-7.3-7.8-7.2
				c-0.8,0-1.7,0-2.5,0.1v-2.9c0-4.1-3.4-7.5-7.5-7.5s-7.5,3.4-7.5,7.5v1.5c-30.4-6.1-30.5-23-52.7-23h-1.3
				c-2.4-6.8-7.8-12.2-14.6-14.5v-4.8c0-4.1-3.4-7.5-7.5-7.5s-7.5,3.4-7.5,7.5v4.8c-6.8,2.3-12.3,7.7-14.6,14.6
				c-0.6,0.1-12.3-1.1-22.8,7.8c-6.7,5.7-16.9,12.2-30.6,15.1v-1.4c0-4.1-3.4-7.5-7.5-7.5s-7.5,3.4-7.5,7.5v2.9
				c-4.1,0.1-7.3,3.4-7.3,7.5s3.3,7.4,7.3,7.5v0.2L153.7,180c-0.6,0.1-5-0.7-8.6,3c-3.6,3.8-2.9,8.2-2,14.2
				c1.3,7.9,6.4,15.1,14.5,19c3.7,1.8,6.6,6.1,13.7,6.1h21.8c5.2,0,8.9-2.8,9.6-3.4c2.1-1.7,2.5-1.9,4.3-2.9
				c10.6-5.1,14.6-14.4,15.1-26c0.1-5.9-4.5-10.2-9.8-10.2h-1.5l-21.1-50.4v-1.5c19.5-3.4,33.2-12.8,40.4-18.9
				c5.7-4.9,12.6-4.2,13-4.2c2.3,7,7.8,12.5,14.7,14.8v77.9c-15,1-24.8,16.4-19.2,30.4c-9.4,2.6-16.2,11.3-16.2,21.4
				c0,12.3,10,22.3,22.3,22.3h42c12.3,0,22.3-10,22.3-22.3c0-10.4-7.2-19.2-16.8-21.6c5.4-14-4.4-29.2-19.3-30.2v-77.9
				c6.9-2.4,12.4-7.9,14.7-14.8c0.5,0.1,7.1-0.7,12.9,4.2c7.2,6.1,21.2,15.7,41,19v1.4L320.5,180c-0.6,0.1-5-0.7-8.6,3
				c-3.1,3.2-2.7,7.3-2.7,7.2c0,12.9,6.1,21.7,15.2,26.1c3.9,1.8,6.6,6.1,13.7,6.1H360c6.8,0,9.1-3.8,13.9-6.2
				c10.7-5.1,14.6-14.4,15.1-26C389.2,184.7,384.8,180,379.2,180z M171.3,207.4L171.3,207.4c0,0,0.2,0.2,0.2,0.2
				C171.4,207.6,171.3,207.5,171.3,207.4z M193.3,207.4C193.2,207.5,193.2,207.4,193.3,207.4c-32.1-0.1-16.4,1.3-29.3-4.8
				c-3.1-1.5-5.4-4.3-6-7.6h48.7C205.2,202.2,199.6,202,193.3,207.4z M194.6,180h-24.7l12.3-29.5L194.6,180z M294,249.6
				c0,4-3.3,7.3-7.3,7.3h-42c-4,0-7.3-3.3-7.3-7.3s3.3-7.3,7.3-7.3c15.6,0,28,0,42,0C290.8,242.3,294,245.6,294,249.6z M278.7,220
				c0,4-3.3,7.3-7.3,7.3h-12c-4,0-7.3-3.3-7.3-7.3s3.3-7.3,7.3-7.3h12C275.4,212.7,278.7,216,278.7,220z M265.4,106.1
				c-4.6,0-8.4-3.8-8.4-8.4c0-4.6,3.8-8.4,8.4-8.4s8.4,3.8,8.4,8.4C273.8,102.3,270.1,106.1,265.4,106.1z M349.1,150.5l12.3,29.5
				h-24.7L349.1,150.5z M338.1,207.4c0.3,0.2,0.2,0.2,0.2,0.2C338.3,207.6,338.2,207.5,338.1,207.4z M360.1,207.4
				C360.1,207.5,360,207.4,360.1,207.4c-28.4-0.1-18.9,1.2-27.1-3.6c-3.6-2-7.2-3.6-8.2-8.8h48.7C372,202.2,366.1,202.2,360.1,207.4
				z"/>
		</g>
	</g>
	<g>
		<g>
			<path class="st0" d="M336.1,303.8H194.8c-4.1,0-7.5,3.4-7.5,7.5s3.4,7.5,7.5,7.5h141.3c4.1,0,7.5-3.4,7.5-7.5
				S340.2,303.8,336.1,303.8z"/>
		</g>
	</g>
	<g>
		<g>
			<path class="st0" d="M336.1,335.3H194.8c-4.1,0-7.5,3.4-7.5,7.5s3.4,7.5,7.5,7.5h141.3c4.1,0,7.5-3.4,7.5-7.5
				S340.2,335.3,336.1,335.3z"/>
		</g>
	</g>
	<g>
		<g>
			<path class="st0" d="M336.1,366.8H194.8c-4.1,0-7.5,3.4-7.5,7.5s3.4,7.5,7.5,7.5h141.3c4.1,0,7.5-3.4,7.5-7.5
				S340.2,366.8,336.1,366.8z"/>
		</g>
	</g>
	<g>
		<g>
			<path class="st0" d="M460.6,361.8c4,0,7.3-3.3,7.3-7.3v-324c0-13.5-11-24.5-24.5-24.5C427.5,6,101.9,6,85.9,6
				C62.7,6,44.1,25.2,44.1,47.4c0,24.9,0,393.1,0,417c0,22.3,19.2,41.5,41.8,41.5h233c4,0,7.3-3.3,7.3-7.3c0-4-3.3-7.3-7.3-7.3
				c-0.1,0-232.8-0.2-233-0.2c-21.3,0-35.5-24.4-21.6-42.6c4.7-6.2,11.9-10.3,20.2-10.7c1.2-0.1,28.9,0,29,0v30.4
				c0,8.1,8.9,13,15.8,8.7l16.7-10.6l16.4,10.4c6.9,4.4,16-0.6,16-8.8v-30.1h237.8v53.6h-63.2c-4,0-7.3,3.3-7.3,7.3s3.3,7.3,7.3,7.3
				c10.5,0,77.3,0,88.7,0c14.4,0,26.1-11.7,26.1-26.1c0-11.1,0-83.3,0-91.3c0-4-3.3-7.3-7.3-7.3c-4,0-7.3,3.3-7.3,7.3v23.1
				c0,5.1-3.4,9.4-8,10.9c-2.8,0.9-343,0.5-349.6,0.5V97.5c0-4-3.3-7.3-7.3-7.3c-4,0-7.3,3.3-7.3,7.3v325.9
				c-8.4,1-16.1,4.6-22.2,9.8c0.9-394.5-2.9-388.3,4-399.5c4-6.5,10.7-11.2,18.2-12.6v42.2c0,4,3.3,7.3,7.3,7.3c4,0,7.3-3.3,7.3-7.3
				V20.6h347.8c5.4,0,9.8,4.4,9.8,9.8v324C453.2,358.5,456.5,361.8,460.6,361.8z M430.9,437.8L430.9,437.8
				c7.6-0.5,14.1,1.4,22.3-2.6v44.8c0,6.3-5.1,11.4-11.4,11.4h-10.9L430.9,437.8L430.9,437.8z M128.2,437.8h35.6v22.4
				c-9.7-5.6-12-9-17.8-9c-5.8,0-8.2,3.4-17.8,9L128.2,437.8L128.2,437.8z"/>
		</g>
	</g>
</g>
</svg>
