<?xml version="1.0" encoding="utf-8"?>
<!-- Generator: Adobe Illustrator 24.3.0, SVG Export Plug-In . SVG Version: 6.00 Build 0)  -->
<svg version="1.1" id="Capa_1" xmlns="http://www.w3.org/2000/svg" xmlns:xlink="http://www.w3.org/1999/xlink" x="0px" y="0px"
	 viewBox="0 0 512 512" style="enable-background:new 0 0 512 512;" xml:space="preserve">
<style type="text/css">
	.st0{fill:#FFFFFF;}
</style>
<g>
	<path class="st0" d="M498.7,397.8c4,0,7.3-3.3,7.3-7.3v-11.2c0-20.2-12.9-38.1-32.2-44.4l-45.8-15.1v-15.8
		c15.9-9.6,26.6-27,26.6-46.9v-31.6c0-30.1-24.5-54.7-54.7-54.7c-17.8,0-33.6,8.5-43.6,21.7c-5.5-10.4-14.9-18.5-26.7-22.3L284,155
		v-15.8c15.9-9.6,26.6-27,26.6-46.9V60.7C310.7,30.5,286.1,6,256,6s-54.7,24.5-54.7,54.7v31.6c0,19.9,10.7,37.4,26.6,46.9V155
		l-45.8,15.1c-11.7,3.9-21.1,12-26.7,22.3c-10-13.2-25.8-21.7-43.6-21.7c-30.1,0-54.7,24.5-54.7,54.7V257
		c0,19.9,10.7,37.4,26.6,46.9v15.8l-45.8,15.1C18.9,341.2,6,359,6,379.3v11.2c0,4,3.3,7.3,7.3,7.3s7.3-3.3,7.3-7.3v-11.2
		c0-13.9,8.9-26.2,22.1-30.5l42.9-14.1c3.9,10.8,14.3,18.5,26.4,18.5c12.1,0,22.4-7.7,26.4-18.5l42.9,14.1
		c9.4,3.1,16.7,10.2,20,19.3l-19.1,6.3c-19.2,6.3-32.2,24.2-32.2,44.4v8.5H62.1v-18.3c0-4-3.3-7.3-7.3-7.3s-7.3,3.3-7.3,7.3v18.3
		H20.6v-2.5c0-4-3.3-7.3-7.3-7.3S6,420.7,6,424.7v9.9c0,4,3.3,7.3,7.3,7.3H150v56.8c0,4,3.3,7.3,7.3,7.3h197.3c4,0,7.3-3.3,7.3-7.3
		v-9.8c0-4-3.3-7.3-7.3-7.3c-4,0-7.3,3.3-7.3,7.3v2.5h-26.8v-43c0-4-3.3-7.3-7.3-7.3s-7.3,3.3-7.3,7.3v43h-99.8v-43
		c0-4-3.3-7.3-7.3-7.3c-4,0-7.3,3.3-7.3,7.3v43h-26.8v-72.6c0-13.9,8.9-26.2,22.1-30.5l42.9-14.1c3.9,10.8,14.3,18.5,26.4,18.5
		c12.1,0,22.4-7.7,26.4-18.5l42.9,14.1c13.2,4.3,22.1,16.6,22.1,30.5v36c0,4,3.3,7.3,7.3,7.3s7.3-3.3,7.3-7.3v-12.8h136.7
		c4,0,7.3-3.3,7.3-7.3v-9.9c0-4-3.3-7.3-7.3-7.3c-4,0-7.3,3.3-7.3,7.3v2.5h-26.8v-18.3c0-4-3.3-7.3-7.3-7.3c-4,0-7.3,3.3-7.3,7.3
		v18.3H362v-8.5c0-20.2-12.9-38.1-32.2-44.4l-19.1-6.3c3.4-9,10.6-16.2,20-19.3l42.9-14.1c3.9,10.8,14.3,18.5,26.4,18.5
		c12.1,0,22.4-7.7,26.4-18.5l42.9,14.1c13.2,4.4,22.1,16.6,22.1,30.5v11.2C491.4,394.5,494.6,397.8,498.7,397.8L498.7,397.8z
		 M400,185.4c22.1,0,40,18,40,40V257c0,22.1-18,40-40,40s-40-18-40-40v-31.6C360,203.3,378,185.4,400,185.4L400,185.4z M216,92.2
		V60.7c0-22.1,18-40,40-40s40,18,40,40v31.6c0,22.1-18,40-40,40S216,114.3,216,92.2L216,92.2z M256,146.9c4.6,0,9.1-0.6,13.4-1.7
		v14.9c0,0.1,0,0.1,0,0.2c0,7.4-6,13.4-13.4,13.4c-7.4,0-13.4-6-13.4-13.4c0-0.1,0-0.1,0-0.2v-14.9
		C246.9,146.3,251.4,146.9,256,146.9L256,146.9z M186.8,184l42.9-14.1c3.9,10.8,14.3,18.5,26.4,18.5c12.1,0,22.4-7.7,26.4-18.5
		l42.9,14.1c12.2,4,20.7,14.7,21.9,27.5c-1.2,4.5-1.8,9.1-1.8,13.9V257c0,1.9,0.1,3.7,0.3,5.5h-35c-1.3-29-25.3-52.3-54.6-52.3
		s-53.4,23.2-54.6,52.3h-35c0.2-1.8,0.3-3.6,0.3-5.5v-31.6c0-4.8-0.6-9.5-1.8-13.9C166,198.7,174.5,188,186.8,184L186.8,184z
		 M256,336.5c-22.1,0-40-18-40-40v-31.6c0-22.1,18-40,40-40s40,18,40,40v31.6C296,318.5,278.1,336.5,256,336.5z M71.9,257v-31.6
		c0-22.1,18-40,40-40s40,18,40,40V257c0,22.1-18,40-40,40S71.9,279.1,71.9,257L71.9,257z M125.4,325.1c0,7.4-6,13.4-13.4,13.4
		c-7.4,0-13.4-6-13.4-13.4V310c4.3,1.1,8.8,1.7,13.4,1.7c4.6,0,9.1-0.6,13.4-1.7V325.1z M185.8,334.8L140,319.8v-15.9
		c10.2-6.1,18.3-15.6,22.8-26.8h38.5v19.3c0,19.9,10.7,37.4,26.6,46.9v15.9l-12.8,4.2C210.4,350,199.7,339.4,185.8,334.8
		L185.8,334.8z M256,377.9c-7.4,0-13.4-6-13.4-13.4v-0.1c0,0,0,0,0,0v-14.9c4.3,1.1,8.8,1.7,13.4,1.7c4.6,0,9.1-0.6,13.4-1.7v14.9v0
		v0.1C269.4,371.9,263.4,377.9,256,377.9L256,377.9z M326.2,334.8c-13.9,4.6-24.6,15.2-29.4,28.6l-12.8-4.2v-15.9
		c15.9-9.6,26.6-27,26.6-46.9v-19.3h38.5c4.5,11.2,12.5,20.6,22.8,26.8v15.9L326.2,334.8z M400,338.4c-7.4,0-13.4-6-13.4-13.4V310
		c4.3,1.1,8.8,1.7,13.4,1.7c4.6,0,9.1-0.6,13.4-1.7v15.1C413.4,332.4,407.4,338.4,400,338.4z"/>
</g>
</svg>
