<?xml version="1.0" encoding="utf-8"?>
<!-- Generator: Adobe Illustrator 24.3.0, SVG Export Plug-In . SVG Version: 6.00 Build 0)  -->
<svg version="1.1" id="_x31_" xmlns="http://www.w3.org/2000/svg" xmlns:xlink="http://www.w3.org/1999/xlink" x="0px" y="0px"
	 viewBox="0 0 512 512" style="enable-background:new 0 0 512 512;" xml:space="preserve">
<style type="text/css">
	.st0{fill:#FFFFFF;}
</style>
<g>
	<path class="st0" d="M370.6,506c-74.7,0-135.4-60.8-135.4-135.4s60.8-135.4,135.4-135.4S506,295.9,506,370.6S445.2,506,370.6,506z
		 M370.6,256C307.4,256,256,307.4,256,370.6s51.4,114.6,114.6,114.6s114.6-51.4,114.6-114.6S433.8,256,370.6,256z"/>
	<path class="st0" d="M349.8,422.7c-2.8,0-5.4-1.1-7.4-3L300.7,378c-4.1-4.1-4.1-10.7,0-14.7s10.7-4.1,14.7,0l33.8,33.8l65.6-75
		c3.8-4.4,10.4-4.8,14.7-1c4.3,3.8,4.8,10.4,1,14.7l-72.9,83.3c-1.9,2.2-4.6,3.5-7.5,3.6C350,422.7,349.9,422.7,349.8,422.7
		L349.8,422.7z"/>
	<path class="st0" d="M203.9,443.5H58.1C29.4,443.5,6,420.1,6,391.4V120.6c0-28.7,23.4-52.1,52.1-52.1h41.7
		c5.8,0,10.4,4.7,10.4,10.4s-4.7,10.4-10.4,10.4H58.1c-17.2,0-31.2,14-31.2,31.2v270.8c0,17.2,14,31.2,31.2,31.2h145.8
		c5.8,0,10.4,4.7,10.4,10.4S209.7,443.5,203.9,443.5z"/>
	<path class="st0" d="M349.8,193.5c-5.7,0-10.4-4.7-10.4-10.4v-62.5c0-17.2-14-31.2-31.2-31.2h-41.7c-5.8,0-10.4-4.7-10.4-10.4
		s4.7-10.4,10.4-10.4h41.7c28.7,0,52.1,23.4,52.1,52.1v62.5C360.2,188.8,355.5,193.5,349.8,193.5z"/>
	<path class="st0" d="M245.6,131h-125c-17.2,0-31.2-14-31.2-31.2V58.1c0-5.8,4.7-10.4,10.4-10.4H132c4.9-23.8,25.9-41.7,51-41.7
		s46.2,17.9,51,41.7h32.3c5.8,0,10.4,4.7,10.4,10.4v41.7C276.8,117,262.8,131,245.6,131z M110.2,68.5v31.2c0,5.7,4.7,10.4,10.4,10.4
		h125c5.8,0,10.4-4.7,10.4-10.4V68.5h-31.2c-5.8,0-10.4-4.7-10.4-10.4c0-17.2-14-31.2-31.2-31.2s-31.2,14-31.2,31.2
		c0,5.8-4.7,10.4-10.4,10.4H110.2z"/>
	<path class="st0" d="M287.2,193.5H78.9c-5.8,0-10.4-4.7-10.4-10.4s4.7-10.4,10.4-10.4h208.3c5.8,0,10.4,4.7,10.4,10.4
		S293,193.5,287.2,193.5z"/>
	<path class="st0" d="M224.8,256H78.9c-5.8,0-10.4-4.7-10.4-10.4s4.7-10.4,10.4-10.4h145.8c5.8,0,10.4,4.7,10.4,10.4
		S230.5,256,224.8,256z"/>
	<path class="st0" d="M183.1,318.5H78.9c-5.8,0-10.4-4.7-10.4-10.4s4.7-10.4,10.4-10.4h104.2c5.8,0,10.4,4.7,10.4,10.4
		S188.8,318.5,183.1,318.5z"/>
</g>
</svg>
