<?xml version="1.0" encoding="utf-8"?>
<!-- Generator: Adobe Illustrator 24.3.0, SVG Export Plug-In . SVG Version: 6.00 Build 0)  -->
<svg version="1.1" id="Layer_3" xmlns="http://www.w3.org/2000/svg" xmlns:xlink="http://www.w3.org/1999/xlink" x="0px" y="0px"
	 viewBox="0 0 512 512" style="enable-background:new 0 0 512 512;" xml:space="preserve">
<style type="text/css">
	.st0{fill:#FFFFFF;}
</style>
<g>
	<circle class="st0" cx="171.6" cy="359.4" r="25.9"/>
	<path class="st0" d="M304.4,316.3l13.7-13.7l48.1,48.1l-13.7,13.7L304.4,316.3z"/>
	<path class="st0" d="M390.6,230.2l13.7-13.7l48.1,48.1l-13.7,13.7L390.6,230.2z"/>
	<path class="st0" d="M232,359.4c0-33.3-27.1-60.3-60.3-60.3s-60.3,27.1-60.3,60.3s27.1,60.3,60.3,60.3S232,392.7,232,359.4z
		 M128.5,359.4c0-23.8,19.3-43.1,43.1-43.1s43.1,19.3,43.1,43.1s-19.3,43.1-43.1,43.1S128.5,383.2,128.5,359.4z"/>
	<path class="st0" d="M33.7,6C19.4,6,7.8,17.6,7.8,31.9v60.3h51.7V31.9C59.6,17.6,48,6,33.7,6z"/>
	<path class="st0" d="M145.8,480.1c0,9.7-3.2,18.7-8.6,25.9H413c14.3,0,25.9-11.6,25.9-25.9v-8.6H145.8V480.1z"/>
	<path class="st0" d="M401.4,322.8l9.4-9.4l93.4,93.4l-9.4,9.4L401.4,322.8z"/>
	<path class="st0" d="M338.9,299.1L387,251l30.9,30.9L369.8,330L338.9,299.1z"/>
	<path class="st0" d="M404.4,454.3V350.1L389.3,335l-7.2,7.2l2.5,2.5c3.4,3.4,3.4,8.8,0,12.2l-25.9,25.9c-1.7,1.7-3.9,2.5-6.1,2.5
		s-4.4-0.8-6.1-2.5l-60.3-60.3c-3.4-3.4-3.4-8.8,0-12.2l25.9-25.9c3.4-3.4,8.8-3.4,12.2,0l2.5,2.5l48.2-48.2l-2.5-2.5
		c-3.4-3.4-3.4-8.8,0-12.2l25.9-25.9c1.7-1.7,3.9-2.5,6.1-2.5V49.1C404.4,25.3,385,6,361.3,6H68c5.5,7.2,8.8,16.1,8.8,25.9v448.3
		c0,14.3,11.6,25.9,25.9,25.9s25.9-11.6,25.9-25.9V463c0-4.8,3.9-8.6,8.6-8.6L404.4,454.3L404.4,454.3z M299.5,402.1l2.9-4.3
		c2.1-3.2,6.1-4.6,9.7-3.5s6.1,4.5,6.1,8.2c0,9.5,7.7,17.2,17.2,17.2h34.5V437h-34.5c-12.3,0-23.1-6.5-29.2-16.2
		c-10.5,10.3-24.7,16.2-39.8,16.2v-17.2C279.8,419.8,292.1,413.2,299.5,402.1z M102.7,40.5h284.5v17.2H102.7V40.5z M102.7,75h284.5
		v17.2H102.7V75z M102.7,109.4h284.5v17.2H102.7V109.4z M102.7,143.9h284.5v17.2H102.7V143.9z M102.7,178.4h284.5v17.2H102.7V178.4z
		 M102.7,212.9h250v17.2h-250L102.7,212.9L102.7,212.9z M102.7,247.4h232.8v17.2H102.7V247.4z M94,359.4c0-42.8,34.8-77.6,77.6-77.6
		s77.6,34.8,77.6,77.6S214.4,437,171.6,437S94,402.2,94,359.4z"/>
</g>
</svg>
