<?xml version="1.0" encoding="utf-8"?>
<!-- Generator: Adobe Illustrator 24.3.0, SVG Export Plug-In . SVG Version: 6.00 Build 0)  -->
<svg version="1.1" id="Layer_1" xmlns="http://www.w3.org/2000/svg" xmlns:xlink="http://www.w3.org/1999/xlink" x="0px" y="0px"
	 viewBox="0 0 512 512" style="enable-background:new 0 0 512 512;" xml:space="preserve">
<style type="text/css">
	.st0{fill:#FFFFFF;}
</style>
<g>
	<path class="st0" d="M220.5,272.2c2.1,6.8,8.4,11.3,15.2,11.3c1.5,0,3-0.2,4.5-0.7l23.6-7.1c4.1-1.2,7.4-3.9,9.4-7.7
		c2-3.7,2.4-8,1.2-12.1l-4.1-13.6l60.1-18.1l12.6,41.9c0.6,2,2,3.7,3.8,4.6c1.1,0.6,2.4,0.9,3.7,0.9c0.8,0,1.5-0.1,2.3-0.3l13.5-4
		l6.1,20.4l-13.1,4c-2,0.6-3.6,2-4.6,3.8s-1.2,4-0.6,5.9L396,440.5c4.7,15.5,21,24.4,36.6,19.7c15.5-4.7,24.3-21,19.7-36.6
		l-41.9-139.1c-1.3-4.1-5.6-6.5-9.7-5.2l-13.2,4l-6.1-20.4L394,259c4.1-1.2,6.5-5.6,5.2-9.7l-12.6-42l60.6-18.2l4.1,13.6
		c2.5,8.3,11.3,13.1,19.7,10.6l23.6-7.1c8.4-2.5,13.1-11.4,10.6-19.7l-42.7-142c-1.2-4-3.9-7.4-7.7-9.4c-3.7-2-8-2.4-12.1-1.2
		L419.2,41c-8.4,2.5-13.1,11.4-10.6,19.7l4.1,13.6l-176.9,53.2l-4.1-13.6c-1.2-4-3.9-7.4-7.7-9.4c-3.7-2-8-2.4-12-1.2l-23.6,7.1
		c-8.4,2.5-13.1,11.4-10.6,19.7L220.5,272.2z M437.1,428.2c2.2,7.2-1.9,14.9-9.2,17.1c-7.4,2.2-15-2-17.1-9.2l-39.6-131.7l26.3-7.9
		L437.1,428.2z M371.7,211.8l10.3,34.5c-1,0.3-27.9,8.4-26.3,7.9l-10.3-34.5C346.2,219.5,372.5,211.6,371.7,211.8z M447.6,49
		l42.6,142.2l-23.9,7c-80.9-269,5.5,18.4-42.7-142C430.9,54,448.7,48.7,447.6,49z M240.4,142.5l176.9-53.2l25.5,84.8
		c-38.3,11.5-121.5,36.6-176.9,53.2C265.6,226.5,240.7,143.7,240.4,142.5z M216.8,118.5l42.6,142.2l-23.9,7l-42.7-142
		C200,123.5,217.9,118.1,216.8,118.5z"/>
	<path class="st0" d="M302.1,359.3H147.5c-8.4,0-15.2,6.8-15.2,15.2v28.1h-11.8c-8.4,0-15.2,6.8-15.2,15.2v35.9
		c0,4.3,3.5,7.8,7.8,7.8h223.3c4.3,0,7.8-3.5,7.8-7.8v-35.9c0-8.4-6.8-15.2-15.2-15.2h-11.8v-28.1
		C317.2,366.2,310.4,359.3,302.1,359.3z M147.5,375h154.2v27.6H147.8L147.5,375z M328.6,445.9H120.8l-0.3-27.6
		c25.2,0,132.6,0,208.1,0V445.9z"/>
	<path class="st0" d="M92.2,326.6c27.3,3.6,54.2,11.3,79.8,22.9c1,0.5,2.1,0.7,3.2,0.7c1.4,0,2.7-0.4,3.9-1c2.2-1.3,3.6-3.5,3.9-6
		l9.5-92.9c6.6-34.5-6.7-72.2-38.5-94.5c-20.6-14.4-45.6-20-70.3-15.6c-51.1,9-85.3,57.9-76.3,109C14.9,291.4,49.9,323.3,92.2,326.6
		z M86.5,155.5c20.3-3.6,41.2,0.8,58.7,13c24.9,17.5,37.9,47.6,32,79.4l-8.6,83c-24-9.8-49-16.5-74.7-19.9
		c-35.6-2.8-64.8-29.4-71-64.7C15.3,203.8,43.9,163,86.5,155.5z"/>
	<path class="st0" d="M100.1,263.2c-6.7,0-12.1-5.5-12.1-12.2c0-4.3-3.5-7.8-7.8-7.8s-7.8,3.5-7.8,7.8c0,12.6,8.4,23.1,19.9,26.5
		v3.3c0,4.3,3.5,7.8,7.8,7.8s7.8-3.5,7.8-7.8v-3.3c11.5-3.4,20-13.9,20-26.5c0-15.3-12.5-27.7-27.8-27.7c-6.7,0-12.1-5.5-12.1-12.2
		s5.4-12.1,12.1-12.1s12.2,5.4,12.2,12.1c0,4.3,3.5,7.8,7.8,7.8s7.8-3.5,7.8-7.8c0-12.6-8.5-23.1-20-26.5v-3.2
		c0-4.3-3.5-7.8-7.8-7.8s-7.8,3.5-7.8,7.8v3.3c-11.5,3.4-19.9,13.9-19.9,26.5c0,15.3,12.4,27.8,27.7,27.8c6.7,0,12.2,5.4,12.2,12.1
		C112.3,257.7,106.8,263.2,100.1,263.2z"/>
</g>
</svg>
