<?xml version="1.0" encoding="utf-8"?>
<!-- Generator: Adobe Illustrator 24.3.0, SVG Export Plug-In . SVG Version: 6.00 Build 0)  -->
<svg version="1.1" id="Layer_1" xmlns="http://www.w3.org/2000/svg" xmlns:xlink="http://www.w3.org/1999/xlink" x="0px" y="0px"
	 viewBox="0 0 512 512" style="enable-background:new 0 0 512 512;" xml:space="preserve">
<style type="text/css">
	.st0{fill:#FFFFFF;}
</style>
<g>
	<rect x="302.9" y="29.4" class="st0" width="15.6" height="15.6"/>
	<rect x="271.6" y="29.4" class="st0" width="15.6" height="15.6"/>
	<rect x="240.4" y="29.4" class="st0" width="15.6" height="15.6"/>
	<polygon class="st0" points="334.1,29.4 334.1,45.1 490.4,45.1 490.4,466.9 6,466.9 6,482.6 506,482.6 506,29.4 	"/>
	<path class="st0" d="M162.2,138.8c17.2,0,31.2,14.1,31.2,31.2v281.2H209V170.1c0-25.8-21.1-46.9-46.9-46.9L162.2,138.8L162.2,138.8
		z"/>
	<rect x="6" y="420.1" class="st0" width="156.2" height="15.6"/>
	<rect x="6" y="388.8" class="st0" width="156.2" height="15.6"/>
	<rect x="6" y="357.6" class="st0" width="156.2" height="15.6"/>
	<rect x="6" y="326.3" class="st0" width="156.2" height="15.6"/>
	<path class="st0" d="M349.8,295.1c60.2,0,109.4-49.2,109.4-109.4S409.9,76.3,349.8,76.3s-109.4,49.2-109.4,109.4
		S289.6,295.1,349.8,295.1z M442.7,177.9h-31.2c-0.8-14.1-2.3-27.3-5.5-39.1h24.2C437.2,150.5,441.9,163.8,442.7,177.9z
		 M341.9,248.2v29.7c-10.2-3.9-19.5-14.8-26.6-29.7H341.9z M309.1,232.6c-3.1-11.7-5.5-25-6.2-39.1H342v39.1H309.1z M357.6,277.9
		v-29.7h26.6C377.1,263.8,367.7,274,357.6,277.9z M357.6,232.6v-39.1h39.1c-0.8,14.1-3.1,27.3-6.2,39.1H357.6z M412.2,193.5h31.2
		c-1.6,14.1-5.5,27.3-12.5,39.1h-24.2C409.9,220.8,411.5,207.6,412.2,193.5z M396.6,177.9h-39.1v-39.1h32.8
		C393.5,150.5,395.8,163.8,396.6,177.9z M357.6,123.2V93.5c10.2,3.9,19.5,14.8,26.6,29.7H357.6z M341.9,93.5v29.7h-26.6
		C322.4,107.6,331.8,97.4,341.9,93.5z M341.9,138.8v39.1h-39.1c0.8-14.1,3.1-27.3,6.2-39.1L341.9,138.8L341.9,138.8z M287.2,177.9
		H256c1.6-14.1,5.5-27.3,12.5-39.1h24.2C289.6,150.5,288,163.8,287.2,177.9z M287.2,193.5c0.8,14.1,2.3,27.3,5.5,39.1h-24.2
		c-7-11.7-10.9-25-12.5-39.1H287.2z M280.2,248.2h18c3.1,8.6,7,15.6,11.7,21.9C298.2,264.6,288,257.6,280.2,248.2z M389.6,270.1
		c4.7-6.2,8.6-14.1,11.7-21.9h18C411.5,257.6,401.3,264.6,389.6,270.1z M419.3,123.2h-18c-3.1-8.6-7-15.6-11.7-21.9
		C401.3,106.8,411.5,113.8,419.3,123.2z M309.9,101.3c-4.7,6.2-8.6,14.1-11.7,21.9h-18C288,113.8,298.2,106.8,309.9,101.3z"/>
	<rect x="99.8" y="170.1" class="st0" width="15.6" height="15.6"/>
	<rect x="99.8" y="201.3" class="st0" width="15.6" height="15.6"/>
	<path class="st0" d="M162.2,279.4H21.6V170.1c0-17.2,14.1-31.2,31.2-31.2h54.7c30.5,0,54.7-24.2,54.7-54.7S138,29.4,107.6,29.4
		S52.9,53.7,52.9,84.1c0,15.6,6.2,28.9,16.4,39.1H52.9C27.1,123.2,6,144.3,6,170.1v125h156.2V279.4z M68.5,84.1
		c0-21.9,17.2-39.1,39.1-39.1s39.1,17.2,39.1,39.1s-17.2,39.1-39.1,39.1S68.5,106,68.5,84.1z"/>
	<rect x="256" y="420.1" class="st0" width="15.6" height="15.6"/>
	<rect x="287.2" y="420.1" class="st0" width="15.6" height="15.6"/>
	<rect x="271.6" y="388.8" class="st0" width="15.6" height="15.6"/>
	<rect x="240.4" y="388.8" class="st0" width="15.6" height="15.6"/>
	<rect x="256" y="357.6" class="st0" width="15.6" height="15.6"/>
	<rect x="334.1" y="388.8" class="st0" width="15.6" height="15.6"/>
	<rect x="287.2" y="357.6" class="st0" width="15.6" height="15.6"/>
	<rect x="318.5" y="357.6" class="st0" width="15.6" height="15.6"/>
	<rect x="349.8" y="357.6" class="st0" width="15.6" height="15.6"/>
	<rect x="365.4" y="326.3" class="st0" width="15.6" height="15.6"/>
	<rect x="334.1" y="326.3" class="st0" width="15.6" height="15.6"/>
	<rect x="365.4" y="388.8" class="st0" width="15.6" height="15.6"/>
	<rect x="396.6" y="326.3" class="st0" width="15.6" height="15.6"/>
	<rect x="427.9" y="326.3" class="st0" width="15.6" height="15.6"/>
	<rect x="412.2" y="357.6" class="st0" width="15.6" height="15.6"/>
	<rect x="443.5" y="357.6" class="st0" width="15.6" height="15.6"/>
	<rect x="443.5" y="420.1" class="st0" width="15.6" height="15.6"/>
	<rect x="396.6" y="388.8" class="st0" width="15.6" height="15.6"/>
	<rect x="427.9" y="388.8" class="st0" width="15.6" height="15.6"/>
	<rect x="349.8" y="420.1" class="st0" width="15.6" height="15.6"/>
	<rect x="381" y="420.1" class="st0" width="15.6" height="15.6"/>
	<rect x="240.4" y="326.3" class="st0" width="15.6" height="15.6"/>
	<rect x="271.6" y="326.3" class="st0" width="15.6" height="15.6"/>
	<rect x="302.9" y="326.3" class="st0" width="15.6" height="15.6"/>
</g>
</svg>
