<?xml version="1.0" encoding="utf-8"?>
<!-- Generator: Adobe Illustrator 24.3.0, SVG Export Plug-In . SVG Version: 6.00 Build 0)  -->
<svg version="1.1" id="Layer_1" xmlns="http://www.w3.org/2000/svg" xmlns:xlink="http://www.w3.org/1999/xlink" x="0px" y="0px"
	 viewBox="0 0 512 512" style="enable-background:new 0 0 512 512;" xml:space="preserve">
<style type="text/css">
	.st0{fill:#FFFFFF;}
</style>
<g>
	<path class="st0" d="M52.8,181.8h46.8c4.3,0,7.8-3.5,7.8-7.8s-3.5-7.8-7.8-7.8H52.8c-4.3,0-7.8,3.5-7.8,7.8S48.5,181.8,52.8,181.8z
		"/>
	<path class="st0" d="M99.7,197.5H52.8c-4.3,0-7.8,3.5-7.8,7.8s3.5,7.8,7.8,7.8h46.8c4.3,0,7.8-3.5,7.8-7.8S104,197.5,99.7,197.5z"
		/>
	<path class="st0" d="M99.7,228.7H52.8c-4.3,0-7.8,3.5-7.8,7.8c0,4.3,3.5,7.8,7.8,7.8h46.8c4.3,0,7.8-3.5,7.8-7.8
		C107.5,232.2,104,228.7,99.7,228.7z"/>
	<path class="st0" d="M99.7,259.9H52.8c-4.3,0-7.8,3.5-7.8,7.8s3.5,7.8,7.8,7.8h46.8c4.3,0,7.8-3.5,7.8-7.8S104,259.9,99.7,259.9z"
		/>
	<path class="st0" d="M99.7,291.1H52.8c-4.3,0-7.8,3.5-7.8,7.8s3.5,7.8,7.8,7.8h46.8c4.3,0,7.8-3.5,7.8-7.8S104,291.1,99.7,291.1z"
		/>
	<path class="st0" d="M99.7,322.4H52.8c-4.3,0-7.8,3.5-7.8,7.8s3.5,7.8,7.8,7.8h46.8c4.3,0,7.8-3.5,7.8-7.8S104,322.4,99.7,322.4z"
		/>
	<path class="st0" d="M99.7,353.6H52.8c-4.3,0-7.8,3.5-7.8,7.8s3.5,7.8,7.8,7.8h46.8c4.3,0,7.8-3.5,7.8-7.8S104,353.6,99.7,353.6z"
		/>
	<path class="st0" d="M99.7,384.8H52.8c-4.3,0-7.8,3.5-7.8,7.8c0,4.3,3.5,7.8,7.8,7.8h46.8c4.3,0,7.8-3.5,7.8-7.8
		C107.5,388.3,104,384.8,99.7,384.8z"/>
	<path class="st0" d="M99.7,416H52.8c-4.3,0-7.8,3.5-7.8,7.8s3.5,7.8,7.8,7.8h46.8c4.3,0,7.8-3.5,7.8-7.8S104,416,99.7,416z"/>
	<path class="st0" d="M505.6,455.1V158.4c0-12.9-10.5-23.4-23.4-23.4h-15.6v-7.8c0-12.9-10.5-23.4-23.4-23.4h-62.5v-82
		c0-8.6-7-15.6-15.6-15.6H146.5c-8.6,0-15.6,7-15.6,15.6v82H68.5c-12.9,0-23.4,10.5-23.4,23.4v7.8H29.4C16.5,135,6,145.5,6,158.4
		v296.6c0,4.3,3.5,7.8,7.8,7.8h108.5L12.2,490.6C8,491.8,5.6,496,6.4,500c0.8,3.5,3.9,5.9,7.4,5.9c0.8,0,1.2,0,2-0.4l171-42.5h138.6
		l171,42.5c0.8,0,1.2,0.4,2,0.4c4.3,0,7.8-3.5,7.8-7.8c0-3.5-2.3-6.6-5.9-7.4l-110.5-27.7h108.1
		C502.1,462.9,505.6,459.4,505.6,455.1z M443.2,119.4c4.3,0,7.8,3.5,7.8,7.8v7.8h-70.3v-15.6H443.2z M185.5,447.3V279.4h140.5v167.8
		H185.5z M146.5,21.8h218.6v425.4h-23.4V279.4c0-8.6-7-15.6-15.6-15.6H185.5c-8.6,0-15.6,7-15.6,15.6v167.8h-23.4V21.8z M60.6,127.2
		c0-4.3,3.5-7.8,7.8-7.8h62.5V135H60.6V127.2z M21.6,158.4c0-4.3,3.5-7.8,7.8-7.8h101.5v296.6H21.6V158.4z M490,447.3H380.7V150.6
		h101.5c4.3,0,7.8,3.5,7.8,7.8V447.3z"/>
	<path class="st0" d="M458.8,166.2h-46.8c-4.3,0-7.8,3.5-7.8,7.8s3.5,7.8,7.8,7.8h46.8c4.3,0,7.8-3.5,7.8-7.8
		S463.1,166.2,458.8,166.2z"/>
	<path class="st0" d="M458.8,197.5h-46.8c-4.3,0-7.8,3.5-7.8,7.8s3.5,7.8,7.8,7.8h46.8c4.3,0,7.8-3.5,7.8-7.8
		S463.1,197.5,458.8,197.5z"/>
	<path class="st0" d="M458.8,228.7h-46.8c-4.3,0-7.8,3.5-7.8,7.8c0,4.3,3.5,7.8,7.8,7.8h46.8c4.3,0,7.8-3.5,7.8-7.8
		C466.6,232.2,463.1,228.7,458.8,228.7z"/>
	<path class="st0" d="M458.8,259.9h-46.8c-4.3,0-7.8,3.5-7.8,7.8s3.5,7.8,7.8,7.8h46.8c4.3,0,7.8-3.5,7.8-7.8
		S463.1,259.9,458.8,259.9z"/>
	<path class="st0" d="M458.8,291.1h-46.8c-4.3,0-7.8,3.5-7.8,7.8s3.5,7.8,7.8,7.8h46.8c4.3,0,7.8-3.5,7.8-7.8
		S463.1,291.1,458.8,291.1z"/>
	<path class="st0" d="M458.8,322.4h-46.8c-4.3,0-7.8,3.5-7.8,7.8s3.5,7.8,7.8,7.8h46.8c4.3,0,7.8-3.5,7.8-7.8
		S463.1,322.4,458.8,322.4z"/>
	<path class="st0" d="M458.8,353.6h-46.8c-4.3,0-7.8,3.5-7.8,7.8s3.5,7.8,7.8,7.8h46.8c4.3,0,7.8-3.5,7.8-7.8
		S463.1,353.6,458.8,353.6z"/>
	<path class="st0" d="M458.8,384.8h-46.8c-4.3,0-7.8,3.5-7.8,7.8c0,4.3,3.5,7.8,7.8,7.8h46.8c4.3,0,7.8-3.5,7.8-7.8
		C466.6,388.3,463.1,384.8,458.8,384.8z"/>
	<path class="st0" d="M458.8,416h-46.8c-4.3,0-7.8,3.5-7.8,7.8s3.5,7.8,7.8,7.8h46.8c4.3,0,7.8-3.5,7.8-7.8S463.1,416,458.8,416z"/>
	<path class="st0" d="M177.7,99.9c4.3,0,7.8-3.5,7.8-7.8V53c0-4.3-3.5-7.8-7.8-7.8c-4.3,0-7.8,3.5-7.8,7.8v39
		C169.9,96.4,173.4,99.9,177.7,99.9z"/>
	<path class="st0" d="M209,99.9c4.3,0,7.8-3.5,7.8-7.8V53c0-4.3-3.5-7.8-7.8-7.8c-4.3,0-7.8,3.5-7.8,7.8v39
		C201.2,96.4,204.7,99.9,209,99.9z"/>
	<path class="st0" d="M240.2,99.9c4.3,0,7.8-3.5,7.8-7.8V53c0-4.3-3.5-7.8-7.8-7.8c-4.3,0-7.8,3.5-7.8,7.8v39
		C232.4,96.4,235.9,99.9,240.2,99.9z"/>
	<path class="st0" d="M271.4,99.9c4.3,0,7.8-3.5,7.8-7.8V53c0-4.3-3.5-7.8-7.8-7.8s-7.8,3.5-7.8,7.8v39
		C263.6,96.4,267.1,99.9,271.4,99.9z"/>
	<path class="st0" d="M302.6,99.9c4.3,0,7.8-3.5,7.8-7.8V53c0-4.3-3.5-7.8-7.8-7.8c-4.3,0-7.8,3.5-7.8,7.8v39
		C294.8,96.4,298.3,99.9,302.6,99.9z"/>
	<path class="st0" d="M333.9,99.9c4.3,0,7.8-3.5,7.8-7.8V53c0-4.3-3.5-7.8-7.8-7.8s-7.8,3.5-7.8,7.8v39
		C326.1,96.4,329.6,99.9,333.9,99.9z"/>
	<path class="st0" d="M177.7,170.1c4.3,0,7.8-3.5,7.8-7.8v-39c0-4.3-3.5-7.8-7.8-7.8c-4.3,0-7.8,3.5-7.8,7.8v39
		C169.9,166.6,173.4,170.1,177.7,170.1z"/>
	<path class="st0" d="M209,170.1c4.3,0,7.8-3.5,7.8-7.8v-39c0-4.3-3.5-7.8-7.8-7.8c-4.3,0-7.8,3.5-7.8,7.8v39
		C201.2,166.6,204.7,170.1,209,170.1z"/>
	<path class="st0" d="M240.2,170.1c4.3,0,7.8-3.5,7.8-7.8v-39c0-4.3-3.5-7.8-7.8-7.8c-4.3,0-7.8,3.5-7.8,7.8v39
		C232.4,166.6,235.9,170.1,240.2,170.1z"/>
	<path class="st0" d="M271.4,170.1c4.3,0,7.8-3.5,7.8-7.8v-39c0-4.3-3.5-7.8-7.8-7.8s-7.8,3.5-7.8,7.8v39
		C263.6,166.6,267.1,170.1,271.4,170.1z"/>
	<path class="st0" d="M302.6,170.1c4.3,0,7.8-3.5,7.8-7.8v-39c0-4.3-3.5-7.8-7.8-7.8c-4.3,0-7.8,3.5-7.8,7.8v39
		C294.8,166.6,298.3,170.1,302.6,170.1z"/>
	<path class="st0" d="M333.9,170.1c4.3,0,7.8-3.5,7.8-7.8v-39c0-4.3-3.5-7.8-7.8-7.8s-7.8,3.5-7.8,7.8v39
		C326.1,166.6,329.6,170.1,333.9,170.1z"/>
	<path class="st0" d="M177.7,240.4c4.3,0,7.8-3.5,7.8-7.8v-39c0-4.3-3.5-7.8-7.8-7.8c-4.3,0-7.8,3.5-7.8,7.8v39
		C169.9,236.9,173.4,240.4,177.7,240.4z"/>
	<path class="st0" d="M209,240.4c4.3,0,7.8-3.5,7.8-7.8v-39c0-4.3-3.5-7.8-7.8-7.8c-4.3,0-7.8,3.5-7.8,7.8v39
		C201.2,236.9,204.7,240.4,209,240.4z"/>
	<path class="st0" d="M240.2,240.4c4.3,0,7.8-3.5,7.8-7.8v-39c0-4.3-3.5-7.8-7.8-7.8c-4.3,0-7.8,3.5-7.8,7.8v39
		C232.4,236.9,235.9,240.4,240.2,240.4z"/>
	<path class="st0" d="M271.4,240.4c4.3,0,7.8-3.5,7.8-7.8v-39c0-4.3-3.5-7.8-7.8-7.8s-7.8,3.5-7.8,7.8v39
		C263.6,236.9,267.1,240.4,271.4,240.4z"/>
	<path class="st0" d="M302.6,240.4c4.3,0,7.8-3.5,7.8-7.8v-39c0-4.3-3.5-7.8-7.8-7.8c-4.3,0-7.8,3.5-7.8,7.8v39
		C294.8,236.9,298.3,240.4,302.6,240.4z"/>
	<path class="st0" d="M333.9,240.4c4.3,0,7.8-3.5,7.8-7.8v-39c0-4.3-3.5-7.8-7.8-7.8s-7.8,3.5-7.8,7.8v39
		C326.1,236.9,329.6,240.4,333.9,240.4z"/>
	<path class="st0" d="M302.6,478.5H209c-4.3,0-7.8,3.5-7.8,7.8s3.5,7.8,7.8,7.8h93.7c4.3,0,7.8-3.5,7.8-7.8S306.9,478.5,302.6,478.5
		z"/>
</g>
</svg>
