<?xml version="1.0" encoding="utf-8"?>
<!-- Generator: Adobe Illustrator 24.3.0, SVG Export Plug-In . SVG Version: 6.00 Build 0)  -->
<svg version="1.1" id="Layer_1" xmlns="http://www.w3.org/2000/svg" xmlns:xlink="http://www.w3.org/1999/xlink" x="0px" y="0px"
	 viewBox="0 0 512 512" style="enable-background:new 0 0 512 512;" xml:space="preserve">
<style type="text/css">
	.st0{fill:#FFFFFF;}
</style>
<g>
	<path class="st0" d="M300.2,211.8l44.2-44.2c-48.8-48.8-128-48.8-176.8,0s-48.8,128,0,176.8s128,48.8,176.8,0l-44.2-44.2
		c-24.4,24.4-64,24.4-88.4,0s-24.4-64,0-88.4C236.2,187.4,275.8,187.4,300.2,211.8z"/>
	<path class="st0" d="M256,6C117.9,6,6,117.9,6,256s111.9,250,250,250s250-111.9,250-250S394.1,6,256,6z M256,443.5
		c-103.6,0-187.5-83.9-187.5-187.5S152.4,68.5,256,68.5S443.5,152.4,443.5,256S359.6,443.5,256,443.5z"/>
</g>
</svg>
