<?xml version="1.0" encoding="utf-8"?>
<!-- Generator: Adobe Illustrator 24.3.0, SVG Export Plug-In . SVG Version: 6.00 Build 0)  -->
<svg version="1.1" id="Capa_1" xmlns="http://www.w3.org/2000/svg" xmlns:xlink="http://www.w3.org/1999/xlink" x="0px" y="0px"
	 viewBox="0 0 512 512" style="enable-background:new 0 0 512 512;" xml:space="preserve">
<style type="text/css">
	.st0{fill:#FFFFFF;}
</style>
<g>
	<g>
		<g>
			<path class="st0" d="M256,244.3l-73.2,48.8v124h29.3V314.6c0-8.1,6.6-14.6,14.6-14.6s14.6,6.6,14.6,14.6v102.5h29.3V314.6
				c0-8.1,6.6-14.6,14.6-14.6c8.1,0,14.6,6.6,14.6,14.6v102.5h29.3v-124L256,244.3z"/>
		</g>
	</g>
	<g>
		<g>
			<path class="st0" d="M20.6,446.4c-8,0-14.6,6.6-14.6,14.7v30.3c0,8.1,6.6,14.6,14.6,14.6h61.5l39.1-59.6H20.6z"/>
		</g>
	</g>
	<g>
		<g>
			<polygon class="st0" points="355.6,446.4 156.4,446.4 117.4,506 394.6,506 			"/>
		</g>
	</g>
	<g>
		<g>
			<path class="st0" d="M491.4,446.4H390.8l39.1,59.6h61.5c8.1,0,14.6-6.6,14.6-14.6v-30.3C506,453,499.4,446.4,491.4,446.4z"/>
		</g>
	</g>
	<g>
		<g>
			<rect x="387.8" y="358.5" class="st0" width="88.9" height="58.6"/>
		</g>
	</g>
	<g>
		<g>
			<rect x="35.3" y="358.5" class="st0" width="88.9" height="58.6"/>
		</g>
	</g>
	<g>
		<g>
			<path class="st0" d="M476.7,270.6h-59.6v-43.9c0-8.1-6.6-14.6-14.6-14.6h-45c-6.4-44.8-42-80.1-86.8-86.5V94.9h73.2
				c8.1,0,14.6-6.6,14.6-14.6V20.6c0-8.1-6.6-14.6-14.6-14.6H256c-8.1,0-14.6,6.6-14.6,14.6c0,10.4,0,99.2,0,104.9
				c-44.8,6.5-80.4,41.7-86.8,86.5h-45c-8.1,0-14.6,6.6-14.6,14.6v43.9H35.3C19.1,270.6,6,283.8,6,299.9c0,16.2,13.1,29.3,29.3,29.3
				h118.2v-43.9c0-4.9,2.4-9.5,6.5-12.2l87.9-58.6c4.9-3.3,11.3-3.3,16.3,0l87.9,58.6c4.1,2.7,6.5,7.3,6.5,12.2v43.9h118.2
				c16.2,0,29.3-13.1,29.3-29.3C506,283.8,492.9,270.6,476.7,270.6z"/>
		</g>
	</g>
</g>
</svg>
