<?xml version="1.0" encoding="utf-8"?>
<!-- Generator: Adobe Illustrator 24.3.0, SVG Export Plug-In . SVG Version: 6.00 Build 0)  -->
<svg version="1.1" id="Layer_1" xmlns="http://www.w3.org/2000/svg" xmlns:xlink="http://www.w3.org/1999/xlink" x="0px" y="0px"
	 viewBox="0 0 512 512" style="enable-background:new 0 0 512 512;" xml:space="preserve">
<style type="text/css">
	.st0{fill:#FFFFFF;}
</style>
<g>
	<path class="st0" d="M422.7,277.6v-41.4l12.1-6c2.8-1.4,4.6-4.3,4.6-7.5V181c0-16.7-9.9-31-24.1-37.6c4.6-5.7,7.4-12.8,7.4-20.7
		c0-18.4-14.9-33.3-33.3-33.3s-33.3,14.9-33.3,33.3c0,7.9,2.9,15,7.4,20.7c-14.2,6.7-24.1,21-24.1,37.6v41.7c0,3.2,1.8,6,4.6,7.5
		l12.1,6v41.4c-48.1,14.4-83.3,59-83.3,111.8c0,64.3,52.3,116.7,116.7,116.7S506,453.7,506,389.3C506,336.6,470.8,292,422.7,277.6z
		 M470,330.5c-7.2,1.7-14.7,3.1-22.4,4.3c-2.3-7.3-5.1-14.4-8.3-21.1c3.5-1.2,6.8-2.6,10.1-4.1C457.2,315.5,464.2,322.6,470,330.5z
		 M422.9,460.4c-8.2-1.7-16.7-2.8-25.3-3.2v-17.7c11.3,0.2,22.5,0.9,33.2,2C428.7,448.2,426,454.5,422.9,460.4z M355.7,460.4
		c-3-5.9-5.7-12.2-8-18.9c10.8-1.2,21.9-1.8,33.2-2v17.7C372.4,457.7,363.9,458.7,355.7,460.4z M397.7,422.8v-25.1h41.4
		c-0.5,9.4-1.7,18.6-3.7,27.6C423.2,423.9,410.5,423.1,397.7,422.8z M343.3,425.3c-2-9-3.3-18.2-3.7-27.6H381v25.1
		C368.1,423.1,355.5,423.9,343.3,425.3z M397.7,381v-25.2c12.8-0.2,25.5-1,37.7-2.4c2,9,3.3,18.2,3.7,27.6
		C439.1,381,397.7,381,397.7,381z M397.7,339.1v-17.6c8.8-0.4,17.2-1.5,25.2-3.2c3.1,6,5.7,12.2,8,18.8
		C420.1,338.2,409,338.9,397.7,339.1z M424.6,300.8c-0.9,0.3-1.8,0.5-3,0.8c-20,4.5-44.1,4.6-64.8-0.1c-0.9-0.2-1.8-0.4-3.4-0.9
		c-2.1-0.5-4-1.2-6-1.8c12.8-6,27-9.4,42-9.4s29.2,3.4,42,9.4C429.1,299.4,427,300.2,424.6,300.8z M355.8,318.3
		c8.1,1.7,16.5,2.8,25.2,3.2v17.6c-11.3-0.2-22.4-0.9-33.2-2C350,330.5,352.7,324.2,355.8,318.3z M381,355.8V381h-41.4
		c0.5-9.4,1.7-18.6,3.7-27.6C355.5,354.7,368.2,355.5,381,355.8z M322.9,381h-33.2c1-12.6,4.5-24.6,9.8-35.5
		c8.7,2.2,17.8,4,27.2,5.5C324.7,360.8,323.4,370.8,322.9,381z M322.9,397.7c0.5,10.2,1.7,20.2,3.8,30c-9.5,1.5-18.5,3.3-27.2,5.5
		c-5.3-10.9-8.8-22.8-9.8-35.5H322.9z M455.7,397.7h33.2c-1,12.6-4.5,24.6-9.8,35.5c-8.6-2.2-17.7-4-27.2-5.5
		C454,417.9,455.3,407.9,455.7,397.7z M455.7,381c-0.5-10.2-1.7-20.2-3.8-30c9.4-1.5,18.5-3.3,27.2-5.5c5.3,10.9,8.8,22.8,9.8,35.5
		H455.7z M389.3,106c9.2,0,16.7,7.5,16.7,16.7s-7.5,16.7-16.7,16.7s-16.7-7.5-16.7-16.7S380.1,106,389.3,106z M368.1,223.5l-12.1-6
		V181c0-13.8,11.2-25,25-25h16.7c13.8,0,25,11.2,25,25v36.5l-12.1,6c-2.8,1.4-4.6,4.3-4.6,7.4v43c-5.5-0.8-11-1.3-16.7-1.3
		s-11.2,0.5-16.7,1.3v-43C372.7,227.8,370.9,225,368.1,223.5z M329.3,309.6c3.3,1.6,6.6,3,10.1,4.1c-3.3,6.8-6,13.8-8.3,21.1
		c-7.7-1.2-15.2-2.6-22.4-4.3C314.5,322.6,321.4,315.5,329.3,309.6z M308.6,448.1c7.2-1.7,14.6-3.1,22.4-4.3
		c2.3,7.4,5.1,14.5,8.3,21.2c-3.5,1.2-6.9,2.6-10,4.1C321.4,463.2,314.4,456.1,308.6,448.1z M347.3,479.9c2.1-0.7,4-1.4,6.2-2
		l3.6-0.8c20.5-4.6,44.2-4.6,64.3,0l3.9,0.9c2.2,0.6,4.1,1.3,6.1,1.9c-12.8,6-27,9.4-42.1,9.4C374.3,489.3,360.1,485.9,347.3,479.9z
		 M449.4,469.1c-3.2-1.5-6.5-2.9-10-4.1c3.2-6.6,6-13.7,8.3-21.1c7.8,1.2,15.2,2.6,22.4,4.3C464.2,456.1,457.3,463.2,449.4,469.1z"
		/>
	<path class="st0" d="M6,389.3C6,453.7,58.3,506,122.7,506s116.7-52.3,116.7-116.7c0-35.8-16.2-67.8-41.7-89.2v-63.9l12.1-6
		c2.8-1.4,4.6-4.3,4.6-7.5V181c0-16.7-9.9-31-24.1-37.6c4.6-5.7,7.4-12.8,7.4-20.7c0-18.4-14.9-33.3-33.3-33.3
		c-2.9,0-5.7,0.5-8.5,1.2c0-0.4,0.1-0.8,0.1-1.2C156,71,141.1,56,122.7,56S89.3,71,89.3,89.3c0,0.4,0.1,0.8,0.1,1.2
		c-2.7-0.7-5.5-1.2-8.5-1.2c-18.4,0-33.3,14.9-33.3,33.3c0,7.9,2.8,15,7.4,20.7c-14.1,6.7-24,21-24,37.7v41.7c0,3.2,1.8,6,4.6,7.5
		l12.1,6v63.9C22.2,321.5,6,353.6,6,389.3z M106.9,143.4c4.6-5.7,7.4-12.8,7.4-20.7c0-0.4-0.1-0.8-0.1-1.2c2.7,0.7,5.5,1.2,8.5,1.2
		c2.9,0,5.7-0.5,8.5-1.2c0,0.4-0.1,0.8-0.1,1.2c0,7.9,2.8,15,7.4,20.7c-6.3,2.9-11.6,7.4-15.7,12.9
		C118.6,150.8,113.2,146.3,106.9,143.4z M122.7,232l8.3,4.2v36.9c-2.8-0.2-5.5-0.4-8.3-0.4s-5.6,0.2-8.3,0.4v-36.9L122.7,232z
		 M122.7,289.3c15,0,29.2,3.4,42,9.4c-2.2,0.7-4.3,1.5-6.7,2c-0.9,0.3-1.8,0.5-3,0.8c-20,4.5-44.1,4.6-64.8-0.1
		c-0.9-0.2-1.8-0.4-3.4-0.9c-2.1-0.5-4-1.2-6-1.8C93.4,292.8,107.7,289.3,122.7,289.3z M156.3,460.4c-8.2-1.7-16.7-2.8-25.3-3.2
		v-17.7c11.3,0.2,22.5,0.9,33.2,2C162,448.2,159.3,454.5,156.3,460.4z M89.1,460.4c-3-5.9-5.7-12.2-8-18.9c10.7-1.2,21.9-1.8,33.2-2
		v17.7C105.8,457.7,97.3,458.7,89.1,460.4z M62.6,309.6c3.3,1.6,6.6,3,10.1,4.1c-3.3,6.8-6,13.8-8.3,21.1
		c-7.7-1.2-15.2-2.6-22.4-4.3C47.8,322.6,54.8,315.5,62.6,309.6z M156.2,318.3c3.1,6,5.8,12.2,8,18.8c-10.8,1.1-21.9,1.8-33.2,2
		v-17.6C139.8,321,148.3,319.9,156.2,318.3z M131,422.8v-25.1h41.4c-0.5,9.4-1.7,18.6-3.7,27.6C156.5,423.9,143.8,423.1,131,422.8z
		 M76.7,425.3c-2-9-3.3-18.2-3.7-27.6h41.4v25.1C101.5,423.1,88.8,423.9,76.7,425.3z M114.3,355.8V381H72.9
		c0.5-9.4,1.7-18.6,3.7-27.6C88.9,354.7,101.5,355.5,114.3,355.8z M131,381v-25.2c12.8-0.2,25.5-1,37.7-2.4c2,9,3.3,18.2,3.7,27.6
		H131z M114.3,339.1c-11.3-0.2-22.4-0.9-33.2-2c2.2-6.5,4.9-12.8,8-18.8c8.1,1.7,16.5,2.8,25.2,3.2V339.1z M60.1,351
		c-2.1,9.8-3.4,19.8-3.8,30H23.1c1-12.6,4.5-24.6,9.8-35.5C41.6,347.7,50.7,349.5,60.1,351z M56.3,397.7c0.5,10.2,1.7,20.2,3.8,30
		c-9.5,1.5-18.5,3.3-27.2,5.5c-5.3-10.9-8.8-22.8-9.8-35.5H56.3z M189.1,397.7h33.2c-1,12.6-4.5,24.6-9.8,35.5
		c-8.6-2.2-17.7-4-27.2-5.5C187.3,417.9,188.6,407.9,189.1,397.7z M189.1,381c-0.5-10.2-1.7-20.2-3.8-30c9.4-1.5,18.5-3.3,27.2-5.5
		c5.3,10.9,8.8,22.8,9.8,35.5H189.1z M181,334.8c-2.3-7.3-5.1-14.4-8.3-21.1c3.5-1.2,6.8-2.6,10.1-4.1c7.9,5.9,14.8,13,20.7,21
		C196.2,332.2,188.7,333.6,181,334.8z M42,448.1c7.2-1.7,14.6-3.1,22.4-4.3c2.3,7.4,5.1,14.5,8.3,21.2c-3.5,1.2-6.9,2.6-10,4.1
		C54.7,463.2,47.8,456.1,42,448.1z M80.6,479.9c2.1-0.7,4-1.4,6.2-2l3.6-0.8c20.5-4.6,44.2-4.6,64.3,0l3.9,0.9
		c2.2,0.6,4.1,1.3,6.1,1.9c-12.8,6-27,9.4-42.1,9.4C107.6,489.3,93.4,485.9,80.6,479.9z M182.7,469.1c-3.2-1.5-6.5-2.9-10-4.1
		c3.2-6.6,6-13.7,8.3-21.1c7.8,1.2,15.2,2.6,22.4,4.3C197.6,456.1,190.6,463.2,182.7,469.1z M197.7,181v36.5l-12.1,6
		c-2.8,1.4-4.6,4.3-4.6,7.4v57.4c-10.2-6-21.4-10.4-33.3-13V231c0-3.2-1.8-6-4.6-7.5l-12.1-6V181c0-13.8,11.2-25,25-25h16.7
		C186.5,156,197.7,167.2,197.7,181z M181,122.7c0,9.2-7.5,16.7-16.7,16.7s-16.7-7.5-16.7-16.7s7.5-16.7,16.7-16.7
		S181,113.5,181,122.7z M122.7,72.7c9.2,0,16.7,7.5,16.7,16.7s-7.5,16.7-16.7,16.7S106,98.5,106,89.3S113.5,72.7,122.7,72.7z
		 M81,106c9.2,0,16.7,7.5,16.7,16.7s-7.5,16.7-16.7,16.7s-16.7-7.5-16.7-16.7S71.8,106,81,106z M59.7,223.5l-12.1-6V181
		c0-13.8,11.2-25,25-25h16.7c13.8,0,25,11.2,25,25v36.5l-12.1,6c-2.8,1.4-4.6,4.3-4.6,7.4v44.4c-11.9,2.6-23.1,7.1-33.3,13V231
		C64.3,227.8,62.6,225,59.7,223.5z"/>
	<path class="st0" d="M302.5,105.2c1.1,0.5,2.3,0.8,3.5,0.8c1.9,0,3.8-0.7,5.3-1.9l50-41.7c1.9-1.6,3-3.9,3-6.4s-1.1-4.8-3-6.4
		l-50-41.7c-2.5-2.1-6-2.5-8.9-1.1s-4.8,4.3-4.8,7.5V31h-100c-4.6,0-8.3,3.7-8.3,8.3v33.3c0,4.6,3.7,8.3,8.3,8.3h100v16.7
		C297.7,100.9,299.5,103.8,302.5,105.2z M206,64.3V47.7h100c4.6,0,8.3-3.7,8.3-8.3v-7.2L343,56l-28.6,23.9v-7.2
		c0-4.6-3.7-8.3-8.3-8.3L206,64.3L206,64.3z"/>
</g>
</svg>
