<?xml version="1.0" encoding="utf-8"?>
<!-- Generator: Adobe Illustrator 24.3.0, SVG Export Plug-In . SVG Version: 6.00 Build 0)  -->
<svg version="1.1" id="Layer_1" xmlns="http://www.w3.org/2000/svg" xmlns:xlink="http://www.w3.org/1999/xlink" x="0px" y="0px"
	 viewBox="0 0 512 512" style="enable-background:new 0 0 512 512;" xml:space="preserve">
<style type="text/css">
	.st0{fill:#FFFFFF;}
</style>
<g>
	<path class="st0" d="M503.4,403.3l-62-57.8V14.1c0-4.5-3.6-8.1-8.1-8.1H110.8c-4.5,0-8.1,3.6-8.1,8.1v24.2H78.6
		c-4.5,0-8.1,3.6-8.1,8.1v346l-21.1,26.4L11.1,434C8,435.2,6,438.2,6,441.5v40.3c0,4.5,3.6,8.1,8.1,8.1h25.7
		C43.1,499.2,52,506,62.5,506s19.4-6.8,22.7-16.1h67.5c3.3,9.4,12.2,16.1,22.7,16.1s19.4-6.8,22.7-16.1h17.6c4.5,0,8.1-3.6,8.1-8.1
		v-8.1h56.5v8.1c0,13.3,10.9,24.2,24.2,24.2h145.2c13.3,0,24.2-10.9,24.2-24.2v-64.5h24.2c3.3,0,6.3-2,7.5-5.1
		C506.7,409.1,505.9,405.6,503.4,403.3z M118.9,22.1h306.5v308.3l-16.1-15.1V110.8c0-2.1-0.8-4.2-2.4-5.7l-64.5-64.5
		c-1.5-1.5-3.5-2.4-5.7-2.4H118.9V22.1z M344.7,65.8l37,37h-37V65.8z M62.5,489.9c-4.5,0-8.1-3.6-8.1-8.1s3.6-8.1,8.1-8.1
		s8.1,3.6,8.1,8.1C70.5,486.3,66.9,489.9,62.5,489.9z M175.4,489.9c-4.5,0-8.1-3.6-8.1-8.1s3.6-8.1,8.1-8.1s8.1,3.6,8.1,8.1
		C183.4,486.3,179.8,489.9,175.4,489.9z M207.6,473.7h-9.5c-3.3-9.4-12.2-16.1-22.7-16.1s-19.4,6.8-22.7,16.1H85.2
		c-3.3-9.4-12.2-16.1-22.7-16.1s-19.4,6.8-22.7,16.1H22.1v-26.8l35.2-14.1c1.3-0.5,2.4-1.4,3.3-2.5L90.4,393h20.3v24.2h-16v16.1
		h48.4v-16.1H127V393h19.6l21.8,36.4c1.2,1.9,3.1,3.3,5.3,3.8l33.8,6.8L207.6,473.7L207.6,473.7z M223.7,457.6v-24.2
		c0-3.8-2.7-7.2-6.5-7.9l-36.8-7.4L158,380.8c-1.5-2.4-4.1-3.9-6.9-3.9H86.6V54.4h241.9v56.5c0,4.5,3.6,8.1,8.1,8.1h56.5v181.4
		l-10.6-9.9c-3.1-2.9-7.9-2.9-11,0l-121,112.9c-2.4,2.3-3.2,5.8-2,8.9s4.2,5.1,7.5,5.1h24.2v40.3L223.7,457.6L223.7,457.6z
		 M401.2,489.9h-48.4v-32.3h48.4V489.9z M457.6,481.8c0,4.5-3.6,8.1-8.1,8.1h-32.3v-40.3c0-4.5-3.6-8.1-8.1-8.1h-64.5
		c-4.5,0-8.1,3.6-8.1,8.1v40.3h-32.3c-4.5,0-8.1-3.6-8.1-8.1v-64.5h161.3v64.5H457.6z M276.5,401.2L377,307.4l100.5,93.8H276.5z"/>
	<path class="st0" d="M110.8,118.9h193.5c4.5,0,8.1-3.6,8.1-8.1V78.6c0-4.5-3.6-8.1-8.1-8.1H110.8c-4.5,0-8.1,3.6-8.1,8.1v32.3
		C102.8,115.3,106.4,118.9,110.8,118.9z M118.9,86.6h177.4v16.1H118.9V86.6z"/>
	<path class="st0" d="M191.5,239.9h-16.1V256h-16.1c-3.3,0-6.2,2-7.5,5c-1.2,3-0.6,6.5,1.7,8.8l34.6,34.6h-37v16.1h24.2v16.1h16.1
		v-16.1h16.1c3.3,0,6.2-2,7.5-5c1.2-3,0.6-6.5-1.8-8.8l-34.6-34.6h37V256h-24.2v-16.1H191.5z"/>
	<path class="st0" d="M183.4,207.6c-44.5,0-80.6,36.2-80.6,80.6s36.2,80.6,80.6,80.6s80.6-36.2,80.6-80.6S227.9,207.6,183.4,207.6z
		 M183.4,352.8c-35.6,0-64.5-28.9-64.5-64.5s28.9-64.5,64.5-64.5s64.5,28.9,64.5,64.5S219,352.8,183.4,352.8z"/>
	<rect x="102.8" y="135" class="st0" width="274.2" height="16.1"/>
	<rect x="102.8" y="167.3" class="st0" width="274.2" height="16.1"/>
	<rect x="280.2" y="199.5" class="st0" width="96.8" height="16.1"/>
	<rect x="280.2" y="231.8" class="st0" width="96.8" height="16.1"/>
	<rect x="280.2" y="264.1" class="st0" width="96.8" height="16.1"/>
</g>
</svg>
