<?xml version="1.0" encoding="utf-8"?>
<!-- Generator: Adobe Illustrator 24.3.0, SVG Export Plug-In . SVG Version: 6.00 Build 0)  -->
<svg version="1.1" id="Layer_1" xmlns="http://www.w3.org/2000/svg" xmlns:xlink="http://www.w3.org/1999/xlink" x="0px" y="0px"
	 viewBox="0 0 512 512" style="enable-background:new 0 0 512 512;" xml:space="preserve">
<style type="text/css">
	.st0{fill:#FFFFFF;}
</style>
<path class="st0" d="M504.5,453.4l-40.7-81.3c6.9-13.7,10.8-29.1,10.8-45.5c0-28.7-12.1-54.7-31.4-73.1V52c0-25.4-20.6-46-46-46H52
	C27,6,6,26.3,6,52v47.1c0,8.1,6.6,14.6,14.6,14.6h48.1v253.1H20.6c-8.1,0-14.6,6.6-14.6,14.6v47.1c0,25.8,21,46,46,46h200.5
	l59.7,29.8c2.1,1,4.3,1.5,6.5,1.5c5.4,0,10.5-3,13.1-8.1l11.6-23.3h60.3l11.6,23.3c2.7,5.4,8,8.1,13.1,8.1c2.3,0,4.5-0.5,6.5-1.5
	l62.8-31.4c3.5-1.7,6.1-4.8,7.3-8.5C506.5,460.9,506.2,456.9,504.5,453.4z M445.3,326.6c0,39.5-32.1,71.6-71.6,71.6
	S302,366.1,302,326.6s32.1-71.6,71.6-71.6S445.3,287.1,445.3,326.6z M35.3,52c0-9.4,7.6-16.7,16.7-16.7c9.2,0,16.7,7.5,16.7,16.7
	v32.4H35.3V52z M35.3,396.2h33.5v32.4c0,9.2-7.5,16.7-16.7,16.7c-9.1,0-16.7-7.4-16.7-16.7v-32.4H35.3z M94.9,35.3h302.3
	c9.2,0,16.7,7.5,16.7,16.7v182c-12.3-5.4-26-8.4-40.3-8.4H146.2c-8.1,0-14.6,6.6-14.6,14.6s6.6,14.6,14.6,14.6h156.5
	c-9.6,9.5-17.2,20.8-22.4,33.5H146.2c-8.1,0-14.6,6.6-14.6,14.6c0,8.1,6.6,14.6,14.6,14.6h127c-0.3,2.9-0.4,5.9-0.4,8.9
	c0,16.3,3.9,31.8,10.8,45.5L247,445.1H95c2-5.2,3.1-10.8,3.1-16.7V52C98.1,46.1,96.9,40.5,94.9,35.3z M312.2,471.7l-36.6-18.3
	l27.4-54.8c9.8,9.6,21.5,17.2,34.6,22.2L312.2,471.7z M358.2,445.3l9-18c2.2,0.1,4.3,0.2,6.5,0.2s4.4-0.1,6.5-0.2l9,18H358.2z
	 M435.1,471.7l-25.4-50.8c13-5,24.8-12.6,34.6-22.2l27.4,54.8L435.1,471.7z"/>
<path class="st0" d="M418.2,300.7c-6.4-5.3-15.8-4.4-21.1,1.9l-28,33.6l-12.7-17c-5-6.6-14.4-8-21-3s-8,14.4-3,21l24.1,32.1
	c5.6,7.5,17.1,8.3,23.5,0.6l40.2-48.2C425.5,315.5,424.6,306,418.2,300.7z"/>
<path class="st0" d="M191.7,110.3h128.5c8.3,0,15-6.7,15-15s-6.7-15-15-15H191.7c-8.3,0-15,6.7-15,15S183.4,110.3,191.7,110.3z"/>
<path class="st0" d="M143.5,383.5h80.3c8.3,0,15-6.7,15-15s-6.7-15-15-15h-80.3c-8.3,0-15,6.7-15,15
	C128.5,376.7,135.2,383.5,143.5,383.5z"/>
<path class="st0" d="M143.5,190.7h224.9c8.3,0,15-6.7,15-15s-6.7-15-15-15H143.5c-8.3,0-15,6.7-15,15
	C128.5,183.9,135.2,190.7,143.5,190.7z"/>
</svg>
