<?xml version="1.0" encoding="utf-8"?>
<!-- Generator: Adobe Illustrator 24.3.0, SVG Export Plug-In . SVG Version: 6.00 Build 0)  -->
<svg version="1.1" id="Layer_1" xmlns="http://www.w3.org/2000/svg" xmlns:xlink="http://www.w3.org/1999/xlink" x="0px" y="0px"
	 viewBox="0 0 512 512" style="enable-background:new 0 0 512 512;" xml:space="preserve">
<style type="text/css">
	.st0{fill:#FFFFFF;}
</style>
<g>
	<path class="st0" d="M385,30.8l-76.6,76.6L270,69c-6.9-6.9-16.1-10.7-25.9-10.7c-10,0-19.1,4-25.7,10.6l0,0L19.2,275.3
		c-8.5,8.8-13.2,20.4-13.2,33s4.9,24.4,13.8,33.2L142.1,464c8.9,8.9,20.7,13.8,33.2,13.8s24.4-4.9,33.2-13.8l31.3-31.3l48.5,48.5
		l217.6-226V151.8L385,30.8z M461,203.5l28.9-28.9v57.8L461,203.5z M229.3,80.9l0.3-0.4c3.7-3.8,8.9-6.1,14.5-6.1
		c5.5,0,10.6,2.1,14.5,6l38.4,38.4l-28.9,28.9l-38.4-38.4c-3.9-3.9-6-9-6-14.5C223.7,89.5,225.9,84.6,229.3,80.9z M197.2,452.5
		c-11.7,11.7-32,11.7-43.7,0L31.2,330.2c-5.8-5.8-9-13.6-9-22.2c0-8,3.1-15.7,8.7-21.4l177.6-183.9c1.5,6.9,4.8,13.2,9.9,18.2
		l133.5,133.5c5.8,5.8,9,13.6,9,21.8s-3.2,16-9,21.8L197.2,452.5z M288.1,458.1l-36.9-36.9l111.9-111.9c8.9-8.9,13.8-20.7,13.8-33.2
		c0-12.6-4.9-24.4-13.8-33.2l-83.7-83.7L385,53.6l101.5,101.5l-48.4,48.4l48.5,48.5L288.1,458.1z"/>
	
		<rect x="248.8" y="83.6" transform="matrix(0.7071 -0.7071 0.7071 0.7071 -0.9011 213.1688)" class="st0" width="16.1" height="48.1"/>
	<path class="st0" d="M34.9,316.4l132.4,132.4l35.6-35.6L70.5,280.8L34.9,316.4z M167.3,426L57.7,316.4l12.8-12.8l109.6,109.6
		L167.3,426z"/>
	<path class="st0" d="M215.7,179.3c-48.9,0-88.7,39.8-88.7,88.7s39.8,88.7,88.7,88.7s88.7-39.8,88.7-88.7S264.6,179.3,215.7,179.3z
		 M143.1,268c0-2.7,0.2-5.4,0.5-8.1h31.8c4.4,0,8.1,3.6,8.1,8.1s-3.6,8.1-8.1,8.1h-31.8C143.3,273.5,143.1,270.8,143.1,268z
		 M147.3,292.2h28c13.3,0,24.2-10.9,24.2-24.2c0-13.3-10.9-24.2-24.2-24.2h-28c10-28.1,36.8-48.4,68.3-48.4
		c17.2,0,33.1,6.1,45.5,16.1h-13.3c-13.3,0-24.2,10.9-24.2,24.2s10.9,24.2,24.2,24.2c4.4,0,8.1,3.6,8.1,8.1s-3.6,8.1-8.1,8.1h-16.1
		c-13.3,0-24.2,10.9-24.2,24.2c0,13.3,10.9,24.2,24.2,24.2h29.4c-12.5,10.1-28.3,16.1-45.5,16.1
		C184.2,340.6,157.3,320.4,147.3,292.2z M276,308.4h-44.2c-4.4,0-8.1-3.6-8.1-8.1c0-4.4,3.6-8.1,8.1-8.1h16.1
		c13.3,0,24.2-10.9,24.2-24.2c0-13.3-10.9-24.2-24.2-24.2c-4.4,0-8.1-3.6-8.1-8.1c0-4.4,3.6-8.1,8.1-8.1h28
		c7.7,11.5,12.3,25.4,12.3,40.3C288.3,283,283.7,296.8,276,308.4z"/>
	
		<rect x="305.5" y="110.8" transform="matrix(0.7071 -0.7071 0.7071 0.7071 20.462 287.1063)" class="st0" width="102.6" height="16.1"/>
	<path class="st0" d="M441.5,163.2c0-22.2-18.1-40.3-40.3-40.3c-22.2,0-40.3,18.1-40.3,40.3s18.1,40.3,40.3,40.3
		S441.5,185.4,441.5,163.2z M377,163.2c0-13.3,10.9-24.2,24.2-24.2s24.2,10.9,24.2,24.2s-10.9,24.2-24.2,24.2S377,176.5,377,163.2z"
		/>
	
		<rect x="268.5" y="393" transform="matrix(0.7071 -0.7071 0.7071 0.7071 -193.2862 335.5142)" class="st0" width="79.8" height="16.1"/>
	
		<rect x="341.4" y="348.7" transform="matrix(0.7071 -0.7071 0.7071 0.7071 -148.9163 353.9408)" class="st0" width="22.8" height="16.1"/>
	
		<rect x="148.9" y="173.9" transform="matrix(0.7071 -0.7071 0.7071 0.7071 -82.8268 163.9879)" class="st0" width="15.3" height="16.1"/>
	
		<rect x="193.8" y="128.6" transform="matrix(0.7071 -0.7071 0.7071 0.7071 -37.5292 182.7781)" class="st0" width="16.1" height="16.1"/>
	
		<rect x="171" y="151.4" transform="matrix(0.7071 -0.7071 0.7071 0.7071 -60.3308 173.3227)" class="st0" width="16.1" height="16.1"/>
	
		<rect x="350.5" y="288.2" transform="matrix(0.7071 -0.7071 0.7071 0.7071 -88.4526 378.9726)" class="st0" width="125.5" height="16.1"/>
</g>
</svg>
