<?xml version="1.0" encoding="utf-8"?>
<!-- Generator: Adobe Illustrator 24.3.0, SVG Export Plug-In . SVG Version: 6.00 Build 0)  -->
<svg version="1.1" id="Layer_1" xmlns="http://www.w3.org/2000/svg" xmlns:xlink="http://www.w3.org/1999/xlink" x="0px" y="0px"
	 viewBox="0 0 512 512" style="enable-background:new 0 0 512 512;" xml:space="preserve">
<style type="text/css">
	.st0{fill:#FFFFFF;}
</style>
<g>
	<path class="st0" d="M180.5,148c0-5.2-4.2-9.4-9.4-9.4c-2.5,0-4.9,1-6.7,2.8l-23.1,23.1c-1.8,1.8-2.8,4.1-2.8,6.7
		c0,5.2,4.2,9.4,9.4,9.4c2.5,0,4.9-1,6.7-2.8l23.1-23.1C179.5,152.8,180.5,150.5,180.5,148z"/>
	<path class="st0" d="M198.3,230.8c2.5,0,4.9-1,6.7-2.8l23.1-23.1c1.8-1.8,2.8-4.1,2.8-6.7c0-5.2-4.2-9.4-9.4-9.4
		c-2.5,0-4.9,1-6.7,2.8l-23.1,23.1c-1.8,1.8-2.8,4.1-2.8,6.7C188.9,226.6,193.1,230.8,198.3,230.8z"/>
	<path class="st0" d="M223.5,256c2.5,0,4.9-1,6.7-2.8l23.1-23.1c1.8-1.8,2.8-4.1,2.8-6.7c0-5.2-4.2-9.4-9.4-9.4
		c-2.5,0-4.9,1-6.7,2.8l-23.1,23.1c-1.8,1.8-2.8,4.1-2.8,6.7C214.1,251.8,218.3,256,223.5,256z"/>
	<polygon class="st0" points="499.3,107.2 499.3,12.7 468,12.7 360.2,74.3 402.1,137.1 	"/>
	<polygon class="st0" points="112.1,58.3 43.7,12.7 12.7,12.7 12.7,107.5 90.9,135.9 	"/>
	<path class="st0" d="M171.1,121.8c14.1,0,25.6,11.3,26.1,25.3c13.7,0.5,24.7,11.5,25.2,25.2c13.7,0.5,24.7,11.5,25.2,25.2
		c14,0.5,25.3,12,25.3,26.1c0,1.9-0.3,3.8-0.7,5.7l8.3,6.9c2.5,2.1,5.6,3.2,8.8,3.2c4.8,0,8.8-3.9,8.8-8.8c0-2.6-1.1-5.1-3.1-6.7
		l-44.2-36.8l10.7-12.9l44.2,36.8l1.4,1.2c1.6,1.3,3.6,2,5.6,2h1.8c4.8,0,8.8-3.9,8.8-8.8c0-2.6-1.1-5.1-3.1-6.7l-44.2-36.8
		l10.7-12.9l44.2,36.8l1.3,1.1c1.6,1.4,3.7,2.1,5.8,2.1h1.5c5,0,9-4,9-9c0-2.6-1.1-5-3-6.7l-70.9-63.8c-5.4-4.9-13.9-5.7-20.1-1.9
		l-31.2,18.7c-4.4,2.6-9.4,4-14.5,4c-15.5,0-28.1-12.6-28.1-28.1v-1.7c0-10.7,5.9-20.3,15.5-25.1l41.9-20.9l-12.3-4
		c-14.5-4.6-30.1-5.3-45-2l-51.5,11.4L106.4,143l20.7,12.4c0.7-1,1.5-2,2.4-2.9l23.1-23.1C157.5,124.5,164.1,121.8,171.1,121.8z"/>
	<path class="st0" d="M173.1,205.7c2.5,0,4.9-1,6.7-2.8l23.1-23.1c1.8-1.8,2.8-4.1,2.8-6.7c0-5.2-4.2-9.4-9.4-9.4
		c-2.5,0-4.9,1-6.7,2.8l-23.1,23.1c-1.8,1.8-2.8,4.1-2.8,6.7C163.7,201.4,167.9,205.7,173.1,205.7z"/>
	<path class="st0" d="M263.4,243.7l-13,13l6.3,5.5c1.6,1.4,3.6,2.2,5.8,2.2h1.6c4.8,0,8.8-3.9,8.8-8.7c0-2.6-1.1-5.1-3.1-6.7
		L263.4,243.7z"/>
	<path class="st0" d="M329.2,79.5l-52.7-15.1c-8.6-2.5-18.1-1.6-26.1,2.4l-46.8,23.4c-3.9,1.9-6.2,5.8-6.2,10.1v1.7
		c0,6.2,5.1,11.3,11.3,11.3c2.1,0,4.1-0.6,5.8-1.6L245.6,93c12.4-7.4,29.2-5.8,40,3.9l70.9,63.8c0.4,0.3,0.7,0.8,1,1.1l29.2-17.5
		l-43-64.5L329.2,79.5z"/>
	<polygon class="st0" points="449,225.2 391.9,301.3 405.3,311.4 440.6,264.4 440.6,440.6 457.3,440.6 457.3,264.4 492.6,311.4 
		506,301.3 	"/>
	<rect x="440.6" y="457.3" class="st0" width="16.8" height="16.8"/>
	<polygon class="st0" points="6,301.3 19.4,311.4 54.7,264.4 54.7,440.6 71.4,440.6 71.4,264.4 106.7,311.4 120.1,301.3 63,225.2 	
		"/>
	<rect x="54.7" y="457.3" class="st0" width="16.8" height="16.8"/>
	<path class="st0" d="M297.2,254.6c-2.4,0.8-5,1.3-7.6,1.4c-0.1,8-4,15.1-9.9,19.7c44.2,10.6,77,50.3,77,97.8
		c0,55.6-45.1,100.7-100.7,100.7S155.3,429,155.3,373.4c0-51.6,38.8-94.1,88.8-99.9l-6-5.3c-4.3,2.9-9.4,4.5-14.7,4.5
		c-9.5,0-17.7-5.1-22.3-12.6c-43.4,20.9-71,64.5-71,113.3c0,69.4,56.5,125.8,125.8,125.8s125.8-56.5,125.8-125.8
		C381.8,319.2,348,272.1,297.2,254.6z"/>
	<path class="st0" d="M247.6,331.5h16.8c9.3,0,16.8,7.5,16.8,16.8h16.8c0-18.5-15.1-33.6-33.6-33.6v-16.8h-16.8v16.8
		c-18.5,0-33.6,15.1-33.6,33.6c0,18.5,15.1,33.6,33.6,33.6h16.8c9.3,0,16.8,7.5,16.8,16.8s-7.5,16.8-16.8,16.8h-16.8
		c-9.3,0-16.8-7.5-16.8-16.8v-8.4h-16.8v8.4c0,18.5,15.1,33.6,33.6,33.6V449h16.8v-16.8c18.5,0,33.6-15.1,33.6-33.6
		c0-18.5-15.1-33.6-33.6-33.6h-16.8c-9.3,0-16.8-7.5-16.8-16.8S238.4,331.5,247.6,331.5z"/>
</g>
</svg>
