<?xml version="1.0" encoding="utf-8"?>
<!-- Generator: Adobe Illustrator 24.3.0, SVG Export Plug-In . SVG Version: 6.00 Build 0)  -->
<svg version="1.1" id="Layer_1" xmlns="http://www.w3.org/2000/svg" xmlns:xlink="http://www.w3.org/1999/xlink" x="0px" y="0px"
	 viewBox="0 0 512 512" style="enable-background:new 0 0 512 512;" xml:space="preserve">
<style type="text/css">
	.st0{fill:#FFFFFF;}
</style>
<g>
	<g>
		<g>
			<path class="st0" d="M197.6,139.6c0-10.8-8.7-19.5-19.5-19.5c-10.8,0-19.5,8.7-19.5,19.5v22.1h39.2L197.6,139.6L197.6,139.6z"/>
			<circle class="st0" cx="178.1" cy="95.5" r="17.1"/>
		</g>
		<g>
			<circle class="st0" cx="130.4" cy="95.5" r="17.1"/>
			<path class="st0" d="M149.9,139.6c0-8-4.7-14.8-11.7-17.9l-7.8,13.7l-7.8-13.7c-6.9,3.1-11.7,9.8-11.7,17.9v22.1H150L149.9,139.6
				L149.9,139.6z"/>
		</g>
		<g>
			<path class="st0" d="M102.1,139.6c0-10.8-8.7-19.5-19.5-19.5s-19.5,8.7-19.5,19.5v22.1h39.2L102.1,139.6L102.1,139.6z"/>
			<circle class="st0" cx="82.6" cy="95.5" r="17.1"/>
		</g>
	</g>
	<g>
		<g>
			<path class="st0" d="M197.6,411.6c0-10.8-8.7-19.5-19.5-19.5c-10.8,0-19.5,8.7-19.5,19.5v22.1h39.2L197.6,411.6L197.6,411.6z"/>
			<circle class="st0" cx="178.1" cy="367.6" r="17.1"/>
		</g>
		<g>
			<circle class="st0" cx="130.4" cy="367.6" r="17.1"/>
			<path class="st0" d="M149.9,411.6c0-8-4.7-14.8-11.7-17.9l-7.8,13.7l-7.8-13.7c-6.9,3.1-11.7,9.8-11.7,17.9v22.1H150L149.9,411.6
				L149.9,411.6z"/>
		</g>
		<g>
			<path class="st0" d="M102.1,411.6c0-10.8-8.7-19.5-19.5-19.5s-19.5,8.7-19.5,19.5v22.1h39.2L102.1,411.6L102.1,411.6z"/>
			<circle class="st0" cx="82.6" cy="367.6" r="17.1"/>
		</g>
	</g>
	<path class="st0" d="M490.9,248.1l-55.2-31.9c-6.2-3.5-13.9,0.9-13.9,8v19.5h-12.8c-29.3,0-53-23.7-53.2-53l0.4-11.5v-0.5
		c0-42.7-34.6-77.3-77.3-77.3h-36.3C233.7,47.4,186.9,6,130.4,6C67.7,6,16.4,57,16.4,119.9s51,113.9,113.9,113.9
		c60.9,0,110.8-48.1,113.7-108.5h35c29.3,0,53,23.7,53.2,53l-0.4,11.5v0.5c0,27.7,14.6,52,36.6,65.6C346.7,269.8,332,294,332,321.7
		l0.5,11.8c-0.2,29.2-23.9,53-53.2,53h-35c-2.9-60.3-52.9-108.5-113.7-108.5c-62.7,0-113.9,51-113.9,113.9S67.7,506,130.5,506
		c56.5,0,103.5-41.4,112.3-95.3h36.3c42.7,0,77.3-34.6,77.3-77.3l-0.5-11.8c0.2-29.2,23.9-53,53.2-53h12.8V288
		c0,7.1,7.7,11.5,13.9,8l55.2-31.9C497.1,260.5,497.1,251.5,490.9,248.1z M130.4,222.4c-56.5,0-102.3-45.9-102.3-102.3
		S74,17.8,130.4,17.8s102.3,45.9,102.3,102.3S186.9,222.4,130.4,222.4z M130.4,494.3c-56.5,0-102.3-45.9-102.3-102.3
		S74,289.8,130.4,289.8s102.3,45.9,102.3,102.3S186.9,494.3,130.4,494.3z"/>
</g>
</svg>
