<?xml version="1.0" encoding="utf-8"?>
<!-- Generator: Adobe Illustrator 24.3.0, SVG Export Plug-In . SVG Version: 6.00 Build 0)  -->
<svg version="1.1" id="Layer_1" xmlns="http://www.w3.org/2000/svg" xmlns:xlink="http://www.w3.org/1999/xlink" x="0px" y="0px"
	 viewBox="0 0 512 512" style="enable-background:new 0 0 512 512;" xml:space="preserve">
<style type="text/css">
	.st0{fill:#FFFFFF;}
</style>
<g>
	<path class="st0" d="M223.9,73l-4.7,27.5c-0.8,4.5,2.3,8.9,6.8,9.6c1.8,0.3,3.7,0,5.3-0.8l24.7-13l24.7,13c1.2,0.6,2.5,0.9,3.9,1
		c4.6,0,8.3-3.7,8.3-8.3c0-0.5,0-0.9-0.1-1.4L288.1,73l20-19.5c3.3-3.2,3.4-8.5,0.2-11.8c-1.3-1.3-3-2.2-4.8-2.4l-27.6-4l-12.4-25
		c-2.4-4.1-7.7-5.5-11.9-3.1c-1.3,0.7-2.3,1.8-3.1,3.1l-12.4,25l-27.6,4c-4.6,0.7-7.7,4.9-7.1,9.4c0.3,1.8,1.1,3.5,2.4,4.8L223.9,73
		z M242.9,51.2c2.7-0.4,5.1-2.1,6.3-4.6l6.8-13.8l6.8,13.8c1.2,2.5,3.6,4.2,6.3,4.6l15.2,2.2l-11,10.7c-2,1.9-2.9,4.7-2.4,7.4
		l2.6,15.2l-13.6-7.2c-2.4-1.3-5.3-1.3-7.8,0l-13.6,7.2l2.6-15.2c0.5-2.7-0.4-5.5-2.4-7.4l-11-10.7L242.9,51.2z"/>
	<path class="st0" d="M76.2,149.6l27.9-0.4l16.1,22.8c1.6,2.2,4.1,3.5,6.8,3.5c0.4,0,0.9,0,1.3-0.1c3.1-0.5,5.7-2.7,6.7-5.8
		l8.3-26.6l26.6-8.3c4.4-1.4,6.9-6,5.5-10.4c-0.5-1.7-1.6-3.3-3.1-4.3l-22.8-16.1l0.4-27.9c0.1-4.6-3.6-8.4-8.2-8.5
		c-1.8,0-3.6,0.6-5.1,1.7l-22.4,16.7l-26.4-9c-4.4-1.5-9.1,0.9-10.6,5.2c-0.6,1.7-0.6,3.6,0,5.4l9,26.4l-16.7,22.4
		c-2.8,3.7-2,8.9,1.7,11.7C72.5,149,74.3,149.6,76.2,149.6L76.2,149.6z M103.3,112.7l-4.9-14.6L113,103c2.6,0.9,5.5,0.4,7.7-1.2
		l12.3-9.2l-0.2,15.4c0,2.7,1.3,5.3,3.5,6.9l12.6,8.9l-14.7,4.6c-2.6,0.8-4.7,2.9-5.5,5.5l-4.6,14.7l-8.9-12.6
		c-1.6-2.2-4.1-3.5-6.8-3.5h-0.1l-15.4,0.2l9.2-12.3C103.7,118.2,104.1,115.3,103.3,112.7z"/>
	<path class="st0" d="M169.9,376.9l-26.6-8.3L135,342c-1.4-4.4-6-6.9-10.4-5.5c-1.7,0.5-3.3,1.6-4.3,3.1l-16.1,22.8l-28-0.4
		c-4.6-0.1-8.4,3.6-8.5,8.2c0,1.8,0.6,3.6,1.7,5.1L86,397.7l-9,26.4c-1.5,4.4,0.9,9.1,5.2,10.6c1.7,0.6,3.6,0.6,5.4,0l26.4-9
		l22.4,16.7c1.4,1.1,3.2,1.7,5,1.7c1.3,0,2.6-0.3,3.8-0.9c2.8-1.4,4.6-4.3,4.6-7.5l-0.4-27.9l22.8-16.1c3.8-2.7,4.6-7.9,2-11.6
		C173.1,378.6,171.6,377.5,169.9,376.9L169.9,376.9z M136.2,396.7c-2.2,1.6-3.6,4.2-3.5,6.9l0.2,15.4l-12.3-9.2
		c-1.4-1.1-3.2-1.7-5-1.7c-0.9,0-1.8,0.1-2.7,0.4l-14.6,4.9l4.9-14.6c0.9-2.6,0.4-5.5-1.2-7.7l-9.2-12.3l15.4,0.2
		c2.7,0,5.3-1.3,6.9-3.5l8.9-12.6l4.6,14.7c0.8,2.6,2.9,4.7,5.5,5.5l14.7,4.6L136.2,396.7z"/>
	<path class="st0" d="M288.1,438.6l4.7-27.5c0.8-4.5-2.3-8.9-6.8-9.6c-1.8-0.3-3.7,0-5.3,0.8l-24.7,13l-24.7-13
		c-4.1-2.1-9.1-0.6-11.3,3.5c-0.9,1.6-1.1,3.5-0.8,5.3l4.7,27.5l-20,19.5c-3.3,3.2-3.4,8.5-0.2,11.8c1.3,1.3,3,2.2,4.8,2.4l27.6,4
		l12.4,25c2,4.1,7,5.8,11.2,3.8c1.6-0.8,3-2.1,3.8-3.8l12.4-25l27.6-4c4.6-0.7,7.7-4.9,7.1-9.4c-0.3-1.8-1.1-3.5-2.4-4.8
		L288.1,438.6z M269.1,460.4c-2.7,0.4-5.1,2.1-6.3,4.6l-6.8,13.8l-6.8-13.8c-1.2-2.5-3.6-4.2-6.3-4.6l-15.3-2.2l11-10.7
		c2-1.9,2.9-4.7,2.4-7.4l-2.6-15.2l13.6,7.2c2.4,1.3,5.3,1.3,7.8,0l13.6-7.2l-2.6,15.2c-0.5,2.7,0.4,5.5,2.4,7.4l11,10.7
		L269.1,460.4z"/>
	<path class="st0" d="M435.8,362l-27.9,0.4l-16.1-22.8c-2.7-3.8-7.9-4.6-11.6-2c-1.5,1.1-2.6,2.6-3.1,4.3l-8.3,26.7l-26.6,8.3
		c-4.4,1.4-6.9,6-5.5,10.4c0.5,1.7,1.6,3.3,3.1,4.3l22.8,16.1l-0.4,27.9c0,3.2,1.7,6.1,4.6,7.5c1.2,0.6,2.5,0.9,3.8,0.9
		c1.8,0,3.6-0.6,5-1.7l22.4-16.7l26.4,9c4.4,1.5,9.1-0.9,10.6-5.2c0.6-1.7,0.6-3.6,0-5.4l-9-26.4l16.7-22.4c1.9-2.5,2.2-5.9,0.8-8.8
		C441.9,363.8,439,362,435.8,362z M408.7,398.9l4.9,14.6l-14.6-4.9c-2.6-0.9-5.5-0.4-7.7,1.2L379,419l0.2-15.4
		c0-2.7-1.3-5.3-3.5-6.9l-12.6-8.9l14.7-4.6c2.6-0.8,4.7-2.9,5.5-5.5L388,363l8.9,12.6c1.6,2.3,4.2,3.6,6.9,3.5l15.4-0.2l-9.2,12.3
		C408.3,393.4,407.9,396.3,408.7,398.9z"/>
	<path class="st0" d="M342.1,134.8l26.7,8.3l8.3,26.6c0.9,3,3.5,5.3,6.7,5.8c0.4,0.1,0.9,0.1,1.3,0.1c2.7,0,5.2-1.3,6.8-3.5
		l16.1-22.8l27.9,0.4c3.1-0.1,6-1.8,7.5-4.6c1.4-2.8,1.1-6.2-0.8-8.8L426,113.9l9-26.4c1.5-4.4-0.9-9.1-5.2-10.6
		c-1.7-0.6-3.6-0.6-5.4,0l-26.4,9l-22.4-16.7c-3.7-2.8-8.9-2-11.7,1.7c-1.1,1.5-1.7,3.3-1.7,5.1l0.4,27.9L339.8,120
		c-3.8,2.7-4.6,7.9-2,11.6C338.9,133.1,340.4,134.2,342.1,134.8L342.1,134.8z M375.8,115c2.2-1.6,3.6-4.2,3.5-6.9l-0.2-15.4
		l12.3,9.2c2.2,1.6,5.1,2.1,7.7,1.2l14.6-4.9l-4.9,14.6c-0.9,2.6-0.4,5.5,1.2,7.7l9.2,12.3l-15.4-0.2c-2.8-0.1-5.4,1.2-6.9,3.5
		l-8.9,12.6l-4.6-14.7c-0.8-2.6-2.9-4.7-5.5-5.5l-14.7-4.6L375.8,115z"/>
	<path class="st0" d="M489.8,289.2l16-56.1c1.3-4.4-1.3-9-5.7-10.3c-0.7-0.2-1.5-0.3-2.3-0.3h-41.7v-25c0-4.6-3.7-8.3-8.3-8.3H381
		c-36.8-69-122.6-95.2-191.6-58.4c-24.8,13.2-45.2,33.6-58.4,58.4H64.2c-4.6,0-8.3,3.7-8.3,8.3v25H14.2c-4.6,0-8.3,3.7-8.3,8.3
		c0,0.8,0.1,1.5,0.3,2.3l16,56.1l-16,56.1c-1.3,4.4,1.3,9,5.7,10.3c0.7,0.2,1.5,0.3,2.3,0.3h83.4c1,0,2-0.2,2.9-0.6
		c0.1,0,0.2,0,0.3-0.1c0.3-0.1,0.4-0.3,0.7-0.4c0.4-0.2,0.7-0.4,1.1-0.7c0.6-0.5,1.2-1.1,1.7-1.7c0.2-0.3,0.5-0.7,0.7-1.1
		c0.1-0.2,0.3-0.4,0.4-0.7c0.1-0.3,0.1-0.3,0.1-0.4c0.1-0.4,0.2-0.8,0.3-1.2c0.1-0.4,0.2-0.8,0.2-1.2c0-0.1,0.1-0.3,0.1-0.4v-25H131
		c36.8,69,122.6,95.2,191.6,58.4c24.8-13.2,45.2-33.6,58.4-58.4h25.1v25c0,0.1,0.1,0.3,0.1,0.4c0,0.4,0.1,0.8,0.2,1.2
		c0.1,0.4,0.2,0.8,0.3,1.2c0,0.1,0,0.3,0.1,0.4s0.3,0.4,0.4,0.7c0.2,0.4,0.4,0.7,0.7,1.1c0.5,0.6,1.1,1.2,1.7,1.7
		c0.3,0.2,0.7,0.5,1.1,0.7c0.2,0.1,0.4,0.3,0.7,0.4c0.1,0,0.2,0,0.3,0.1c0.9,0.4,1.9,0.6,2.9,0.6H498c4.6,0,8.3-3.7,8.3-8.3
		c0-0.8-0.1-1.5-0.3-2.3L489.8,289.2z M376,305.9H72.5v-16.7h366.9v16.7H376z M290.4,322.5c-21.7,10.9-47.2,10.9-68.9,0H290.4z
		 M72.5,239.1h366.9v33.4H72.5V239.1z M256,130.7c43-0.2,83.1,21.9,105.9,58.4h-43.1c-35.2-33.4-90.4-33.4-125.6,0h-43.1
		C172.9,152.6,213,130.5,256,130.7z M290.4,189.1h-68.9C243.2,178.2,268.8,178.2,290.4,189.1z M136,205.8h303.5v16.7h-367v-16.7H136
		z M25.2,339.2l13.6-47.7c0.4-1.5,0.4-3.1,0-4.6l-13.6-47.7h30.6v75.1c0,0.2,0.1,0.3,0.1,0.5c0,0.7,0.2,1.5,0.4,2.1
		c0.1,0.2,0,0.4,0.1,0.5c0.1,0.2,0.1,0.2,0.2,0.3c0.4,0.9,0.9,1.7,1.6,2.4l0,0l19.1,19.1L25.2,339.2L25.2,339.2z M89.2,327.4
		l-4.9-4.9h4.9V327.4z M256,380.9c-43,0.2-83.1-21.9-105.9-58.4h43.1c35.2,33.4,90.4,33.4,125.6,0h43.1
		C339.1,359,299,381.1,256,380.9z M427.7,322.5l-4.9,4.9v-4.9H427.7z M473.1,291.5l13.6,47.7h-52.2l19.1-19.1l0,0
		c0.7-0.7,1.2-1.5,1.6-2.4c0.1-0.1,0.1-0.2,0.2-0.3c0-0.1,0.1-0.4,0.1-0.5c0.2-0.7,0.4-1.4,0.4-2.1c0-0.2,0.1-0.3,0.1-0.5v-75.1
		h30.6L473,286.9C472.7,288.4,472.7,290,473.1,291.5z"/>
</g>
</svg>
